<svg width="500" height="500" viewBox="0 0 500 500" fill="none" xmlns="http://www.w3.org/2000/svg">
<path d="M426.186 139.434C412.313 118.583 394.395 100.725 373.397 87.0748C342.453 66.9588 292.111 41.1358 238.987 42.3708C152.478 44.3828 164.549 127.539 126.324 196.613C88.0982 265.686 -3.10484 273.063 35.7902 372.985C74.6862 472.907 249.716 513.814 365.062 470.895C480.408 427.976 487.427 310.896 465.654 222.767C457.965 191.642 440.478 160.916 426.186 139.434Z" fill="#E06330"/>
<path opacity="0.8" d="M474.56 321.056C473.82 330.026 472.58 338.936 470.78 347.706C460.05 399.916 429.42 446.946 365.06 470.896C249.72 513.816 74.6901 472.906 35.7901 372.986C32.2201 363.826 29.7501 355.436 28.2301 347.706C26.2801 337.826 25.9001 329.026 26.7801 321.056C28.4501 305.866 34.7101 293.686 43.5201 282.796C45.7001 280.096 48.0301 277.486 50.4901 274.926C61.2501 263.716 74.3901 253.516 87.3301 242.146C101.79 229.446 115.99 215.286 126.32 196.616C164.55 127.536 152.48 44.386 238.99 42.376C292.11 41.136 342.45 66.956 373.4 87.076C394.39 100.726 412.31 118.586 426.19 139.436C440.48 160.916 457.97 191.646 465.65 222.766C467.82 231.536 469.7 240.596 471.22 249.836C472.33 256.636 473.25 263.526 473.95 270.486C474.35 274.576 474.68 278.676 474.92 282.796C475.68 295.516 475.62 308.346 474.56 321.056Z" fill="white"/>
<path d="M302.136 198.186C302.136 198.186 298.768 190.064 290.943 189.172C283.118 188.281 282.227 194.917 280.741 196.601C279.255 198.285 278.859 194.521 275.095 195.115C271.331 195.709 271.232 198.879 270.043 200.365C268.854 201.851 268.854 199.473 266.675 199.969C264.496 200.464 264.892 201.554 264.298 202.544C263.704 203.535 263.01 201.455 261.227 202.148C259.444 202.841 259.642 204.624 259.642 204.624H308.177C308.177 204.624 309.267 202.148 307.484 200.068C305.702 197.988 303.028 200.068 302.136 198.186Z" stroke="#263238" stroke-miterlimit="10"/>
<path d="M356.81 50C356.81 50 348.23 29.307 328.294 27.036C308.358 24.765 306.087 41.673 302.302 45.963C298.517 50.253 297.507 40.663 287.918 42.178C278.328 43.692 278.076 51.767 275.048 55.553C272.02 59.338 272.02 53.282 266.468 54.544C260.916 55.806 261.926 58.582 260.412 61.105C258.898 63.629 257.131 58.329 252.589 60.096C248.047 61.862 248.551 66.405 248.551 66.405H372.205C372.205 66.405 374.981 60.096 370.438 54.797C365.895 49.495 359.082 54.795 356.81 50Z" stroke="#263238" stroke-miterlimit="10"/>
<path d="M177.398 122.364C177.398 122.364 171.547 108.252 157.951 106.703C144.356 105.154 142.807 116.684 140.225 119.61C137.644 122.536 136.955 115.996 130.416 117.029C123.877 118.062 123.704 123.569 121.639 126.15C119.574 128.731 119.574 124.601 115.788 125.462C112.002 126.322 112.69 128.215 111.658 129.936C110.625 131.657 109.421 128.043 106.323 129.248C103.225 130.453 103.569 133.55 103.569 133.55H187.895C187.895 133.55 189.788 129.248 186.69 125.634C183.592 122.02 178.947 125.634 177.398 122.364Z" stroke="#263238" stroke-miterlimit="10"/>
<path d="M448.802 154.6C448.802 184.918 422.863 209.496 390.866 209.496C358.869 209.496 332.93 184.918 332.93 154.6C332.93 124.282 358.869 42.8379 390.866 42.8379C422.863 42.8379 448.802 124.282 448.802 154.6Z" fill="#E06330"/>
<path opacity="0.32" d="M448.802 154.6C448.802 184.918 422.863 209.496 390.866 209.496C358.869 209.496 332.93 184.918 332.93 154.6C332.93 124.282 358.869 42.8379 390.866 42.8379C422.863 42.8379 448.802 124.282 448.802 154.6Z" fill="white"/>
<path d="M385.939 230.936L386.856 200.877L369.315 174.429L386.841 193.946V173.633L377.281 142.565L387.637 167.26L389.436 126.884L390.425 170.845L390.824 178.014L403.837 167.536L392.019 183.59L391.62 193.946L406.574 183.298L405.163 185.373L392.417 197.721L393.214 230.908L385.939 230.936Z" fill="#787878"/>
<path d="M263.973 194.756C263.973 216.285 245.554 233.737 222.834 233.737C200.114 233.737 181.695 216.285 181.695 194.756C181.695 173.228 200.114 122.641 222.834 122.641C245.555 122.641 263.973 173.227 263.973 194.756Z" fill="#E06330"/>
<path opacity="0.32" d="M263.973 194.756C263.973 216.285 245.554 233.737 222.834 233.737C200.114 233.737 181.695 216.285 181.695 194.756C181.695 173.228 200.114 122.641 222.834 122.641C245.555 122.641 263.973 173.227 263.973 194.756Z" fill="white"/>
<path d="M219.335 248.96L219.986 227.616L207.531 208.836L219.976 222.695V208.271L213.188 186.21L220.541 203.745L221.818 175.075L222.521 206.291L222.804 211.382L232.045 203.941L223.653 215.341L223.37 222.695L233.988 215.134L232.986 216.607L223.936 225.375L224.501 248.941L219.335 248.96Z" fill="#787878"/>
<path d="M139.592 207.079C139.592 222.847 126.102 235.63 109.46 235.63C92.8191 235.63 79.3281 222.847 79.3281 207.079C79.3281 191.311 92.8181 154.26 109.46 154.26C126.102 154.26 139.592 191.311 139.592 207.079Z" fill="#E06330"/>
<path opacity="0.32" d="M139.592 207.079C139.592 222.847 126.102 235.63 109.46 235.63C92.8191 235.63 79.3281 222.847 79.3281 207.079C79.3281 191.311 92.8181 154.26 109.46 154.26C126.102 154.26 139.592 191.311 139.592 207.079Z" fill="white"/>
<path d="M106.898 246.781L107.375 231.147L98.2522 217.392L107.367 227.543V216.978L102.395 200.82L107.781 213.664L108.716 192.664L109.231 215.528L109.438 219.257L116.206 213.807L110.06 222.157L109.853 227.543L117.63 222.005L116.896 223.084L110.267 229.506L110.681 246.766L106.898 246.781Z" fill="#787878"/>
<path d="M444.616 259.471V166.016" stroke="#263238" stroke-miterlimit="10" stroke-linecap="round" stroke-linejoin="round"/>
<path d="M444.829 167.633C444.829 167.633 445.155 172.029 447.272 175.123C449.389 178.217 452.645 181.148 451.017 188.475C449.389 195.803 448.575 198.082 448.9 199.711C449.226 201.339 449.551 200.362 449.877 203.619C450.203 206.876 448.737 209.644 448.737 209.644C448.737 209.644 451.017 206.713 447.597 202.642C444.178 198.571 444.503 193.035 444.503 190.918C444.503 188.801 444.829 167.633 444.829 167.633Z" fill="#263238" stroke="#263238" stroke-miterlimit="10" stroke-linecap="round" stroke-linejoin="round"/>
<path d="M362.965 218.622C362.965 218.622 318.48 212.059 269.619 227.373C220.758 242.688 204.714 247.063 190.858 250.71C177.002 254.356 170.439 255.815 170.439 255.815C170.439 255.815 190.858 272.588 238.261 266.025C285.663 259.461 362.965 218.622 362.965 218.622Z" fill="#ABABAB"/>
<path d="M233.83 282.796C305.7 280.086 358.09 270.426 404.29 269.246C436.48 268.416 459.68 269.426 473.95 270.486C473.25 263.526 472.33 256.636 471.22 249.836C447.7 242.046 372.19 217.356 362.97 218.626C352.02 220.136 265.24 263.106 203.26 249.986C171.85 243.336 125.46 241.926 87.33 242.146C74.39 253.516 61.25 263.716 50.49 274.926C73.43 277.796 109.15 281.196 158 282.796H233.83Z" fill="#E06330"/>
<path opacity="0.39" d="M233.83 282.796C305.7 280.086 358.09 270.426 404.29 269.246C436.48 268.416 459.68 269.426 473.95 270.486C473.25 263.526 472.33 256.636 471.22 249.836C447.7 242.046 372.19 217.356 362.97 218.626C352.02 220.136 265.24 263.106 203.26 249.986C171.85 243.336 125.46 241.926 87.33 242.146C74.39 253.516 61.25 263.716 50.49 274.926C73.43 277.796 109.15 281.196 158 282.796H233.83Z" fill="white"/>
<path d="M470.78 347.706C460.05 399.916 429.42 446.946 365.06 470.896C249.72 513.816 74.69 472.906 35.79 372.986C32.22 363.826 29.75 355.436 28.23 347.706H470.78Z" fill="#E06330"/>
<path d="M474.56 321.056H26.78C28.45 305.866 34.71 293.686 43.52 282.796C45.7 280.096 48.03 277.486 50.49 274.926C73.43 277.796 109.15 281.196 158 282.796C163.23 282.966 168.6 283.116 174.13 283.246C195.48 283.736 215.3 283.496 233.83 282.796C305.7 280.086 358.09 270.426 404.29 269.246C436.48 268.416 459.68 269.426 473.95 270.486C474.35 274.576 474.68 278.676 474.92 282.796C475.68 295.516 475.62 308.346 474.56 321.056Z" fill="#E06330"/>
<path d="M19.3569 270.139C19.3569 270.139 69.9899 280.859 174.134 283.242C278.278 285.624 346.172 270.735 404.286 269.246C440.141 268.327 464.826 269.676 478.475 270.844" stroke="#263238" stroke-miterlimit="10" stroke-linecap="round" stroke-linejoin="round"/>
<path d="M195.307 339.88C195.307 342.474 164.328 344.577 126.113 344.577C87.8979 344.577 56.9189 342.474 56.9189 339.88C56.9189 337.286 87.8979 335.184 126.113 335.184C164.328 335.184 195.307 337.287 195.307 339.88Z" fill="#263238"/>
<path d="M169.695 287.151L160.623 227.612" stroke="#263238" stroke-width="2" stroke-miterlimit="10" stroke-linecap="round"/>
<path d="M193.665 322.369C193.751 314.623 187.541 308.273 179.793 308.187C172.046 308.101 165.696 314.311 165.61 322.058C165.524 329.805 171.735 336.154 179.482 336.24C187.229 336.326 193.579 330.116 193.665 322.369Z" fill="#263238" stroke="#263238" stroke-miterlimit="10" stroke-linecap="round" stroke-linejoin="round"/>
<path d="M60.7008 251.846C59.3538 250.137 57.6598 249.444 57.6598 249.444C57.6598 249.444 60.5808 245.048 59.9138 243.344C59.2468 241.64 55.3388 241.611 54.3098 242.962C53.2798 244.314 52.0728 246.684 52.0728 246.684C52.0728 246.684 50.9218 241.578 49.5688 240.718C48.2158 239.858 41.5948 239.129 40.7288 241.332C39.8628 243.535 41.5468 245.586 41.5468 245.586C41.5468 245.586 39.6728 246.252 40.0008 247.783C40.3288 249.315 42.8718 250.183 42.8718 250.183L44.2028 253.931C44.2028 253.931 40.6338 254.074 40.4488 256.112C40.2638 258.15 42.3018 258.335 42.9808 258.34C43.6608 258.345 43.8108 260.895 43.8108 260.895L43.4108 269.048C43.4108 269.048 39.9808 273.27 40.4528 278.371C40.9248 283.472 39.4018 305.38 39.3878 307.249C39.3738 309.118 40.7178 311.167 42.4168 311.18C44.1158 311.193 50.2498 308.86 51.7848 308.191C53.3188 307.523 58.2678 304.671 58.9768 300.768C59.6858 296.865 58.9168 285.985 58.9298 284.286C58.9428 282.587 58.6338 278.337 58.4818 275.957C58.3298 273.577 56.2348 269.653 56.2348 269.653L56.7258 260.821C56.7258 260.821 57.0868 257.935 57.2618 257.257C57.4368 256.579 59.2918 258.462 61.0008 257.115C62.7108 255.769 62.0478 253.555 60.7008 251.846Z" fill="#263238" stroke="#263238" stroke-miterlimit="10" stroke-linecap="round" stroke-linejoin="round"/>
<path d="M80.3108 288.184L56.3418 289.535L56.6528 293.446L80.4518 292.094L80.3108 288.184Z" fill="#263238" stroke="#263238" stroke-miterlimit="10" stroke-linejoin="round"/>
<path d="M114.032 296.844C113.538 296.343 101.401 284.921 98.867 282.537C98.569 282.256 98.183 282.087 97.774 282.057L91.849 281.626C90.801 281.55 89.914 282.392 89.937 283.443L90.17 294.259L93.115 296.502L93.651 299.098L113.633 300.543C113.633 300.543 114.583 297.403 114.032 296.844ZM98.314 294.505L91.493 290.752L91.565 284.742C91.575 283.892 92.314 283.236 93.159 283.326L97.378 283.774C97.701 283.808 98.003 283.951 98.235 284.178L109.233 294.957L98.314 294.505Z" fill="#263238" stroke="#263238" stroke-miterlimit="10" stroke-linecap="round" stroke-linejoin="round"/>
<path d="M50.376 324.158L90.821 324.459L92.496 327.368L97.847 327.408C97.847 327.408 96.099 316.692 87.923 310.365C79.747 304.039 63.692 304.05 60.417 305.592C57.142 307.134 54.107 311.549 51.723 316.231C49.34 320.912 50.376 324.158 50.376 324.158Z" fill="#263238" stroke="#263238" stroke-miterlimit="10" stroke-linecap="round" stroke-linejoin="round"/>
<path d="M74.147 225.949L64.252 299.789" stroke="#263238" stroke-width="2" stroke-miterlimit="10" stroke-linecap="round"/>
<path d="M95.8819 328.755L161.041 329.24C161.041 329.24 164.943 327.233 167.571 322.439C170.198 317.646 177.491 307.888 178.791 307.343C180.091 306.797 196.575 305.624 196.575 305.624C196.575 305.624 198.99 304.531 194.396 299.869C189.803 295.207 183.351 291.456 178.005 288.455C172.659 285.453 163.983 282.057 162.502 282.045C161.021 282.034 160.277 282.584 159.894 284.247C159.511 285.91 159.295 290.166 159.103 291.091C158.911 292.015 158.168 292.38 157.056 292.557C155.944 292.734 154.835 292.54 154.835 292.54C154.835 292.54 151.866 293.444 152.045 294.371C152.223 295.298 153.136 296.971 153.136 296.971L153.125 298.452L157.373 299.78L148.535 318.226L125.026 318.051L125.15 301.391C125.15 301.391 125.527 300.468 124.061 298.421C122.595 296.374 116.703 292.072 115.778 292.065C114.852 292.058 91.3519 290.772 89.4939 291.684C87.6359 292.596 85.5849 294.617 85.5849 294.617C85.5849 294.617 60.0209 297.018 53.8969 299.009C47.7729 301 46.0859 303.764 44.7739 305.976C43.4619 308.188 40.2839 312.237 40.2839 312.237C40.2839 312.237 37.3239 312.03 37.3069 314.251C37.2899 316.472 37.0739 320.728 37.6209 321.843C38.1679 322.958 39.4609 323.338 40.0149 323.527C40.5689 323.716 50.3769 324.16 50.3769 324.16C50.3769 324.16 56.3969 311.246 59.0049 309.044C61.6129 306.842 73.4619 306.745 78.8189 308.266C84.1749 309.785 94.6189 324.302 95.8819 328.755Z" fill="white" stroke="#263238" stroke-miterlimit="10" stroke-linecap="round" stroke-linejoin="round"/>
<path d="M159.895 284.247C159.512 285.91 159.295 290.166 159.103 291.091C158.911 292.015 158.168 292.38 157.056 292.557C155.944 292.734 154.835 292.54 154.835 292.54C154.835 292.54 151.866 293.444 152.045 294.371C152.223 295.298 153.136 296.971 153.136 296.971L153.125 298.452L157.373 299.78L148.535 318.226L125.026 318.051L124.974 325.085L156.258 325.318C156.258 325.318 168.467 301.713 169.24 297.276C170.013 292.839 170.036 289.877 168.023 286.715C166.01 283.553 162.504 282.046 162.504 282.046C161.022 282.034 160.278 282.584 159.895 284.247Z" fill="#263238" stroke="#263238" stroke-miterlimit="10" stroke-linecap="round" stroke-linejoin="round"/>
<path d="M70.807 344.191C80.0586 343.21 86.7637 334.915 85.783 325.663C84.8024 316.412 76.5075 309.707 67.2558 310.687C58.0041 311.668 51.2991 319.963 52.2797 329.215C53.2603 338.466 61.5553 345.171 70.807 344.191Z" fill="#6E6E6E" stroke="#263238" stroke-miterlimit="10" stroke-linecap="round" stroke-linejoin="round"/>
<path d="M77.1141 327.504C77.1471 323.05 73.5641 319.413 69.1101 319.38C64.6561 319.347 61.0191 322.93 60.9861 327.384C60.9531 331.838 64.5361 335.475 68.9901 335.508C73.4431 335.542 77.0801 331.958 77.1141 327.504Z" fill="white" stroke="#263238" stroke-miterlimit="10" stroke-linecap="round" stroke-linejoin="round"/>
<path d="M202.453 330.343C203.566 322.24 197.899 314.77 189.796 313.658C181.694 312.545 174.223 318.212 173.111 326.315C171.999 334.418 177.665 341.888 185.768 343C193.871 344.113 201.341 338.446 202.453 330.343Z" fill="#6E6E6E" stroke="#263238" stroke-miterlimit="10" stroke-linecap="round" stroke-linejoin="round"/>
<path d="M194.875 328.381C194.904 324.466 191.754 321.268 187.838 321.239C183.923 321.21 180.725 324.36 180.696 328.276C180.667 332.191 183.817 335.389 187.733 335.418C191.648 335.447 194.846 332.297 194.875 328.381Z" fill="white" stroke="#263238" stroke-miterlimit="10" stroke-linecap="round" stroke-linejoin="round"/>
<path d="M153.044 309.372L147.275 313.402L148.745 314.894L155.246 311.98L156.371 310.137L154.535 308.087C154.535 308.087 153.242 307.523 153.044 309.372Z" fill="#263238" stroke="#263238" stroke-miterlimit="10" stroke-linecap="round" stroke-linejoin="round"/>
<path d="M141.669 320.395L149.724 307.682L151.014 308.432L145.38 319.312L147.028 321.731L139.993 321.678L141.669 320.395Z" fill="#263238" stroke="#263238" stroke-miterlimit="10" stroke-linecap="round" stroke-linejoin="round"/>
<path d="M118.881 298.011C118.388 297.51 106.25 286.088 103.717 283.704C103.419 283.423 103.033 283.254 102.624 283.224L96.6988 282.793C95.6508 282.717 94.7638 283.559 94.7868 284.61L95.0198 295.426L97.9648 297.669L98.5008 300.265L118.483 301.71C118.483 301.71 119.432 298.57 118.881 298.011ZM103.163 295.672L96.3408 291.919L96.4128 285.909C96.4228 285.06 97.1618 284.403 98.0068 284.493L102.226 284.941C102.549 284.975 102.851 285.118 103.083 285.345L114.081 296.124L103.163 295.672Z" fill="#6E6E6E" stroke="#263238" stroke-miterlimit="10" stroke-linecap="round" stroke-linejoin="round"/>
<path d="M45.6728 304.96L48.5618 304.981C49.5908 304.989 50.2658 306.059 49.8298 306.991L47.6928 311.556C47.3008 312.394 46.4558 312.927 45.5308 312.92L40.2778 312.881L45.6728 304.96Z" fill="white" stroke="#263238" stroke-miterlimit="10" stroke-linecap="round" stroke-linejoin="round"/>
<path d="M37.253 317.559C37.239 319.372 37.292 321.173 37.62 321.842C38.167 322.957 39.46 323.337 40.014 323.526C40.568 323.715 50.376 324.159 50.376 324.159C50.376 324.159 51.81 321.085 53.58 317.681L37.253 317.559Z" fill="white" stroke="#263238" stroke-miterlimit="10" stroke-linecap="round" stroke-linejoin="round"/>
<path d="M93.165 323.457C94.545 325.648 95.544 327.563 95.882 328.755L161.041 329.24C161.041 329.24 164.083 327.671 166.604 324.004L93.165 323.457Z" fill="white" stroke="#263238" stroke-miterlimit="10" stroke-linecap="round" stroke-linejoin="round"/>
<path d="M134.742 272.538L134.98 270.634L133.231 268.958L133.236 268.953L135.625 263.063L136.825 261.81C137.176 261.444 137.163 260.863 136.797 260.512C136.431 260.161 135.85 260.174 135.499 260.54L121.208 275.459C120.857 275.825 120.87 276.406 121.236 276.757C121.602 277.108 122.183 277.095 122.534 276.729L125.117 274.032L129.779 272.699L129.867 272.604L131.482 273.858L133.612 273.762L155.528 296.007L156.325 294.332L134.742 272.538ZM132.674 268.522L131.521 269.772L130.064 268.869L134.322 264.424L132.674 268.522ZM126.085 273.022L129.565 269.389L131.034 270.299L129.395 272.075L126.085 273.022Z" fill="#263238"/>
<path d="M171.032 312.988L179.64 297.93L168.44 227.5" stroke="#263238" stroke-width="2" stroke-miterlimit="10" stroke-linecap="round"/>
<path d="M65.6179 298.95L77.7239 224.786" stroke="#263238" stroke-width="2" stroke-miterlimit="10" stroke-linecap="round"/>
<path d="M71.4209 226.948L101.143 228.699L114.072 226.586L175.562 229.253L170.07 226.06C169.01 225.444 167.816 225.096 166.591 225.045L80.5739 221.526C78.3519 221.435 76.2029 222.331 74.7019 223.973L71.4209 226.948Z" fill="white" stroke="#263238" stroke-miterlimit="10" stroke-linecap="round" stroke-linejoin="round"/>
<path d="M91.8269 224.891L104.225 225.663" stroke="#263238" stroke-width="2" stroke-miterlimit="10" stroke-linecap="round"/>
<path d="M70.9558 268.578L41.5608 268.361L41.5432 270.74L70.9382 270.957L70.9558 268.578Z" fill="#263238"/>
<path d="M70.9309 269.933C70.9309 269.933 76.0269 270.133 77.8619 274.673C79.6969 279.214 81.0959 296.685 81.0959 296.685" stroke="#263238" stroke-width="2" stroke-miterlimit="10" stroke-linejoin="round"/>
<path d="M77.8709 273.553C77.8709 273.553 77.7469 267.435 81.1449 267.46C84.5429 267.485 87.5439 275.154 87.3389 279.91C87.1339 284.666 80.8469 284.619 79.8469 282.063C78.8459 279.508 77.8709 273.553 77.8709 273.553Z" stroke="#263238" stroke-miterlimit="10" stroke-linejoin="round"/>
<path d="M79.428 268.169C77.802 269.769 77.871 273.553 77.871 273.553C77.871 273.553 78.846 279.507 79.847 282.064C80.334 283.308 82.072 283.95 83.752 283.742L79.428 268.169Z" fill="#263238" stroke="#263238" stroke-miterlimit="10" stroke-linejoin="round"/>
<path d="M290.59 88.3141C290.59 88.3141 294.079 79.0101 302.22 76.9161C310.361 74.8231 323.387 93.1981 325.713 99.7111C328.039 106.224 324.783 121.111 324.783 124.6C324.783 128.089 329.668 132.276 331.063 129.95C332.459 127.624 332.459 127.624 332.459 127.624C332.459 127.624 334.087 126.461 333.389 130.648C332.691 134.835 327.574 138.789 322.457 138.324C317.34 137.859 309.431 135.533 309.431 135.533C309.431 135.533 304.314 144.139 299.429 152.048C294.544 159.957 285.938 157.863 285.938 157.863L289.195 151.815C289.195 151.815 288.032 158.328 282.45 158.328C276.867 158.328 274.309 155.072 274.309 155.072C274.309 155.072 279.194 156.933 282.683 146.931C286.172 136.929 282.916 120.647 280.357 112.04C277.797 103.433 283.38 88.3141 290.59 88.3141Z" fill="#263238" stroke="#263238" stroke-miterlimit="10" stroke-linecap="round" stroke-linejoin="round"/>
<path d="M289.195 177.867C289.195 177.867 291.254 195.54 291.455 197.152C291.657 198.764 291.253 220.123 291.253 220.123C291.253 220.123 287.053 234.309 287.859 242.37C288.665 250.43 287.828 275.94 286.417 281.179C285.006 286.418 290.044 297.501 290.649 297.299C291.254 297.097 296.493 280.977 296.291 277.552C296.089 274.126 295.01 263.931 295.01 263.931C295.01 263.931 302.739 246.52 303.344 236.848C303.948 227.176 303.948 223.75 303.948 223.75C303.948 223.75 306.769 215.69 306.971 211.861C307.172 208.033 307.979 195.942 307.979 195.942C307.979 195.942 305.158 181.837 300.725 177.202C296.291 172.568 289.957 175.105 289.195 177.867Z" fill="white" stroke="#263238" stroke-miterlimit="10" stroke-linecap="round" stroke-linejoin="round"/>
<path d="M427.565 412.117C427.565 415.527 399.925 418.29 365.829 418.29C331.733 418.29 304.093 415.526 304.093 412.117C304.093 408.708 331.733 405.944 365.829 405.944C399.925 405.944 427.565 408.708 427.565 412.117Z" fill="#263238"/>
<path d="M326.003 281.663C326.003 281.663 325.115 303.279 326.891 316.011C328.668 328.743 333.109 353.32 333.701 369.606C334.293 385.892 332.221 392.406 332.221 392.406C332.221 392.406 331.925 395.663 336.366 396.255C340.807 396.847 346.137 394.775 346.434 393.294C346.73 391.813 347.026 378.785 349.099 364.276C351.172 349.767 352.948 352.136 352.356 333.185C351.764 314.234 348.21 302.39 347.026 297.356C345.842 292.322 345.546 278.701 345.546 278.701L326.003 281.663Z" fill="white" stroke="#263238" stroke-miterlimit="10" stroke-linecap="round" stroke-linejoin="round"/>
<path d="M338.255 392.087C338.255 392.087 338.858 389.475 336.044 387.465C333.231 385.455 331.422 384.652 330.819 386.862C330.216 389.073 329.814 392.891 329.814 392.891C329.814 392.891 325.996 396.307 320.771 399.724C315.546 403.14 309.115 403.542 308.914 406.556C308.713 409.57 310.723 409.369 316.349 409.972C321.975 410.575 333.832 409.771 336.847 408.967C339.862 408.163 342.876 408.565 346.091 407.56C349.306 406.555 348.704 403.34 348.704 399.321C348.704 395.302 348.302 391.685 347.699 391.082C347.097 390.479 339.863 391.886 338.255 392.087Z" fill="white" stroke="#263238" stroke-miterlimit="10" stroke-linecap="round" stroke-linejoin="round"/>
<path d="M336.044 387.465C333.231 385.456 331.422 384.652 330.819 386.862C330.216 389.073 329.814 392.891 329.814 392.891L327.804 395.102C327.804 395.102 329.01 395.906 330.617 396.308C332.225 396.71 334.234 398.92 334.234 398.92L338.253 392.088C338.255 392.087 338.858 389.474 336.044 387.465Z" fill="white" stroke="#263238" stroke-miterlimit="10" stroke-linecap="round" stroke-linejoin="round"/>
<path d="M348.648 404.251C345.081 405.063 336.278 406.714 324.59 407.761C315.857 408.543 311.198 407.214 308.991 406.182C308.959 406.304 308.924 406.424 308.915 406.556C308.714 409.57 310.724 409.369 316.35 409.972C321.977 410.575 333.833 409.771 336.848 408.967C339.863 408.163 342.877 408.565 346.092 407.56C347.816 407.022 348.438 405.844 348.648 404.251Z" fill="white" stroke="#263238" stroke-miterlimit="10" stroke-linecap="round" stroke-linejoin="round"/>
<path d="M341.4 284.032C341.4 284.032 338.143 303.575 341.992 319.861C345.841 336.147 352.06 363.388 352.06 374.344C352.06 385.3 352.06 393.591 352.06 393.591C352.06 393.591 352.652 397.736 358.278 398.329C363.904 398.921 365.088 396.849 365.681 392.703C366.273 388.557 372.195 354.802 371.307 343.253C370.419 331.704 364.201 320.749 363.312 311.57C362.424 302.391 367.161 285.809 367.161 285.809L341.4 284.032Z" fill="white" stroke="#263238" stroke-miterlimit="10" stroke-linecap="round" stroke-linejoin="round"/>
<path d="M324.226 232.51C324.226 232.51 320.08 260.048 318.304 267.45C316.527 274.853 316.824 281.071 316.824 281.071C316.824 281.071 324.819 288.178 342.585 290.842C360.351 293.507 379.598 288.769 379.598 288.769C379.598 288.769 382.855 267.449 383.744 251.164C384.632 234.878 378.916 218.045 375.26 216.246C375.26 216.246 374.269 215.632 372.492 217.112C370.715 218.592 358.279 223.626 345.546 228.068C332.813 232.51 324.226 232.51 324.226 232.51Z" fill="white" stroke="#263238" stroke-miterlimit="10" stroke-linecap="round" stroke-linejoin="round"/>
<path d="M370.122 222.146C370.122 222.146 379.597 239.024 378.117 257.679C376.637 276.334 374.268 289.362 374.268 289.362" stroke="#263238" stroke-miterlimit="10" stroke-linecap="round" stroke-linejoin="round"/>
<path d="M352.119 287.076C351.49 288.291 350.967 289.547 350.579 290.843" stroke="#263238" stroke-miterlimit="10" stroke-linecap="round" stroke-linejoin="round"/>
<path d="M376.932 266.266C376.932 266.266 360.814 273.454 353.424 284.84" stroke="#263238" stroke-miterlimit="10" stroke-linecap="round" stroke-linejoin="round"/>
<path d="M330.74 244.058C330.74 244.058 333.701 249.092 342.288 252.349" stroke="#263238" stroke-miterlimit="10" stroke-linecap="round" stroke-linejoin="round"/>
<path d="M339.137 254.32C340.345 254.792 341.622 255.162 342.88 255.31" stroke="#263238" stroke-miterlimit="10" stroke-linecap="round" stroke-linejoin="round"/>
<path d="M332.517 250.572C332.517 250.572 334.894 252.421 337.973 253.826" stroke="#263238" stroke-miterlimit="10" stroke-linecap="round" stroke-linejoin="round"/>
<path d="M301.29 151.35C301.29 151.35 291.753 159.956 290.125 166.469C288.497 172.982 289.195 177.867 289.195 177.867L298.267 179.03C298.267 179.03 302.687 192.521 304.547 195.778C306.408 199.035 316.643 206.71 316.643 206.71C316.643 206.71 322.691 228.11 323.388 230.668C324.086 233.227 324.551 234.622 324.551 234.622C324.551 234.622 344.555 235.552 358.279 230.435C372.003 225.318 375.259 216.246 375.259 216.246C375.259 216.246 368.746 204.616 364.559 199.964C360.372 195.312 354.557 186.24 354.557 186.24C354.557 186.24 356.651 167.399 342.694 147.395C328.737 127.391 317.34 137.858 317.34 137.858L301.29 151.35Z" fill="#E06330" stroke="#263238" stroke-miterlimit="10" stroke-linecap="round" stroke-linejoin="round"/>
<path d="M248.024 136.463C248.024 136.463 256.398 134.37 261.05 131.811C265.702 129.252 267.33 122.739 267.563 121.111C267.796 119.483 264.306 121.111 261.05 123.67C257.793 126.228 248.024 136.463 248.024 136.463Z" fill="#263238" stroke="#263238" stroke-miterlimit="10" stroke-linecap="round" stroke-linejoin="round"/>
<path d="M261.05 118.32C261.05 118.32 262.446 123.67 263.841 125.066C265.237 126.462 267.795 126.229 268.26 129.951C268.725 133.673 267.329 137.162 268.958 137.627C270.586 138.092 273.145 137.86 273.145 137.86C273.145 137.86 282.914 147.164 285.473 146.234C288.032 145.304 293.382 139.488 293.382 139.488C293.382 139.488 297.569 145.536 299.43 152.049C301.291 158.562 299.663 172.053 304.547 173.449C309.432 174.845 314.549 160.423 314.782 152.747C315.015 145.071 317.341 137.86 317.341 137.86C317.341 137.86 310.13 130.882 307.339 122.741C304.548 114.6 309.898 107.622 301.989 96.9221C294.08 86.2221 279.194 82.9661 269.89 89.0131C260.585 95.0591 253.606 108.55 261.05 118.32Z" fill="white" stroke="#263238" stroke-miterlimit="10" stroke-linecap="round" stroke-linejoin="round"/>
<path d="M307.285 122.57C304.624 114.501 309.842 107.545 301.988 96.9202C294.079 86.2202 279.193 82.9642 269.889 89.0112C261.797 94.2712 255.47 105.16 258.853 114.335C260.858 114.286 262.385 113.638 262.91 112.272C264.073 109.248 264.771 105.294 264.771 105.294C264.771 105.294 271.749 95.0592 274.54 95.9902C277.331 96.9202 277.797 106.69 281.285 107.62C284.774 108.55 291.985 107.853 293.846 106.457C295.707 105.061 296.405 109.481 299.196 114.366C301.208 117.884 304.425 122.85 307.285 122.57Z" fill="#263238" stroke="#263238" stroke-miterlimit="10" stroke-linecap="round" stroke-linejoin="round"/>
<path d="M291.288 109.946C291.288 109.946 292.451 101.34 296.173 101.34C299.895 101.34 302.453 106.69 301.29 111.109C300.127 115.529 295.708 114.598 295.708 114.598" fill="white"/>
<path d="M291.288 109.946C291.288 109.946 292.451 101.34 296.173 101.34C299.895 101.34 302.453 106.69 301.29 111.109C300.127 115.529 295.708 114.598 295.708 114.598" stroke="#263238" stroke-miterlimit="10" stroke-linecap="round" stroke-linejoin="round"/>
<path d="M278.03 106.457C278.03 106.457 279.193 111.807 270.121 120.879C261.049 129.951 248.024 136.463 248.024 136.463L261.05 118.32C261.05 118.32 266.632 111.109 278.03 106.457Z" fill="#E06330" stroke="#263238" stroke-miterlimit="10" stroke-linecap="round" stroke-linejoin="round"/>
<path d="M278.03 106.457C278.03 106.457 293.149 98.7811 304.314 100.177L299.662 94.129C299.662 94.129 275.704 92.2681 256.63 109.946L261.049 118.32C261.049 118.32 269.191 109.946 278.03 106.457Z" fill="#E06330" stroke="#263238" stroke-miterlimit="10" stroke-linecap="round" stroke-linejoin="round"/>
<path d="M273.887 123.786C274.693 124.954 274.847 126.247 274.229 126.672C273.612 127.098 272.458 126.496 271.652 125.328C270.846 124.16 270.692 122.867 271.31 122.442C271.927 122.016 273.081 122.618 273.887 123.786Z" fill="#263238"/>
<path d="M276.634 139.254C276.634 139.254 281.286 136.695 282.217 131.345" stroke="#263238" stroke-miterlimit="10" stroke-linecap="round" stroke-linejoin="round"/>
<path d="M293.382 139.487L298.266 132.741L298.034 147.861L293.382 139.487Z" fill="#263238" stroke="#263238" stroke-miterlimit="10" stroke-linecap="round" stroke-linejoin="round"/>
<path d="M294.545 274.398L264.539 404.889" stroke="#263238" stroke-width="2" stroke-miterlimit="10" stroke-linecap="round" stroke-linejoin="round"/>
<path d="M267.664 407.811C270.263 405.629 268.773 401.403 265.38 401.393C260.049 401.378 251.116 401.328 249.187 401.167C246.396 400.934 244.07 404.424 245.465 407.215C246.861 410.006 255.932 412.332 262.445 410.472C264.615 409.851 266.372 408.896 267.664 407.811Z" fill="white" stroke="#263238" stroke-miterlimit="10" stroke-linecap="round" stroke-linejoin="round"/>
<path d="M261.908 410.464C261.908 407.748 259.707 405.547 256.991 405.547C254.275 405.547 252.074 407.748 252.074 410.464C252.074 413.18 254.275 415.381 256.991 415.381C259.707 415.381 261.908 413.179 261.908 410.464Z" fill="white" stroke="#263238" stroke-miterlimit="10" stroke-linecap="round" stroke-linejoin="round"/>
<path d="M286.216 285.41C286.216 285.41 286.406 288.888 286.801 290.335C287.195 291.781 288.51 296.251 288.642 297.961C288.773 299.67 291.14 297.698 290.614 294.937C290.088 292.176 289.562 288.1 289.562 288.1C289.562 288.1 291.534 284.945 290.745 280.869" fill="white"/>
<path d="M286.216 285.41C286.216 285.41 286.406 288.888 286.801 290.335C287.195 291.781 288.51 296.251 288.642 297.961C288.773 299.67 291.14 297.698 290.614 294.937C290.088 292.176 289.562 288.1 289.562 288.1C289.562 288.1 291.534 284.945 290.745 280.869" stroke="#263238" stroke-miterlimit="10" stroke-linecap="round" stroke-linejoin="round"/>
<path d="M293.754 282.711C293.139 283.111 292.862 283.867 292.932 284.598C293.081 286.137 293.42 288.949 293.9 288.757C294.557 288.494 296.004 287.179 295.215 284.681C294.651 282.897 294.356 282.32 293.754 282.711Z" fill="white" stroke="#263238" stroke-miterlimit="10" stroke-linecap="round" stroke-linejoin="round"/>
<path d="M293.097 285.472C292.482 285.872 292.204 286.628 292.275 287.359C292.424 288.898 292.763 291.71 293.242 291.518C293.899 291.255 295.346 289.94 294.557 287.442C293.994 285.658 293.699 285.081 293.097 285.472Z" fill="white" stroke="#263238" stroke-miterlimit="10" stroke-linecap="round" stroke-linejoin="round"/>
<path d="M292.045 289.022C291.429 289.422 291.153 290.178 291.223 290.909C291.372 292.448 291.711 295.26 292.19 295.068C292.847 294.805 294.294 293.49 293.505 290.992C292.942 289.207 292.647 288.631 292.045 289.022Z" fill="white" stroke="#263238" stroke-miterlimit="10" stroke-linecap="round" stroke-linejoin="round"/>
<path d="M318.038 148.093L319.201 206.012L295.01 263.93C295.01 263.93 291.753 266.256 291.521 268.35C291.288 270.443 290.358 277.654 289.428 279.515C288.498 281.376 285.474 282.539 288.963 282.539C292.452 282.539 294.778 279.98 294.778 279.98C294.778 279.98 294.313 288.354 295.941 288.586C297.569 288.819 299.895 282.538 299.895 282.538C299.895 282.538 303.617 280.445 304.082 276.956C304.547 273.467 303.384 264.861 303.384 263.698C303.384 262.535 335.716 220.433 336.181 217.41C336.646 214.386 336.414 212.293 336.414 211.595C336.414 210.897 339.205 158.794 339.438 155.537C339.671 152.28 339.205 147.861 339.205 147.861" fill="#E06330"/>
<path d="M318.038 148.093L319.201 206.012L295.01 263.93C295.01 263.93 291.753 266.256 291.521 268.35C291.288 270.443 290.358 277.654 289.428 279.515C288.498 281.376 285.474 282.539 288.963 282.539C292.452 282.539 294.778 279.98 294.778 279.98C294.778 279.98 294.313 288.354 295.941 288.586C297.569 288.819 299.895 282.538 299.895 282.538C299.895 282.538 303.617 280.445 304.082 276.956C304.547 273.467 303.384 264.861 303.384 263.698C303.384 262.535 335.716 220.433 336.181 217.41C336.646 214.386 336.414 212.293 336.414 211.595C336.414 210.897 339.205 158.794 339.438 155.537C339.671 152.28 339.205 147.861 339.205 147.861" stroke="#263238" stroke-miterlimit="10" stroke-linecap="round" stroke-linejoin="round"/>
<path d="M336.414 211.594C336.414 210.992 338.488 172.203 339.209 159.418C328.551 151.538 321.453 157.03 318.293 160.771L319.201 206.012L295.01 263.93C295.01 263.93 291.754 266.256 291.521 268.35C291.288 270.443 290.358 277.654 289.428 279.515C288.498 281.376 285.474 282.539 288.963 282.539C292.452 282.539 294.778 279.98 294.778 279.98C294.778 279.98 294.313 288.354 295.941 288.586C297.569 288.819 299.895 282.538 299.895 282.538C299.895 282.538 303.617 280.445 304.082 276.956C304.547 273.467 303.384 264.861 303.384 263.698C303.384 262.535 335.716 220.433 336.181 217.41C336.646 214.386 336.414 212.292 336.414 211.594Z" fill="white" stroke="#263238" stroke-miterlimit="10" stroke-linecap="round" stroke-linejoin="round"/>
<path d="M297.512 257.941L295.011 263.93C295.011 263.93 291.755 266.256 291.522 268.35C291.289 270.443 290.359 277.654 289.429 279.515C288.499 281.376 285.475 282.539 288.964 282.539C292.453 282.539 294.779 279.98 294.779 279.98C294.779 279.98 294.314 288.354 295.942 288.586C297.57 288.819 299.896 282.538 299.896 282.538C299.896 282.538 303.618 280.445 304.083 276.956C304.548 273.467 303.385 264.861 303.385 263.698C303.385 263.551 303.903 262.748 304.807 261.454L297.512 257.941Z" fill="white" stroke="#263238" stroke-miterlimit="10" stroke-linecap="round" stroke-linejoin="round"/>
<path d="M350.312 389.474C350.312 389.474 348.503 393.895 347.7 395.302C346.896 396.709 344.083 401.13 334.236 405.551C324.389 409.972 322.781 409.771 323.987 412.785C325.193 415.799 342.877 416 353.729 415.799C364.581 415.598 368.801 414.593 368.6 411.378C368.399 408.163 366.791 400.325 366.791 400.325C366.791 400.325 369.403 395.502 367.997 394.698C366.59 393.894 357.346 395.1 357.346 395.1C357.346 395.1 354.733 384.651 350.312 389.474Z" fill="white" stroke="#263238" stroke-miterlimit="10" stroke-linecap="round" stroke-linejoin="round"/>
<path d="M353.729 401.733L357.346 395.101C357.346 395.101 354.733 384.651 350.312 389.474C350.312 389.474 348.538 393.809 347.724 395.257C349.795 394.549 345.891 398.517 345.891 398.517C345.891 398.517 349.508 398.316 351.116 399.723C351.456 400.02 351.769 400.282 352.051 400.509C353.104 401.358 353.729 401.733 353.729 401.733Z" fill="white" stroke="#263238" stroke-miterlimit="10" stroke-linecap="round" stroke-linejoin="round"/>
<path d="M368.6 411.379C368.576 411.002 368.532 410.556 368.475 410.072C365.717 410.801 360.601 411.798 351.921 412.384C340.04 413.187 328.039 411.682 323.69 411.043C323.571 411.509 323.694 412.051 323.988 412.786C325.194 415.8 342.878 416.001 353.73 415.8C364.58 415.599 368.8 414.594 368.6 411.379Z" fill="white" stroke="#263238" stroke-miterlimit="10" stroke-linecap="round" stroke-linejoin="round"/>
<path d="M351.92 412.383C351.92 412.383 358.351 403.139 366.791 400.326Z" fill="white"/>
<path d="M351.92 412.383C351.92 412.383 358.351 403.139 366.791 400.326" stroke="#263238" stroke-miterlimit="10" stroke-linecap="round" stroke-linejoin="round"/>
<path d="M145.447 447.776C145.447 450.556 138.277 452.806 129.427 452.806C126.907 452.806 124.517 452.626 122.397 452.306C120.757 452.046 119.277 451.706 118.017 451.306C115.157 450.406 113.397 449.156 113.397 447.776C113.397 446.396 115.157 445.146 118.017 444.246C119.277 443.846 120.757 443.506 122.397 443.246C124.517 442.926 126.907 442.746 129.427 442.746C138.277 442.746 145.447 444.996 145.447 447.776Z" fill="white" stroke="#263238" stroke-miterlimit="10" stroke-linecap="round" stroke-linejoin="round"/>
<path d="M122.397 11.606V452.306C120.757 452.046 119.277 451.706 118.017 451.306V11.606H122.397Z" fill="white" stroke="#263238" stroke-miterlimit="10" stroke-linecap="round" stroke-linejoin="round"/>
<path d="M122.394 8.72502C122.394 8.72502 115.101 6.53702 109.267 23.31C103.433 40.083 107.079 43.73 96.869 64.149C86.659 84.569 80.096 78.734 73.532 90.403C66.968 102.072 67.698 120.303 67.698 120.303L71.344 164.788C71.344 164.788 72.803 140.722 83.742 129.783C94.681 118.844 103.432 127.595 109.266 113.01C115.1 98.425 116.208 68.955 122.772 65.309L122.394 8.72502Z" fill="#263238" stroke="#263238" stroke-miterlimit="10" stroke-linecap="round" stroke-linejoin="round"/>
</svg>
