<svg width="2000" height="2000" viewBox="0 0 2000 2000" fill="none" xmlns="http://www.w3.org/2000/svg">
<path d="M1711.27 1322.95C1687.17 1268.13 1640.88 1222.39 1585.28 1199.87C1527.37 1176.42 1460.87 1184.95 1399.87 1177.1C1346.89 1170.28 1308.67 1146.62 1277.03 1104.57C1246.72 1064.28 1219.55 1019.66 1169.99 1001.03C1130.83 986.299 1086.31 990.38 1047.39 1005.73C975.675 1034 921.509 1094.13 875.891 1154.02C834.241 1208.71 800.269 1268.59 723.23 1270.54C646.142 1272.5 572.753 1228.53 495.135 1240.18C392.551 1255.58 307.12 1340.98 289.217 1442.64C272.439 1537.92 314.541 1630.34 386.87 1684.64H1630.09C1721.23 1587.95 1769.06 1454.39 1711.27 1322.95Z" fill="#F7F0E3"/>
<path d="M587.418 1684.64H590.838C614.589 1658.53 633.194 1626.85 645.021 1591.69C664.164 1534.78 663.357 1475.05 642.749 1423.51C632.334 1397.47 617.295 1373.19 602.751 1349.71C588 1325.91 572.749 1301.29 562.397 1274.9C558.117 1264 554.955 1252.28 553.053 1240.33C552.196 1240.22 551.338 1240.13 550.48 1240.03C552.391 1252.4 555.642 1264.53 560.07 1275.82C570.503 1302.41 585.816 1327.13 600.625 1351.03C615.112 1374.42 630.093 1398.6 640.426 1424.44C660.814 1475.43 661.604 1534.55 642.65 1590.9C630.678 1626.49 611.683 1658.47 587.418 1684.64Z" fill="white"/>
<path d="M1624.08 1576.21C1649.7 1581.67 1674.39 1586.57 1698.26 1589.65C1698.67 1588.86 1699.06 1588.06 1699.47 1587.27C1675.4 1584.21 1650.48 1579.28 1624.61 1573.77C1585.21 1565.37 1542.56 1556.29 1500.27 1556.29C1474.08 1556.29 1448.03 1559.77 1422.97 1569.06C1413.47 1572.58 1404.32 1577.04 1395.61 1582.36C1372.98 1572.71 1350.24 1562.18 1327.7 1550.62C1344.05 1538.31 1360.57 1526.24 1377.28 1514.58C1501.26 1428.01 1615.67 1378.93 1726.21 1365C1725.99 1364.19 1725.76 1363.38 1725.53 1362.57C1614.7 1376.61 1500.03 1425.82 1375.85 1512.53C1358.79 1524.44 1341.92 1536.77 1325.23 1549.35C1299.89 1536.26 1274.85 1521.87 1250.61 1505.99C1206.66 1477.19 1154.37 1436.08 1108.71 1381.45C1285.66 1361.6 1465.81 1336.59 1612.93 1238.27C1618.52 1234.53 1624.71 1230.13 1631.12 1225.14C1630.41 1224.63 1629.69 1224.14 1628.97 1223.64C1622.83 1228.4 1616.91 1232.6 1611.54 1236.19C1464.46 1334.49 1283.97 1359.31 1106.8 1379.16C1074.53 1340.13 1045.7 1294.28 1025.67 1241.21C994.458 1158.55 996.105 1077.42 1030.19 1018.64C1031.67 1016.09 1033.23 1013.57 1034.84 1011.08C1033.42 1011.74 1032.01 1012.42 1030.6 1013.09C1029.72 1014.51 1028.86 1015.94 1028.02 1017.38C993.564 1076.82 991.851 1158.72 1023.33 1242.1C1043.25 1294.88 1071.83 1340.54 1103.83 1379.48C1093.57 1380.63 1083.31 1381.76 1073.09 1382.89C1036.19 1386.96 998.039 1391.18 960.993 1395.94C947.47 1397.69 933.719 1399.72 920.036 1402.26C890.703 1340.35 858.483 1279.96 816.832 1228.16C816.237 1228.76 815.63 1229.33 815.029 1229.92C856.323 1281.32 888.343 1341.27 917.496 1402.74C857.816 1414.12 799.864 1435.52 768.922 1485.32C740.024 1531.83 740.05 1596.12 769 1676.4C770.001 1679.18 771.032 1681.92 772.078 1684.64H774.756C773.61 1681.66 772.47 1678.66 771.352 1675.55C742.675 1596.02 742.573 1532.47 771.047 1486.64C801.622 1437.43 859.255 1416.32 918.603 1405.07C928.958 1426.98 938.961 1449.06 948.903 1471.01L949.985 1473.4C984.511 1549.62 1020.22 1623.17 1066.98 1684.64H1070.1C1022.92 1623.06 987.005 1549.06 952.263 1472.37L951.182 1469.98C941.325 1448.22 931.405 1426.32 921.144 1404.6C934.563 1402.12 948.049 1400.13 961.315 1398.43C998.338 1393.66 1036.48 1389.45 1073.36 1385.38C1084.13 1384.19 1094.93 1383 1105.74 1381.79C1151.83 1437.27 1204.78 1478.95 1249.24 1508.08C1273.21 1523.79 1297.97 1538.04 1323.02 1551.03C1280.49 1583.19 1239.13 1617.03 1198.74 1650.08C1184.75 1661.52 1170.61 1673.08 1156.35 1684.64H1160.31C1173.76 1673.73 1187.12 1662.81 1200.32 1652.01C1240.99 1618.74 1282.65 1584.65 1325.48 1552.3C1347.89 1563.83 1370.52 1574.34 1393.02 1583.97C1362.23 1603.55 1337.14 1633.88 1321.96 1670.7C1320.06 1675.31 1318.4 1679.96 1316.87 1684.64H1319.5C1320.95 1680.29 1322.5 1675.95 1324.28 1671.65C1339.49 1634.73 1364.8 1604.43 1395.82 1585.16C1458.74 1611.89 1520.58 1631.73 1573.71 1647.45L1575.71 1648.05C1598.1 1654.67 1621 1661.45 1641.26 1672.35C1641.82 1671.7 1642.39 1671.06 1642.96 1670.41C1622.37 1659.24 1599.13 1652.36 1576.42 1645.65L1574.42 1645.06C1521.83 1629.5 1460.7 1609.9 1398.46 1583.56C1406.57 1578.74 1415.05 1574.66 1423.84 1571.4C1488.7 1547.37 1560.63 1562.69 1624.08 1576.21Z" fill="white"/>
<path d="M393.137 1414.28C404.179 1459.47 399.253 1508.28 379.62 1548.2C366.761 1574.34 348.191 1598.01 325.318 1618.33C325.773 1619.04 326.238 1619.74 326.7 1620.44C349.944 1599.85 368.81 1575.84 381.864 1549.3C401.752 1508.87 406.746 1459.44 395.565 1413.68C386.83 1377.93 369.27 1347.65 345.009 1325.74C344.468 1326.37 343.931 1327.01 343.397 1327.66C367.254 1349.23 384.531 1379.05 393.137 1414.28Z" fill="white"/>
<path d="M958.958 841.717C980.737 863.972 990.498 901.464 978.49 936.031C966.863 969.501 941.374 997.225 910.751 1015.05C886.112 1029.39 853.972 1037.3 829.74 1022.28C811.632 1011.06 802.242 989.044 801.72 967.747C801.198 946.45 808.36 925.695 817.212 906.318C829.69 879.004 846.483 852.517 871.5 835.907C905.984 813.012 938.024 820.325 958.958 841.717Z" fill="#F7F0E3"/>
<path d="M670.268 451.518H489.928V370.954H670.268V451.518ZM493.678 447.768H666.518V374.704H493.678V447.768Z" fill="#E9DDCA"/>
<path d="M552.947 528.562H372.607V447.998H552.947V528.562ZM376.357 524.812H549.197V451.748H376.357V524.812Z" fill="#E9DDCA"/>
<path d="M1696.36 614.409C1684.69 575.58 1664.15 539.931 1634.75 507.339C1605.29 474.747 1565.11 447.842 1514.21 426.563C1463.31 405.283 1398.64 394.644 1320.19 394.644C1257.62 394.644 1193.85 403.082 1128.87 419.959C1063.84 436.897 1007.44 460.989 959.592 492.297L1021.87 663.276L988.491 690.315L1036.9 704.541C1084.68 679.531 1128.22 661.371 1167.5 650.058C1206.72 638.807 1248.4 633.181 1292.59 633.181C1336.72 633.181 1370.13 643.821 1392.83 665.1C1415.52 686.441 1426.84 712.061 1426.84 742.146C1426.84 778.468 1415.16 810.693 1391.93 838.882C1368.58 867.071 1342.83 895.566 1314.62 924.367C1295.04 944.362 1276 965.03 1257.62 986.31C1239.23 1007.65 1222.95 1030.46 1208.87 1054.92C1194.74 1079.32 1183.43 1105.61 1174.86 1133.8C1166.24 1161.99 1161.99 1193.6 1161.99 1228.64C1161.99 1239.95 1162.23 1253.4 1162.89 1269.06C1163 1271.95 1163.15 1274.76 1163.32 1277.54H1117.56L1167.5 1311.31H1410.31C1409.06 1303.79 1408.46 1295.05 1408.46 1285.02C1408.46 1274.99 1408.46 1267.47 1408.46 1262.45C1408.46 1241.17 1412.77 1220.2 1421.33 1199.53C1429.9 1178.86 1440.67 1159.18 1453.55 1140.34C1466.42 1121.57 1480.8 1103.71 1496.78 1086.84C1512.71 1069.9 1528.04 1053.94 1542.77 1038.9C1562.35 1018.9 1582.59 997.623 1603.43 975.06C1624.27 952.497 1642.71 928.771 1658.64 903.701C1674.57 878.631 1687.74 851.42 1698.16 821.946C1708.58 792.534 1713.85 760.309 1713.85 725.21C1713.85 690.171 1707.98 653.238 1696.36 614.409Z" fill="#E06330"/>
<path d="M1241.18 621.253C1197.51 621.253 1156.32 626.697 1117.56 637.586C1078.74 648.534 1035.72 666.11 988.491 690.314L912.092 484.907C959.375 454.608 1015.12 431.292 1079.39 414.899C1143.6 398.566 1206.62 390.399 1268.46 390.399C1345.99 390.399 1409.9 400.696 1460.2 421.29C1510.5 441.884 1550.21 467.922 1579.33 499.464C1608.38 531.006 1628.68 565.507 1640.22 603.085C1651.7 640.663 1657.5 676.407 1657.5 710.316C1657.5 744.284 1652.29 775.471 1641.99 803.936C1631.7 832.46 1618.68 858.794 1602.94 883.057C1587.2 907.32 1568.97 930.281 1548.38 952.118C1527.78 973.955 1507.78 994.549 1488.43 1013.9C1473.87 1028.46 1458.72 1043.9 1442.98 1060.3C1427.18 1076.63 1412.98 1093.91 1400.25 1112.08C1387.53 1130.3 1376.88 1149.36 1368.41 1169.36C1359.95 1189.36 1355.69 1209.66 1355.69 1230.26C1355.69 1235.11 1355.69 1242.39 1355.69 1252.09C1355.69 1261.8 1356.28 1270.26 1357.53 1277.54H1117.56C1115.07 1265.41 1113.59 1251.8 1113 1236.65C1112.35 1221.5 1112.11 1208.48 1112.11 1197.53C1112.11 1163.62 1116.32 1133.03 1124.84 1105.75C1133.3 1078.46 1144.48 1053.02 1158.45 1029.41C1172.36 1005.73 1188.45 983.66 1206.62 963.007C1224.79 942.413 1243.61 922.411 1262.96 903.06C1290.83 875.187 1316.28 847.61 1339.36 820.329C1362.32 793.048 1373.86 761.861 1373.86 726.709C1373.86 697.593 1362.67 672.798 1340.25 652.145C1317.82 631.55 1284.8 621.253 1241.18 621.253Z" fill="#FBC343"/>
<path d="M1426.93 1547.01C1426.93 1590.78 1412.76 1624.56 1384.42 1648.39C1356.07 1672.27 1324.04 1684.16 1288.27 1684.16C1252.45 1684.16 1220.42 1672.27 1192.07 1648.39C1163.78 1624.56 1149.61 1590.78 1149.61 1547.01C1149.61 1503.28 1163.78 1469.5 1192.08 1445.62C1235.71 1408.8 1300.25 1400.59 1351.33 1426.44C1396.66 1449.37 1426.93 1495.93 1426.93 1547.01Z" fill="#E06330"/>
<path d="M1379.43 1547.01C1379.43 1590.78 1365.26 1624.56 1336.92 1648.39C1308.57 1672.27 1276.54 1684.16 1240.77 1684.16C1204.95 1684.16 1172.92 1672.27 1144.57 1648.39C1116.28 1624.56 1102.11 1590.78 1102.11 1547.01C1102.11 1503.28 1116.28 1469.5 1144.57 1445.62C1172.92 1421.79 1204.95 1409.85 1240.77 1409.85C1276.54 1409.85 1308.57 1421.79 1336.92 1445.62C1365.26 1469.5 1379.43 1503.28 1379.43 1547.01Z" fill="#FBC343"/>
<path d="M660.583 926.349C663.244 912.153 653.893 898.489 639.697 895.829C625.502 893.169 611.838 902.52 609.178 916.715C606.517 930.91 615.868 944.575 630.064 947.235C644.259 949.895 657.923 940.544 660.583 926.349Z" fill="#D3DFFF"/>
<path d="M673.092 975.507C674.589 967.523 669.283 959.829 661.243 958.322C653.202 956.815 645.471 962.066 643.975 970.05C642.479 978.034 647.784 985.728 655.824 987.235C663.865 988.742 671.596 983.491 673.092 975.507Z" fill="#D3DFFF"/>
<path d="M643.148 862.702C683.357 822.494 683.357 757.303 643.148 717.095C602.94 676.886 537.749 676.886 497.541 717.095C457.333 757.303 457.333 822.494 497.541 862.702C537.749 902.911 602.94 902.911 643.148 862.702Z" fill="#D3DFFF"/>
<path d="M530.819 802.873C537.983 802.873 543.791 797.065 543.791 789.901C543.791 782.737 537.983 776.929 530.819 776.929C523.654 776.929 517.847 782.737 517.847 789.901C517.847 797.065 523.654 802.873 530.819 802.873Z" fill="white"/>
<path d="M570.354 802.873C577.518 802.873 583.326 797.065 583.326 789.901C583.326 782.737 577.518 776.929 570.354 776.929C563.19 776.929 557.382 782.737 557.382 789.901C557.382 797.065 563.19 802.873 570.354 802.873Z" fill="white"/>
<path d="M609.888 802.873C617.052 802.873 622.859 797.065 622.859 789.901C622.859 782.737 617.052 776.929 609.888 776.929C602.723 776.929 596.916 782.737 596.916 789.901C596.916 797.065 602.723 802.873 609.888 802.873Z" fill="white"/>
<path d="M496.596 1632.62L506.216 1669.71C508.725 1679.38 518.076 1685.92 528.422 1685.21C559.965 1683.07 625.503 1675.34 663.118 1647.62L652.425 1594.17C600.707 1591.24 552.34 1594.12 510.46 1608.22C499.974 1611.75 493.909 1622.26 496.596 1632.62Z" fill="#102048"/>
<path d="M556.875 1662.14C556.328 1662.14 555.826 1661.78 555.671 1661.23L542.754 1614.98C542.568 1614.31 542.957 1613.63 543.622 1613.44C544.291 1613.26 544.977 1613.64 545.163 1614.31L558.08 1660.56C558.265 1661.22 557.877 1661.91 557.212 1662.1C557.099 1662.13 556.985 1662.14 556.875 1662.14Z" fill="white"/>
<path d="M584.791 1655.89C584.244 1655.89 583.742 1655.53 583.587 1654.98L570.67 1608.73C570.485 1608.06 570.873 1607.38 571.538 1607.19C572.208 1607 572.893 1607.39 573.079 1608.06L585.996 1654.31C586.182 1654.97 585.793 1655.66 585.128 1655.85C585.015 1655.88 584.902 1655.89 584.791 1655.89Z" fill="white"/>
<path d="M617.214 1432.14L497.01 1467.82L586.279 1590.13L714.437 1600.32L891.206 1525.58L824.034 1424.5L617.214 1432.14Z" fill="#FBC343"/>
<path d="M765.405 1449.13C1029.38 1370.99 1071.8 1604.29 659.933 1646.76C645.385 1630.39 628.384 1601.98 621.633 1578.24L839.137 1477.73L765.405 1449.13Z" fill="#FBC343"/>
<path d="M776.618 1616.34C764.273 1612.38 752.442 1604.57 752.442 1604.57L710.017 1617.88L719.739 1664.03L763.811 1672.98C777.237 1648.43 778.021 1628.27 776.618 1616.34Z" fill="#F9B384"/>
<path d="M622.574 1579.86L620.69 1576.62C666.065 1550.25 782.293 1486.89 881.318 1468.21L882.013 1471.9C783.559 1490.47 667.782 1553.59 622.574 1579.86Z" fill="#E06330"/>
<path d="M617.214 1432.14C371.504 1385.43 307.867 1621.56 719.74 1664.03C734.288 1647.66 745.691 1628.32 752.442 1604.57C689.175 1562.24 618.436 1522 540.908 1483.67L617.214 1432.14Z" fill="#FBC343"/>
<path d="M751.435 1606.15C739.747 1598.71 727.568 1590.85 714.674 1582.52C649.947 1540.73 576.584 1493.37 514.254 1466.36L515.745 1462.92C578.359 1490.05 651.859 1537.5 716.707 1579.37C729.596 1587.7 741.77 1595.56 753.448 1602.99L751.435 1606.15Z" fill="#E06330"/>
<path d="M436.938 1549.22L433.656 1547.41C442.879 1530.71 457.652 1519.45 477.564 1513.94L478.565 1517.55C459.394 1522.86 445.778 1533.22 436.938 1549.22Z" fill="#E06330"/>
<path d="M949.771 1535.01C940.931 1519.01 927.315 1508.65 908.144 1503.34L909.145 1499.72C929.058 1505.24 943.83 1516.5 953.053 1533.2L949.771 1535.01Z" fill="#E06330"/>
<path d="M696.731 1661.96L693.99 1659.4C713.645 1638.35 725.717 1616.12 730.895 1591.46L734.565 1592.23C729.243 1617.58 716.867 1640.39 696.731 1661.96Z" fill="#E06330"/>
<path d="M899.161 1602.59C867.681 1583.14 806.651 1616.75 791.331 1618.45C786.865 1618.94 781.698 1617.96 776.617 1616.34C778.02 1628.27 777.237 1648.43 763.812 1672.98L771.297 1674.51C771.297 1674.51 823.049 1693.48 877.948 1682.43C928.621 1672.24 923.909 1617.88 899.161 1602.59Z" fill="#102048"/>
<path d="M856.249 1666.21C856.124 1666.21 855.998 1666.19 855.872 1666.15C855.214 1665.94 854.849 1665.24 855.057 1664.58C858.797 1652.74 860.429 1629.44 849.596 1613.79C849.203 1613.22 849.345 1612.45 849.912 1612.05C850.478 1611.66 851.258 1611.8 851.651 1612.37C862.995 1628.75 861.328 1653.02 857.44 1665.33C857.272 1665.86 856.78 1666.21 856.249 1666.21Z" fill="white"/>
<path d="M831.562 1670.89C831.437 1670.89 831.311 1670.87 831.185 1670.84C830.527 1670.63 830.162 1669.93 830.37 1669.27C834.11 1657.42 835.742 1634.13 824.909 1618.48C824.516 1617.91 824.658 1617.13 825.225 1616.74C825.791 1616.35 826.57 1616.49 826.964 1617.06C838.308 1633.44 836.641 1657.71 832.753 1670.02C832.585 1670.55 832.093 1670.89 831.562 1670.89Z" fill="white"/>
<path d="M573.744 1127.68C573.744 1127.68 635.625 1075.06 633.334 1065.06C631.696 1057.91 614.167 1068.39 614.167 1068.39C614.167 1068.39 638.75 1039.23 637.5 1035.69C635.266 1029.36 618.264 1041.15 618.264 1041.15C618.264 1041.15 629.756 1024.61 624.262 1021.92C618.768 1019.22 606.79 1029.42 606.79 1029.42C606.79 1029.42 613.788 1020.23 610.5 1017.82C607.212 1015.41 593.028 1025.32 593.028 1025.32C593.028 1025.32 598.118 1013.74 587.305 1018.13C576.492 1022.52 500.672 1092.1 500.672 1092.1L573.744 1127.68Z" fill="#F9B384"/>
<path d="M599.062 1065.27C598.761 1065.27 598.459 1065.16 598.219 1064.94C587.597 1055.24 582.914 1052.88 571.195 1049.28C570.535 1049.07 570.165 1048.37 570.368 1047.71C570.571 1047.05 571.27 1046.68 571.931 1046.89C584.073 1050.62 588.922 1053.06 599.907 1063.1C600.417 1063.56 600.452 1064.35 599.987 1064.86C599.739 1065.13 599.401 1065.27 599.062 1065.27Z" fill="#E28B6D"/>
<path d="M580.418 1093.81C580.36 1093.81 580.302 1093.81 580.244 1093.8C579.56 1093.7 579.083 1093.07 579.179 1092.39C580.395 1083.69 583.134 1078.25 587.553 1075.77C591.33 1073.64 596.245 1073.86 602.162 1076.41C602.796 1076.69 603.088 1077.42 602.814 1078.06C602.541 1078.69 601.805 1078.98 601.171 1078.71C596.01 1076.48 591.841 1076.22 588.778 1077.94C585.137 1079.99 582.74 1084.97 581.655 1092.73C581.567 1093.36 581.032 1093.81 580.418 1093.81Z" fill="#E28B6D"/>
<path d="M577.5 1041.21C577.168 1041.21 576.836 1041.07 576.59 1040.81C576.116 1040.31 576.14 1039.52 576.642 1039.05L592.17 1024.41C592.672 1023.93 593.463 1023.96 593.937 1024.46C594.411 1024.97 594.387 1025.76 593.885 1026.23L578.357 1040.86C578.116 1041.09 577.808 1041.21 577.5 1041.21Z" fill="#E28B6D"/>
<path d="M591.875 1046.21C591.563 1046.21 591.252 1046.09 591.009 1045.86C590.511 1045.38 590.495 1044.59 590.973 1044.09L605.888 1028.55C606.366 1028.05 607.157 1028.03 607.656 1028.51C608.154 1028.99 608.17 1029.78 607.692 1030.28L592.777 1045.82C592.531 1046.08 592.203 1046.21 591.875 1046.21Z" fill="#E28B6D"/>
<path d="M606.562 1054.96C606.257 1054.96 605.951 1054.85 605.71 1054.62C605.205 1054.15 605.177 1053.36 605.648 1052.85L617.35 1040.3C617.822 1039.8 618.611 1039.77 619.117 1040.24C619.622 1040.71 619.65 1041.5 619.179 1042.01L607.477 1054.56C607.23 1054.82 606.897 1054.96 606.562 1054.96Z" fill="#E28B6D"/>
<path d="M807.5 1479.64L581.25 1488.39L556.25 1282.14C556.25 1282.14 631.992 1210.29 661.133 1183.84L710.328 1181.32C862.959 1250.69 837.967 1337.34 807.5 1479.64Z" fill="#3A6BEA"/>
<path d="M710.329 1181.32C710.329 1181.32 884.95 1196.25 940 1315.89C993.867 1432.95 772.5 1474.64 772.5 1474.64L710.329 1181.32Z" fill="#3A6BEA"/>
<path d="M510.726 1206.95L582.885 1119.14L515.407 1078.25C487.259 1097.82 432.827 1142.15 386.698 1192.35C376.516 1203.43 368.563 1216.37 364.557 1230.62C361.139 1242.78 360.518 1254.79 362.439 1266.56C367.446 1297.21 391.56 1320.87 423.749 1324.64C451.24 1327.86 556.249 1319.64 641.249 1294.64L666.249 1198.15C653.403 1190.86 557.926 1189.59 510.726 1206.95Z" fill="#3A6BEA"/>
<g opacity="0.8">
<path d="M856.054 1228.79C856.43 1228.71 856.808 1228.62 857.184 1228.53C856.395 1228.07 855.603 1227.61 854.812 1227.15C842.015 1230.1 828.811 1233.11 815.796 1234.68C807.974 1235.62 781.84 1237.35 774.202 1219.94C770.402 1211.27 773.277 1201.64 777.575 1194.88C776.947 1194.7 776.327 1194.52 775.703 1194.34C771.302 1201.5 768.477 1211.55 772.486 1220.69C780.64 1239.29 807.872 1237.52 816.02 1236.54C829.411 1234.93 842.955 1231.81 856.054 1228.79Z" fill="white"/>
<path d="M937.548 1363.73C929.206 1360.5 920.588 1357.17 911.527 1358.02C895.635 1359.53 882.035 1375.24 881.211 1393.06C880.648 1405.2 885.288 1417.93 894.135 1429.13C894.668 1428.8 895.199 1428.46 895.728 1428.13C887.079 1417.25 882.54 1404.89 883.084 1393.14C883.868 1376.23 896.706 1361.31 911.703 1359.89C920.318 1359.09 928.358 1362.19 936.871 1365.47C939.91 1366.65 942.999 1367.83 946.138 1368.84C946.3 1368.23 946.457 1367.63 946.603 1367.02C943.544 1366.03 940.522 1364.87 937.548 1363.73Z" fill="white"/>
<path d="M496.799 1304.09C485.897 1295.08 468.957 1292.67 450.332 1297.48C433.733 1301.78 419.491 1310.28 409.707 1321.54C410.35 1321.74 410.978 1321.98 411.63 1322.17C421.149 1311.49 434.86 1303.42 450.8 1299.3C468.835 1294.63 485.169 1296.91 495.605 1305.54C500.565 1309.64 504.072 1314.96 506.621 1320.71C507.265 1320.64 507.911 1320.56 508.559 1320.49C505.891 1314.31 502.172 1308.54 496.799 1304.09Z" fill="white"/>
<path d="M398.243 1180.09C418.671 1175.01 438.605 1167.88 456.991 1157.29C463.938 1153.29 471.783 1148.19 477.3 1140.7C483.169 1132.72 485.119 1123.23 482.517 1115.31C481.496 1112.21 479.689 1109.48 477.43 1107.29C476.952 1107.68 476.469 1108.08 475.988 1108.47C478.097 1110.48 479.787 1113.01 480.735 1115.9C483.148 1123.24 481.3 1132.1 475.791 1139.58C470.48 1146.79 462.835 1151.76 456.056 1155.66C438.714 1165.65 419.956 1172.56 400.688 1177.55C399.871 1178.39 399.057 1179.24 398.243 1180.09Z" fill="white"/>
</g>
<path d="M726.309 1135.46L726.277 1138.66L725.77 1188.39L725.707 1193.78C725.612 1202.21 722.157 1209.85 716.579 1215.4C711.032 1220.91 703.394 1224.37 694.931 1224.43C677.879 1224.52 663.933 1210.83 663.775 1193.75L663.173 1132.29L726.309 1135.46Z" fill="#F9B384"/>
<path d="M726.277 1138.66L725.77 1188.39C698.131 1177.14 686.753 1147.22 686.753 1147.22L726.277 1138.66Z" fill="#102048"/>
<path d="M737.213 1051.88C747.118 1063.77 776.04 1131.12 746.722 1154.1C713.73 1179.96 663.521 1137.46 663.521 1137.46L656.786 1059.01L700.367 1047.52L737.213 1051.88Z" fill="#F9B384"/>
<path d="M634.582 1047.56C634.582 1047.56 537.915 1097.98 616.735 1243.31C626.858 1261.97 649.281 1270.12 668.463 1261.01C689.04 1251.24 696.831 1226.1 685.658 1206.25C672.765 1183.35 660.321 1153.86 665.633 1131.91L634.582 1047.56Z" fill="#102048"/>
<path d="M662.19 1089.91C672.401 1079.7 672.401 1063.14 662.19 1052.93C651.978 1042.72 635.421 1042.72 625.21 1052.93C614.998 1063.14 614.998 1079.7 625.21 1089.91C635.421 1100.12 651.978 1100.12 662.19 1089.91Z" fill="#FBC343"/>
<path d="M675.88 1102.84C673.055 1086.53 671.333 1075.34 687.821 1066.94C687.821 1066.94 745.929 1077.5 757.023 1055.58C768.116 1033.65 751.212 999.055 715.819 1023.09C625.223 1005.39 613.073 1090.18 640.542 1118.44L667.654 1114.28C673.11 1113.44 676.821 1108.28 675.88 1102.84Z" fill="#102048"/>
<path d="M720.87 1106.75C723.003 1106.75 724.733 1105.02 724.733 1102.89C724.733 1100.76 723.003 1099.03 720.87 1099.03C718.736 1099.03 717.007 1100.76 717.007 1102.89C717.007 1105.02 718.736 1106.75 720.87 1106.75Z" fill="#102048"/>
<path d="M747.019 1093.88C749.152 1093.88 750.882 1092.15 750.882 1090.01C750.882 1087.88 749.152 1086.15 747.019 1086.15C744.885 1086.15 743.156 1087.88 743.156 1090.01C743.156 1092.15 744.885 1093.88 747.019 1093.88Z" fill="#102048"/>
<path d="M744.345 1114.78C744.074 1114.78 743.803 1114.68 743.592 1114.48C743.154 1114.06 743.136 1113.37 743.553 1112.93C745.102 1111.3 746.799 1109.01 746.086 1107.35C745.345 1105.62 742.214 1104.87 740.78 1104.87C737.698 1104.87 736.218 1099.39 735.953 1098.29C735.811 1097.71 736.172 1097.11 736.759 1096.97C737.345 1096.83 737.937 1097.19 738.079 1097.78C738.642 1100.1 739.916 1102.69 740.78 1102.69C742.255 1102.69 746.766 1103.38 748.096 1106.48C749.046 1108.7 748.051 1111.37 745.139 1114.44C744.923 1114.67 744.634 1114.78 744.345 1114.78Z" fill="#102048"/>
<path d="M744.541 1129.44C744.33 1129.44 744.118 1129.38 743.93 1129.25C736.657 1124.34 729.313 1128.46 729.239 1128.5C728.717 1128.8 728.048 1128.62 727.745 1128.1C727.444 1127.57 727.624 1126.9 728.148 1126.6C728.496 1126.4 736.761 1121.77 745.153 1127.44C745.653 1127.78 745.786 1128.46 745.448 1128.96C745.237 1129.27 744.892 1129.44 744.541 1129.44Z" fill="#102048"/>
<path d="M719.178 1086.16C721.376 1090.3 717.546 1091.13 713.059 1093.51C708.572 1095.89 703.978 1096.77 702.93 1094.79C701.882 1092.82 704.669 1089.29 709.156 1086.9C713.643 1084.52 717.477 1082.96 719.178 1086.16Z" fill="#102048"/>
<path d="M735.541 1078.69C736.507 1082.39 739.26 1080.77 743.265 1079.72C747.27 1078.67 750.505 1076.66 750.044 1074.9C749.583 1073.14 745.963 1072.56 741.958 1073.61C737.953 1074.66 734.793 1075.84 735.541 1078.69Z" fill="#102048"/>
<path opacity="0.4" d="M710.804 1129.29C715.428 1125.02 715.719 1117.81 711.454 1113.19C707.189 1108.56 699.982 1108.27 695.357 1112.54C690.733 1116.8 690.442 1124.01 694.707 1128.64C698.972 1133.26 706.179 1133.55 710.804 1129.29Z" fill="#EB5D60"/>
<path d="M673.663 1131.61C678.868 1124.86 676.874 1114.6 669.209 1108.68C661.544 1102.77 651.111 1103.44 645.906 1110.19C640.701 1116.93 642.695 1127.2 650.36 1133.11C658.025 1139.02 668.458 1138.35 673.663 1131.61Z" fill="#F9B384"/>
<path d="M666.562 1126.67C665.958 1126.67 665.468 1126.19 665.468 1125.58C665.468 1122.35 663.894 1119.37 661.258 1117.6C659.004 1116.08 656.316 1115.72 654.07 1116.64C653.51 1116.86 652.872 1116.6 652.644 1116.04C652.416 1115.48 652.684 1114.84 653.244 1114.61C656.165 1113.42 659.618 1113.86 662.479 1115.78C665.721 1117.96 667.656 1121.62 667.656 1125.58C667.655 1126.19 667.166 1126.67 666.562 1126.67Z" fill="#102048"/>
<path d="M509.792 1206.07L470.323 1248.76L472.159 1250.46L511.628 1207.77L509.792 1206.07Z" fill="#102048"/>
<path d="M787.864 1389.59L787.135 1387.2C815.868 1378.44 843.753 1367.96 869.023 1336.36L870.975 1337.92C845.26 1370.08 816.988 1380.71 787.864 1389.59Z" fill="#102048"/>
<path d="M805.333 1292.78H560.916C552.126 1292.78 545 1300.49 545 1309.99V1484.5C545 1494.01 552.126 1501.72 560.916 1501.72H805.335C814.125 1501.72 821.25 1494.01 821.25 1484.5V1309.99C821.249 1300.49 814.123 1292.78 805.333 1292.78Z" fill="#D3DFFF"/>
<path d="M696.028 1386.22C696.956 1386.22 697.708 1387.03 697.708 1388.04V1406.46C697.708 1407.46 696.956 1408.28 696.028 1408.28H670.221C669.293 1408.28 668.542 1407.46 668.542 1406.46V1388.04C668.542 1387.03 669.293 1386.22 670.221 1386.22H696.028ZM696.028 1381.22H670.221C666.538 1381.22 663.542 1384.28 663.542 1388.04V1406.46C663.542 1410.22 666.538 1413.28 670.221 1413.28H696.028C699.711 1413.28 702.708 1410.22 702.708 1406.46V1388.04C702.708 1384.28 699.711 1381.22 696.028 1381.22Z" fill="#1F3C88"/>
<path d="M1753.94 1682.14H280.261V1687.14H1753.94V1682.14Z" fill="#102048"/>
</svg>
<svg xmlns="http://www.w3.org/2000/svg" viewBox="0 0 100 100" width="100" height="100">
  <circle cx="50" cy="50" r="45" fill="#f0f0f0" stroke="#E06330" stroke-width="2"/>
  <text x="50" y="70" font-size="60" text-anchor="middle" font-weight="bold" fill="#E06330">?</text>
</svg>
