<svg width="500" height="500" viewBox="0 0 500 500" fill="none" xmlns="http://www.w3.org/2000/svg">
<path d="M45.855 402.451C47.627 405.239 49.466 407.974 51.382 410.642C76.895 446.165 118.445 469.858 158.491 480.035C176.035 484.501 193.982 486.609 211.85 486.802C329.039 488.013 369.531 390.2 406.603 364.287C443.675 338.373 500.451 294.282 490.857 205.016C483.574 137.145 443.252 73.117 371.932 45.361C364.077 42.294 355.837 39.668 347.228 37.536C331.212 33.568 313.905 31.266 295.313 30.922C241.913 29.931 198.94 43.938 157.422 77.472C147.771 85.267 138.198 94.025 125.443 95.29C116.172 96.209 107.278 93.096 116.753 83.852C127.889 72.986 114.181 52.543 85.589 67.739C37.836 93.119 19.29 145.676 11.292 198.836C1.47501 264.085 9.15802 344.714 45.855 402.451Z" fill="#E06330"/>
<path opacity="0.8" d="M45.855 402.451C47.627 405.239 49.466 407.974 51.382 410.642C76.895 446.165 118.445 469.858 158.491 480.035C176.035 484.501 193.982 486.609 211.85 486.802C329.039 488.013 369.531 390.2 406.603 364.287C443.675 338.373 500.451 294.282 490.857 205.016C483.574 137.145 443.252 73.117 371.932 45.361C364.077 42.294 355.837 39.668 347.228 37.536C331.212 33.568 313.905 31.266 295.313 30.922C241.913 29.931 198.94 43.938 157.422 77.472C147.771 85.267 138.198 94.025 125.443 95.29C116.172 96.209 107.278 93.096 116.753 83.852C127.889 72.986 114.181 52.543 85.589 67.739C37.836 93.119 19.29 145.676 11.292 198.836C1.47501 264.085 9.15802 344.714 45.855 402.451Z" fill="white"/>
<g opacity="0.3">
<path d="M36.468 99.1172V235.296H54.719V404.488H75.778V151.934H115.089V49.5972H178.266V238.047H202.133V163.08H255.482V179.586H301.111V402.425H319.362V361.846H369.202V401.737H393.068V200.907H473.795V389.357H496.96" stroke="black" stroke-miterlimit="10"/>
<path d="M24.2981 99.1173H36.4681V90.1763H23.0781" stroke="black" stroke-miterlimit="10"/>
<path d="M115.089 151.934H75.5391V156.46H115.089V151.934Z" stroke="black" stroke-miterlimit="10"/>
<path d="M178.266 49.5972H114.902V54.0002H178.266V49.5972Z" stroke="black" stroke-miterlimit="10"/>
<path d="M216.385 153.732H207.159V163.072H216.385V153.732Z" stroke="black" stroke-miterlimit="10"/>
<path d="M240.372 157.65H235.759V163.074H240.372V157.65Z" stroke="black" stroke-miterlimit="10"/>
<path d="M301.261 179.586H255.482V185.068H301.261V179.586Z" stroke="black" stroke-miterlimit="10"/>
<path d="M473.782 196.819H393.068V200.907H473.782V196.819Z" stroke="black" stroke-miterlimit="10"/>
<path d="M445.797 188.684H413.815V196.819H445.797V188.684Z" stroke="black" stroke-miterlimit="10"/>
<path d="M439.032 188.985V181.453H462.404V196.518" stroke="black" stroke-miterlimit="10"/>
<path d="M284.988 177.335V116.45H358.966V166.898H384.415V81.0791H466.087V184.874H491.535" stroke="black" stroke-miterlimit="10"/>
<path d="M231.723 147.183V79.9189H181.418" stroke="black" stroke-miterlimit="10"/>
<path d="M73.114 163.999H56.543V117.03H40.564" stroke="black" stroke-miterlimit="10"/>
<path d="M126.219 62.5239H119.868V74.7009H126.219V62.5239Z" stroke="black" stroke-miterlimit="10"/>
<path d="M137.652 62.5239H131.301V74.7009H137.652V62.5239Z" stroke="black" stroke-miterlimit="10"/>
<path d="M149.084 62.5239H142.733V74.7009H149.084V62.5239Z" stroke="black" stroke-miterlimit="10"/>
<path d="M160.516 62.5239H154.165V74.7009H160.516V62.5239Z" stroke="black" stroke-miterlimit="10"/>
<path d="M171.949 62.5239H165.598V74.7009H171.949V62.5239Z" stroke="black" stroke-miterlimit="10"/>
<path d="M126.219 83.1094H119.868V95.2864H126.219V83.1094Z" stroke="black" stroke-miterlimit="10"/>
<path d="M137.652 83.1094H131.301V95.2864H137.652V83.1094Z" stroke="black" stroke-miterlimit="10"/>
<path d="M149.084 83.1094H142.733V95.2864H149.084V83.1094Z" stroke="black" stroke-miterlimit="10"/>
<path d="M160.516 83.1094H154.165V95.2864H160.516V83.1094Z" stroke="black" stroke-miterlimit="10"/>
<path d="M171.949 83.1094H165.598V95.2864H171.949V83.1094Z" stroke="black" stroke-miterlimit="10"/>
<path d="M126.219 103.694H119.868V115.871H126.219V103.694Z" stroke="black" stroke-miterlimit="10"/>
<path d="M137.652 103.694H131.301V115.871H137.652V103.694Z" stroke="black" stroke-miterlimit="10"/>
<path d="M149.084 103.694H142.733V115.871H149.084V103.694Z" stroke="black" stroke-miterlimit="10"/>
<path d="M160.516 103.694H154.165V115.871H160.516V103.694Z" stroke="black" stroke-miterlimit="10"/>
<path d="M171.949 103.694H165.598V115.871H171.949V103.694Z" stroke="black" stroke-miterlimit="10"/>
<path d="M126.219 124.279H119.868V136.456H126.219V124.279Z" stroke="black" stroke-miterlimit="10"/>
<path d="M137.652 124.279H131.301V136.456H137.652V124.279Z" stroke="black" stroke-miterlimit="10"/>
<path d="M149.084 124.279H142.733V136.456H149.084V124.279Z" stroke="black" stroke-miterlimit="10"/>
<path d="M160.516 124.279H154.165V136.456H160.516V124.279Z" stroke="black" stroke-miterlimit="10"/>
<path d="M171.949 124.279H165.598V136.456H171.949V124.279Z" stroke="black" stroke-miterlimit="10"/>
<path d="M126.219 144.863H119.868V157.04H126.219V144.863Z" stroke="black" stroke-miterlimit="10"/>
<path d="M137.652 144.863H131.301V157.04H137.652V144.863Z" stroke="black" stroke-miterlimit="10"/>
<path d="M149.084 144.863H142.733V157.04H149.084V144.863Z" stroke="black" stroke-miterlimit="10"/>
<path d="M160.516 144.863H154.165V157.04H160.516V144.863Z" stroke="black" stroke-miterlimit="10"/>
<path d="M171.949 144.863H165.598V157.04H171.949V144.863Z" stroke="black" stroke-miterlimit="10"/>
<path d="M126.219 165.448H119.868V177.625H126.219V165.448Z" stroke="black" stroke-miterlimit="10"/>
<path d="M137.652 165.448H131.301V177.625H137.652V165.448Z" stroke="black" stroke-miterlimit="10"/>
<path d="M149.084 165.448H142.733V177.625H149.084V165.448Z" stroke="black" stroke-miterlimit="10"/>
<path d="M160.516 165.448H154.165V177.625H160.516V165.448Z" stroke="black" stroke-miterlimit="10"/>
<path d="M171.949 165.448H165.598V177.625H171.949V165.448Z" stroke="black" stroke-miterlimit="10"/>
<path d="M87.2441 165.448H80.8931V177.625H87.2441V165.448Z" stroke="black" stroke-miterlimit="10"/>
<path d="M98.676 165.448H92.325V177.625H98.676V165.448Z" stroke="black" stroke-miterlimit="10"/>
<path d="M110.108 165.448H103.757V177.625H110.108V165.448Z" stroke="black" stroke-miterlimit="10"/>
<path d="M87.2441 185.454H80.8931V197.631H87.2441V185.454Z" stroke="black" stroke-miterlimit="10"/>
<path d="M98.676 185.454H92.325V197.631H98.676V185.454Z" stroke="black" stroke-miterlimit="10"/>
<path d="M110.108 185.454H103.757V197.631H110.108V185.454Z" stroke="black" stroke-miterlimit="10"/>
<path d="M87.2441 205.459H80.8931V217.636H87.2441V205.459Z" stroke="black" stroke-miterlimit="10"/>
<path d="M98.676 205.459H92.325V217.636H98.676V205.459Z" stroke="black" stroke-miterlimit="10"/>
<path d="M110.108 205.459H103.757V217.636H110.108V205.459Z" stroke="black" stroke-miterlimit="10"/>
<path d="M87.2441 225.464H80.8931V237.641H87.2441V225.464Z" stroke="black" stroke-miterlimit="10"/>
<path d="M98.676 225.464H92.325V237.641H98.676V225.464Z" stroke="black" stroke-miterlimit="10"/>
<path d="M110.108 225.464H103.757V237.641H110.108V225.464Z" stroke="black" stroke-miterlimit="10"/>
<path d="M87.2441 245.469H80.8931V257.646H87.2441V245.469Z" stroke="black" stroke-miterlimit="10"/>
<path d="M98.676 245.469H92.325V257.646H98.676V245.469Z" stroke="black" stroke-miterlimit="10"/>
<path d="M110.108 245.469H103.757V257.646H110.108V245.469Z" stroke="black" stroke-miterlimit="10"/>
<path d="M87.2441 265.474H80.8931V277.651H87.2441V265.474Z" stroke="black" stroke-miterlimit="10"/>
<path d="M98.676 265.474H92.325V277.651H98.676V265.474Z" stroke="black" stroke-miterlimit="10"/>
<path d="M110.108 265.474H103.757V277.651H110.108V265.474Z" stroke="black" stroke-miterlimit="10"/>
<path d="M87.2441 285.479H80.8931V297.656H87.2441V285.479Z" stroke="black" stroke-miterlimit="10"/>
<path d="M98.676 285.479H92.325V297.656H98.676V285.479Z" stroke="black" stroke-miterlimit="10"/>
<path d="M110.108 285.479H103.757V297.656H110.108V285.479Z" stroke="black" stroke-miterlimit="10"/>
<path d="M87.2441 305.484H80.8931V317.661H87.2441V305.484Z" stroke="black" stroke-miterlimit="10"/>
<path d="M98.676 305.484H92.325V317.661H98.676V305.484Z" stroke="black" stroke-miterlimit="10"/>
<path d="M110.108 305.484H103.757V317.661H110.108V305.484Z" stroke="black" stroke-miterlimit="10"/>
<path d="M87.2441 325.489H80.8931V337.666H87.2441V325.489Z" stroke="black" stroke-miterlimit="10"/>
<path d="M98.676 325.489H92.325V337.666H98.676V325.489Z" stroke="black" stroke-miterlimit="10"/>
<path d="M110.108 325.489H103.757V337.666H110.108V325.489Z" stroke="black" stroke-miterlimit="10"/>
<path d="M87.2441 345.494H80.8931V357.671H87.2441V345.494Z" stroke="black" stroke-miterlimit="10"/>
<path d="M98.676 345.494H92.325V357.671H98.676V345.494Z" stroke="black" stroke-miterlimit="10"/>
<path d="M110.108 345.494H103.757V357.671H110.108V345.494Z" stroke="black" stroke-miterlimit="10"/>
<path d="M87.2441 365.499H80.8931V377.676H87.2441V365.499Z" stroke="black" stroke-miterlimit="10"/>
<path d="M98.676 365.499H92.325V377.676H98.676V365.499Z" stroke="black" stroke-miterlimit="10"/>
<path d="M110.108 365.499H103.757V377.676H110.108V365.499Z" stroke="black" stroke-miterlimit="10"/>
<path d="M189.177 247.788H182.826V259.965H189.177V247.788Z" stroke="black" stroke-miterlimit="10"/>
<path d="M200.609 247.788H194.258V259.965H200.609V247.788Z" stroke="black" stroke-miterlimit="10"/>
<path d="M189.177 267.793H182.826V279.97H189.177V267.793Z" stroke="black" stroke-miterlimit="10"/>
<path d="M200.609 267.793H194.258V279.97H200.609V267.793Z" stroke="black" stroke-miterlimit="10"/>
<path d="M189.177 287.798H182.826V299.975H189.177V287.798Z" stroke="black" stroke-miterlimit="10"/>
<path d="M200.609 287.798H194.258V299.975H200.609V287.798Z" stroke="black" stroke-miterlimit="10"/>
<path d="M189.177 307.803H182.826V319.98H189.177V307.803Z" stroke="black" stroke-miterlimit="10"/>
<path d="M200.609 307.803H194.258V319.98H200.609V307.803Z" stroke="black" stroke-miterlimit="10"/>
<path d="M189.177 327.809H182.826V339.986H189.177V327.809Z" stroke="black" stroke-miterlimit="10"/>
<path d="M200.609 327.809H194.258V339.986H200.609V327.809Z" stroke="black" stroke-miterlimit="10"/>
<path d="M189.177 347.814H182.826V359.991H189.177V347.814Z" stroke="black" stroke-miterlimit="10"/>
<path d="M200.609 347.814H194.258V359.991H200.609V347.814Z" stroke="black" stroke-miterlimit="10"/>
<path d="M189.177 367.819H182.826V379.996H189.177V367.819Z" stroke="black" stroke-miterlimit="10"/>
<path d="M200.609 367.819H194.258V379.996H200.609V367.819Z" stroke="black" stroke-miterlimit="10"/>
<path d="M126.219 186.033H119.868V198.21H126.219V186.033Z" stroke="black" stroke-miterlimit="10"/>
<path d="M137.652 186.033H131.301V198.21H137.652V186.033Z" stroke="black" stroke-miterlimit="10"/>
<path d="M149.084 186.033H142.733V198.21H149.084V186.033Z" stroke="black" stroke-miterlimit="10"/>
<path d="M160.516 186.033H154.165V198.21H160.516V186.033Z" stroke="black" stroke-miterlimit="10"/>
<path d="M171.949 186.033H165.598V198.21H171.949V186.033Z" stroke="black" stroke-miterlimit="10"/>
<path d="M126.219 206.618H119.868V218.795H126.219V206.618Z" stroke="black" stroke-miterlimit="10"/>
<path d="M137.652 206.618H131.301V218.795H137.652V206.618Z" stroke="black" stroke-miterlimit="10"/>
<path d="M149.084 206.618H142.733V218.795H149.084V206.618Z" stroke="black" stroke-miterlimit="10"/>
<path d="M160.516 206.618H154.165V218.795H160.516V206.618Z" stroke="black" stroke-miterlimit="10"/>
<path d="M171.949 206.618H165.598V218.795H171.949V206.618Z" stroke="black" stroke-miterlimit="10"/>
<path d="M126.219 227.203H119.868V239.38H126.219V227.203Z" stroke="black" stroke-miterlimit="10"/>
<path d="M137.652 227.203H131.301V239.38H137.652V227.203Z" stroke="black" stroke-miterlimit="10"/>
<path d="M149.084 227.203H142.733V239.38H149.084V227.203Z" stroke="black" stroke-miterlimit="10"/>
<path d="M160.516 227.203H154.165V239.38H160.516V227.203Z" stroke="black" stroke-miterlimit="10"/>
<path d="M171.949 227.203H165.598V239.38H171.949V227.203Z" stroke="black" stroke-miterlimit="10"/>
<path d="M126.219 247.788H119.868V259.965H126.219V247.788Z" stroke="black" stroke-miterlimit="10"/>
<path d="M137.652 247.788H131.301V259.965H137.652V247.788Z" stroke="black" stroke-miterlimit="10"/>
<path d="M149.084 247.788H142.733V259.965H149.084V247.788Z" stroke="black" stroke-miterlimit="10"/>
<path d="M160.516 247.788H154.165V259.965H160.516V247.788Z" stroke="black" stroke-miterlimit="10"/>
<path d="M171.949 247.788H165.598V259.965H171.949V247.788Z" stroke="black" stroke-miterlimit="10"/>
<path d="M126.219 268.373H119.868V280.55H126.219V268.373Z" stroke="black" stroke-miterlimit="10"/>
<path d="M137.652 268.373H131.301V280.55H137.652V268.373Z" stroke="black" stroke-miterlimit="10"/>
<path d="M149.084 268.373H142.733V280.55H149.084V268.373Z" stroke="black" stroke-miterlimit="10"/>
<path d="M160.516 268.373H154.165V280.55H160.516V268.373Z" stroke="black" stroke-miterlimit="10"/>
<path d="M171.949 268.373H165.598V280.55H171.949V268.373Z" stroke="black" stroke-miterlimit="10"/>
<path d="M126.219 288.958H119.868V301.135H126.219V288.958Z" stroke="black" stroke-miterlimit="10"/>
<path d="M137.652 288.958H131.301V301.135H137.652V288.958Z" stroke="black" stroke-miterlimit="10"/>
<path d="M149.084 288.958H142.733V301.135H149.084V288.958Z" stroke="black" stroke-miterlimit="10"/>
<path d="M160.516 288.958H154.165V301.135H160.516V288.958Z" stroke="black" stroke-miterlimit="10"/>
<path d="M171.949 288.958H165.598V301.135H171.949V288.958Z" stroke="black" stroke-miterlimit="10"/>
<path d="M126.219 309.543H119.868V321.72H126.219V309.543Z" stroke="black" stroke-miterlimit="10"/>
<path d="M137.652 309.543H131.301V321.72H137.652V309.543Z" stroke="black" stroke-miterlimit="10"/>
<path d="M149.084 309.543H142.733V321.72H149.084V309.543Z" stroke="black" stroke-miterlimit="10"/>
<path d="M160.516 309.543H154.165V321.72H160.516V309.543Z" stroke="black" stroke-miterlimit="10"/>
<path d="M171.949 309.543H165.598V321.72H171.949V309.543Z" stroke="black" stroke-miterlimit="10"/>
<path d="M126.219 330.128H119.868V342.305H126.219V330.128Z" stroke="black" stroke-miterlimit="10"/>
<path d="M137.652 330.128H131.301V342.305H137.652V330.128Z" stroke="black" stroke-miterlimit="10"/>
<path d="M149.084 330.128H142.733V342.305H149.084V330.128Z" stroke="black" stroke-miterlimit="10"/>
<path d="M160.516 330.128H154.165V342.305H160.516V330.128Z" stroke="black" stroke-miterlimit="10"/>
<path d="M171.949 330.128H165.598V342.305H171.949V330.128Z" stroke="black" stroke-miterlimit="10"/>
<path d="M126.219 350.713H119.868V362.89H126.219V350.713Z" stroke="black" stroke-miterlimit="10"/>
<path d="M137.652 350.713H131.301V362.89H137.652V350.713Z" stroke="black" stroke-miterlimit="10"/>
<path d="M149.084 350.713H142.733V362.89H149.084V350.713Z" stroke="black" stroke-miterlimit="10"/>
<path d="M160.516 350.713H154.165V362.89H160.516V350.713Z" stroke="black" stroke-miterlimit="10"/>
<path d="M171.949 350.713H165.598V362.89H171.949V350.713Z" stroke="black" stroke-miterlimit="10"/>
<path d="M126.219 371.878H119.868V384.055H126.219V371.878Z" stroke="black" stroke-miterlimit="10"/>
<path d="M137.652 371.878H131.301V384.055H137.652V371.878Z" stroke="black" stroke-miterlimit="10"/>
<path d="M149.084 371.878H142.733V384.055H149.084V371.878Z" stroke="black" stroke-miterlimit="10"/>
<path d="M160.516 371.878H154.165V384.055H160.516V371.878Z" stroke="black" stroke-miterlimit="10"/>
<path d="M171.949 371.878H165.598V384.055H171.949V371.878Z" stroke="black" stroke-miterlimit="10"/>
<path d="M115.089 156.461V404.64" stroke="black" stroke-miterlimit="10"/>
<path d="M212.193 168.058V401.16" stroke="black" stroke-miterlimit="10"/>
<path d="M224.622 168.058V401.16" stroke="black" stroke-miterlimit="10"/>
<path d="M237.05 168.058V401.16" stroke="black" stroke-miterlimit="10"/>
<path d="M249.478 168.058V401.16" stroke="black" stroke-miterlimit="10"/>
<path d="M261.907 191.252V401.16" stroke="black" stroke-miterlimit="10"/>
<path d="M274.335 191.252V401.16" stroke="black" stroke-miterlimit="10"/>
<path d="M286.763 191.252V401.16" stroke="black" stroke-miterlimit="10"/>
<path d="M15.144 112.391H32.278" stroke="black" stroke-miterlimit="10"/>
<path d="M15.144 127.468H32.278" stroke="black" stroke-miterlimit="10"/>
<path d="M15.144 142.544H32.278" stroke="black" stroke-miterlimit="10"/>
<path d="M15.144 157.62H32.278" stroke="black" stroke-miterlimit="10"/>
<path d="M15.144 172.697H32.278" stroke="black" stroke-miterlimit="10"/>
<path d="M15.144 187.773H32.278" stroke="black" stroke-miterlimit="10"/>
<path d="M15.144 202.849H32.278" stroke="black" stroke-miterlimit="10"/>
<path d="M15.144 217.926H32.278" stroke="black" stroke-miterlimit="10"/>
<path d="M15.144 233.002H32.278" stroke="black" stroke-miterlimit="10"/>
<path d="M15.144 248.078H32.278" stroke="black" stroke-miterlimit="10"/>
<path d="M15.144 263.154H32.278" stroke="black" stroke-miterlimit="10"/>
<path d="M15.144 278.231H32.278" stroke="black" stroke-miterlimit="10"/>
<path d="M15.144 293.307H32.278" stroke="black" stroke-miterlimit="10"/>
<path d="M15.144 308.383H32.278" stroke="black" stroke-miterlimit="10"/>
<path d="M15.144 323.46H32.278" stroke="black" stroke-miterlimit="10"/>
<path d="M15.144 338.536H32.278" stroke="black" stroke-miterlimit="10"/>
<path d="M15.144 353.612H32.278" stroke="black" stroke-miterlimit="10"/>
<path d="M15.144 368.689H32.278" stroke="black" stroke-miterlimit="10"/>
<path d="M15.144 383.765H32.278" stroke="black" stroke-miterlimit="10"/>
<path d="M15.144 398.841H32.278" stroke="black" stroke-miterlimit="10"/>
<path d="M15.144 413.917H32.278" stroke="black" stroke-miterlimit="10"/>
<path d="M470.229 206.908H395.659V213.866H470.229V206.908Z" stroke="black" stroke-miterlimit="10"/>
<path d="M470.229 219.085H395.659V226.043H470.229V219.085Z" stroke="black" stroke-miterlimit="10"/>
<path d="M470.229 231.262H395.659V238.22H470.229V231.262Z" stroke="black" stroke-miterlimit="10"/>
<path d="M470.229 243.439H395.659V250.397H470.229V243.439Z" stroke="black" stroke-miterlimit="10"/>
<path d="M470.229 255.616H395.659V262.574H470.229V255.616Z" stroke="black" stroke-miterlimit="10"/>
<path d="M470.229 267.793H395.659V274.751H470.229V267.793Z" stroke="black" stroke-miterlimit="10"/>
<path d="M470.229 279.97H395.659V286.928H470.229V279.97Z" stroke="black" stroke-miterlimit="10"/>
<path d="M470.229 292.147H395.659V299.105H470.229V292.147Z" stroke="black" stroke-miterlimit="10"/>
<path d="M470.229 304.324H395.659V311.282H470.229V304.324Z" stroke="black" stroke-miterlimit="10"/>
<path d="M470.229 316.501H395.659V323.459H470.229V316.501Z" stroke="black" stroke-miterlimit="10"/>
<path d="M470.229 328.678H395.659V335.636H470.229V328.678Z" stroke="black" stroke-miterlimit="10"/>
<path d="M470.229 340.855H395.659V347.813H470.229V340.855Z" stroke="black" stroke-miterlimit="10"/>
<path d="M470.229 353.032H395.659V359.99H470.229V353.032Z" stroke="black" stroke-miterlimit="10"/>
<path d="M470.229 365.209H395.659V372.167H470.229V365.209Z" stroke="black" stroke-miterlimit="10"/>
<path d="M470.229 377.386H395.659V384.344H470.229V377.386Z" stroke="black" stroke-miterlimit="10"/>
<path d="M470.229 389.563H395.659V396.521H470.229V389.563Z" stroke="black" stroke-miterlimit="10"/>
<path d="M470.229 401.74H395.659V408.698H470.229V401.74Z" stroke="black" stroke-miterlimit="10"/>
<path d="M363.701 342.595H326.416V361.73H363.701V342.595Z" stroke="black" stroke-miterlimit="10"/>
<path d="M354.823 308.963H335.293V342.595H354.823V308.963Z" stroke="black" stroke-miterlimit="10"/>
<path d="M178.266 238.047V404.179" stroke="black" stroke-miterlimit="10"/>
<path d="M392.421 219.838H301.884" stroke="black" stroke-miterlimit="10"/>
<path d="M392.421 229.749H301.884" stroke="black" stroke-miterlimit="10"/>
<path d="M319.74 237.183H305.93V247.094H319.74V237.183Z" stroke="black" stroke-miterlimit="10"/>
<path d="M336.773 237.183H322.963V247.094H336.773V237.183Z" stroke="black" stroke-miterlimit="10"/>
<path d="M353.805 237.183H339.995V247.094H353.805V237.183Z" stroke="black" stroke-miterlimit="10"/>
<path d="M370.837 237.183H357.027V247.094H370.837V237.183Z" stroke="black" stroke-miterlimit="10"/>
<path d="M387.869 237.183H374.059V247.094H387.869V237.183Z" stroke="black" stroke-miterlimit="10"/>
<path d="M319.74 252.545H305.93V262.456H319.74V252.545Z" stroke="black" stroke-miterlimit="10"/>
<path d="M336.773 252.545H322.963V262.456H336.773V252.545Z" stroke="black" stroke-miterlimit="10"/>
<path d="M353.805 252.545H339.995V262.456H353.805V252.545Z" stroke="black" stroke-miterlimit="10"/>
<path d="M370.837 252.545H357.027V262.456H370.837V252.545Z" stroke="black" stroke-miterlimit="10"/>
<path d="M387.869 252.545H374.059V262.456H387.869V252.545Z" stroke="black" stroke-miterlimit="10"/>
<path d="M319.74 267.908H305.93V277.819H319.74V267.908Z" stroke="black" stroke-miterlimit="10"/>
<path d="M336.773 267.908H322.963V277.819H336.773V267.908Z" stroke="black" stroke-miterlimit="10"/>
<path d="M353.805 267.908H339.995V277.819H353.805V267.908Z" stroke="black" stroke-miterlimit="10"/>
<path d="M370.837 267.908H357.027V277.819H370.837V267.908Z" stroke="black" stroke-miterlimit="10"/>
<path d="M387.869 267.908H374.059V277.819H387.869V267.908Z" stroke="black" stroke-miterlimit="10"/>
<path d="M319.74 295.659H305.93V305.57H319.74V295.659Z" stroke="black" stroke-miterlimit="10"/>
<path d="M336.773 295.659H322.963V305.57H336.773V295.659Z" stroke="black" stroke-miterlimit="10"/>
<path d="M353.805 295.659H339.995V305.57H353.805V295.659Z" stroke="black" stroke-miterlimit="10"/>
<path d="M370.837 295.659H357.027V305.57H370.837V295.659Z" stroke="black" stroke-miterlimit="10"/>
<path d="M387.869 295.659H374.059V305.57H387.869V295.659Z" stroke="black" stroke-miterlimit="10"/>
</g>
<g opacity="0.3">
<path d="M428.402 42.8449C428.402 42.8449 431.186 25.5819 413.367 21.6839C395.547 17.7859 387.751 36.1629 382.739 40.0609C377.727 43.9589 374.943 31.1509 364.362 34.4919C353.781 37.8329 350.997 45.6289 348.213 46.1859C345.429 46.7429 344.872 38.3899 334.291 41.7309C323.71 45.0719 318.142 51.1979 318.142 51.1979H457.917C457.917 51.1979 454.019 43.4019 446.78 40.0609C439.539 36.7199 433.413 48.9709 428.402 42.8449Z" stroke="black" stroke-miterlimit="10"/>
<path d="M86.9529 59.2319C86.9529 59.2319 88.5519 49.3159 78.3169 47.0769C68.0809 44.8379 63.6029 55.3939 60.7239 57.6329C57.8449 59.8719 56.2459 52.5149 50.1679 54.4339C44.0899 56.3529 42.4909 60.8309 40.8919 61.1509C39.2929 61.4709 38.9729 56.6729 32.8949 58.5919C26.8179 60.5109 23.6189 64.0299 23.6189 64.0299H103.907C103.907 64.0299 101.668 59.5519 97.5099 57.6329C93.3499 55.7139 89.8309 62.7509 86.9529 59.2319Z" stroke="black" stroke-miterlimit="10"/>
<path d="M313.588 54.9809C313.588 54.9809 315.187 45.0649 304.951 42.8259C294.715 40.5869 290.237 51.1429 287.358 53.3819C284.479 55.6209 282.88 48.2639 276.802 50.1829C270.724 52.1019 269.125 56.5799 267.526 56.8999C265.927 57.2199 265.607 52.4219 259.529 54.3409C253.451 56.2599 250.253 59.7789 250.253 59.7789H330.541C330.541 59.7789 328.302 55.3009 324.144 53.3819C319.986 51.4619 316.467 58.4999 313.588 54.9809Z" stroke="black" stroke-miterlimit="10"/>
</g>
<path d="M497.261 223.878C497.261 278.499 464.943 322.768 425.098 322.768C414.162 322.768 403.809 319.45 394.531 313.49C369.955 297.73 352.935 263.538 352.935 223.878C352.935 169.288 385.253 29.5771 425.098 29.5771C431.119 29.5771 436.956 33.8472 442.517 41.2822C473.944 83.1542 497.261 177.521 497.261 223.878Z" fill="#E06330"/>
<path opacity="0.49" d="M497.261 223.878C497.261 278.499 464.943 322.768 425.098 322.768C414.162 322.768 403.809 319.45 394.531 313.49C369.955 297.73 352.935 263.538 352.935 223.878C352.935 169.288 385.253 29.5771 425.098 29.5771C431.119 29.5771 436.956 33.8472 442.517 41.2822C473.944 83.1542 497.261 177.521 497.261 223.878Z" fill="white"/>
<path d="M386.116 228.802L409.13 236.83L420.53 252.327L418.536 299.773L405.27 290.772L418.124 309.592L412.365 449.429H430.405L427.331 273.532L465.55 252.463L443.702 260.544L448.086 247.393L437.641 262.786L427.212 266.643L426.467 223.456L464.423 173.029L444.082 193.37L447.522 179.226L437.792 199.661L426.256 211.196L425.093 143.723L420.958 242.13L384.99 204.014L404.747 230.872L386.116 228.802Z" fill="#8F8F8F"/>
<path d="M429.128 295.128H426.999C419.398 295.128 413.237 288.967 413.237 281.366V256.997C413.237 249.396 419.399 243.235 426.999 243.235H429.128C436.729 243.235 442.89 249.397 442.89 256.997V281.366C442.89 288.966 436.728 295.128 429.128 295.128Z" fill="#E06330" stroke="#263238" stroke-miterlimit="10"/>
<path d="M436.055 240.991H420.071V245.135H436.055V240.991Z" fill="#263238" stroke="#263238" stroke-miterlimit="10"/>
<path d="M436.055 293.339H420.071V297.483H436.055V293.339Z" fill="#263238" stroke="#263238" stroke-miterlimit="10"/>
<path opacity="0.34" d="M428.119 282.908C434.548 282.908 439.759 276.655 439.759 268.941C439.759 261.227 434.548 254.974 428.119 254.974C421.69 254.974 416.479 261.227 416.479 268.941C416.479 276.655 421.69 282.908 428.119 282.908Z" fill="white"/>
<path opacity="0.66" d="M428.119 277.427C432.025 277.427 435.191 273.628 435.191 268.941C435.191 264.254 432.025 260.455 428.119 260.455C424.213 260.455 421.047 264.254 421.047 268.941C421.047 273.628 424.213 277.427 428.119 277.427Z" fill="white"/>
<path d="M415.592 254.087H423.352" stroke="#263238" stroke-miterlimit="10"/>
<path d="M439.98 256.304H422.465" stroke="#263238" stroke-miterlimit="10"/>
<path d="M414.04 269.385H419.583" stroke="#263238" stroke-miterlimit="10"/>
<path d="M442.419 276.258H425.126" stroke="#263238" stroke-miterlimit="10"/>
<path d="M424.904 279.14H438.206" stroke="#263238" stroke-miterlimit="10"/>
<path d="M427.786 284.461H421.357" stroke="#263238" stroke-miterlimit="10"/>
<path d="M432.664 284.461H429.56" stroke="#263238" stroke-miterlimit="10"/>
<path d="M425.347 254.087H428.119" stroke="#263238" stroke-miterlimit="10"/>
<path d="M427.334 240.441V233.303" stroke="#263238" stroke-width="2" stroke-miterlimit="10"/>
<path d="M54.121 295.128H51.992C44.391 295.128 38.23 288.967 38.23 281.366V256.997C38.23 249.396 44.391 243.235 51.992 243.235H54.121C61.722 243.235 67.883 249.397 67.883 256.997V281.366C67.883 288.966 61.721 295.128 54.121 295.128Z" fill="#E06330" stroke="#263238" stroke-miterlimit="10"/>
<path d="M61.048 240.991H45.064V245.135H61.048V240.991Z" fill="#263238" stroke="#263238" stroke-miterlimit="10"/>
<path d="M61.048 293.339H45.064V297.483H61.048V293.339Z" fill="#263238" stroke="#263238" stroke-miterlimit="10"/>
<path opacity="0.34" d="M53.1119 282.908C59.5405 282.908 64.7519 276.655 64.7519 268.941C64.7519 261.227 59.5405 254.974 53.1119 254.974C46.6833 254.974 41.4719 261.227 41.4719 268.941C41.4719 276.655 46.6833 282.908 53.1119 282.908Z" fill="white"/>
<path opacity="0.66" d="M53.112 277.427C57.0178 277.427 60.184 273.628 60.184 268.941C60.184 264.254 57.0178 260.455 53.112 260.455C49.2063 260.455 46.04 264.254 46.04 268.941C46.04 273.628 49.2063 277.427 53.112 277.427Z" fill="white"/>
<path d="M40.585 254.087H48.345" stroke="#263238" stroke-miterlimit="10"/>
<path d="M64.973 256.304H47.458" stroke="#263238" stroke-miterlimit="10"/>
<path d="M39.033 269.385H44.576" stroke="#263238" stroke-miterlimit="10"/>
<path d="M67.4119 276.258H50.1179" stroke="#263238" stroke-miterlimit="10"/>
<path d="M49.897 279.14H63.199" stroke="#263238" stroke-miterlimit="10"/>
<path d="M52.7789 284.461H46.3489" stroke="#263238" stroke-miterlimit="10"/>
<path d="M57.657 284.461H54.553" stroke="#263238" stroke-miterlimit="10"/>
<path d="M50.3401 254.087H53.1121" stroke="#263238" stroke-miterlimit="10"/>
<path d="M52.3269 240.441V233.303" stroke="#263238" stroke-width="2" stroke-miterlimit="10"/>
<path d="M74.953 305.397H27.269V449.447H74.953V305.397Z" fill="white" stroke="#263238" stroke-miterlimit="10"/>
<path d="M70.7981 309.849H31.4841V340.541H70.7981V309.849Z" fill="#E06330"/>
<path d="M70.7981 344.335H31.4841V375.028H70.7981V344.335Z" fill="#E06330"/>
<path d="M70.7981 378.821H31.4841V409.513H70.7981V378.821Z" fill="#E06330"/>
<path d="M70.7981 413.307H31.4841V443.999H70.7981V413.307Z" fill="#E06330"/>
<path d="M63.9624 399.336C66.6295 392.437 63.1993 384.683 56.3009 382.016C49.4024 379.349 41.6481 382.779 38.981 389.677C36.3139 396.576 39.7441 404.33 46.6426 406.997C53.541 409.664 61.2954 406.234 63.9624 399.336Z" fill="white"/>
<path d="M60.352 398.181C62.3796 393.286 60.0552 387.674 55.1603 385.646C50.2654 383.619 44.6536 385.943 42.6261 390.838C40.5985 395.733 42.9229 401.345 47.8178 403.372C52.7127 405.4 58.3244 403.076 60.352 398.181Z" fill="#E0E0E0"/>
<path d="M57.654 387.415C57.654 387.415 54.78 384.349 53.055 386.648C51.331 388.947 55.738 392.78 53.247 394.504C50.756 396.228 49.415 395.462 49.032 397.57C48.649 399.678 48.457 400.253 49.798 401.019C51.139 401.785 52.097 402.169 53.247 402.169C54.397 402.169 54.588 402.169 55.738 401.402C56.888 400.636 57.462 400.061 58.229 399.294C58.995 398.528 58.995 399.294 59.379 397.378C59.762 395.462 59.762 394.887 59.762 393.546C59.762 392.205 59.762 394.121 59.762 392.205C59.762 390.289 59.762 390.289 59.762 390.289C59.762 390.289 58.612 388.181 57.654 387.415Z" fill="#E06330"/>
<path d="M49.7431 391.896C49.7431 393.322 48.5871 394.478 47.1611 394.478C45.7351 394.478 44.5791 393.322 44.5791 391.896C44.5791 390.47 45.7351 389.314 47.1611 389.314C48.5871 389.314 49.7431 390.47 49.7431 391.896Z" fill="#E06330"/>
<path d="M48.656 400.595C48.656 401.421 47.987 402.09 47.161 402.09C46.335 402.09 45.666 401.421 45.666 400.595C45.666 399.769 46.335 399.1 47.161 399.1C47.987 399.1 48.656 399.769 48.656 400.595Z" fill="#E06330"/>
<path d="M51.3992 388.005C52.3137 388.005 53.0552 387.263 53.0552 386.349C53.0552 385.434 52.3137 384.693 51.3992 384.693C50.4846 384.693 49.7432 385.434 49.7432 386.349C49.7432 387.263 50.4846 388.005 51.3992 388.005Z" fill="#E06330"/>
<path d="M63.2169 365.308C66.7619 358.817 64.3738 350.682 57.8829 347.137C51.392 343.592 43.2563 345.98 39.7113 352.471C36.1663 358.962 38.5544 367.097 45.0453 370.642C51.5362 374.187 59.6719 371.799 63.2169 365.308Z" fill="white"/>
<path d="M51.3948 349.302C56.6928 349.255 61.0258 353.511 61.0738 358.809C61.1208 364.107 56.8648 368.44 51.5668 368.487C46.2688 368.534 41.9358 364.278 41.8888 358.98C41.8398 353.682 46.0968 349.349 51.3948 349.302Z" fill="#E0E0E0"/>
<path d="M44.336 352.784C44.336 352.784 41.296 355.685 43.611 357.389C45.926 359.093 49.718 354.652 51.465 357.127C53.212 359.602 52.457 360.951 54.568 361.315C56.679 361.679 57.256 361.866 58.01 360.518C58.764 359.17 59.139 358.208 59.129 357.059C59.119 355.909 59.117 355.718 58.34 354.575C57.563 353.432 56.983 352.863 56.21 352.103C55.437 351.343 56.203 351.337 54.284 350.97C52.365 350.604 51.79 350.609 50.449 350.621C49.108 350.633 51.024 350.616 49.108 350.633C47.192 350.65 47.192 350.65 47.192 350.65C47.192 350.65 45.094 351.819 44.336 352.784Z" fill="#E06330"/>
<path d="M47.5378 366.325C49.7067 366.325 51.4648 364.567 51.4648 362.398C51.4648 360.229 49.7067 358.471 47.5378 358.471C45.369 358.471 43.6108 360.229 43.6108 362.398C43.6108 364.567 45.369 366.325 47.5378 366.325Z" fill="white"/>
<path d="M63.5159 433.521C66.7532 426.872 63.9868 418.856 57.3369 415.619C50.6869 412.382 42.6717 415.148 39.4344 421.798C36.1971 428.448 38.9636 436.463 45.6135 439.701C52.2634 442.938 60.2786 440.171 63.5159 433.521Z" fill="white"/>
<path d="M59.9064 432.201C62.4193 427.537 60.6756 421.719 56.0117 419.206C51.3478 416.694 45.5299 418.437 43.017 423.101C40.5041 427.765 42.2479 433.583 46.9118 436.096C51.5757 438.609 57.3936 436.865 59.9064 432.201Z" fill="#E0E0E0"/>
<path d="M55.9131 435.96C55.9131 435.96 59.8001 434.363 58.2631 431.934C56.7261 429.505 51.5781 432.263 50.8511 429.322C50.1241 426.381 51.3171 425.399 49.4831 424.292C47.6491 423.185 47.1801 422.802 45.9871 423.783C44.7941 424.764 44.0951 425.524 43.6871 426.598C43.2781 427.673 43.2101 427.852 43.5181 429.199C43.8261 430.546 44.1591 431.288 44.6031 432.276C45.0471 433.265 44.3311 432.992 45.9861 434.031C47.6411 435.07 48.1781 435.274 49.4321 435.751C50.6861 436.228 48.8951 435.547 50.6861 436.228C52.4771 436.909 52.4771 436.909 52.4771 436.909C52.4771 436.909 54.8561 436.583 55.9131 435.96Z" fill="#E06330"/>
<path d="M52.7681 424.412C53.5571 422.392 55.8341 421.393 57.8541 422.182C59.8741 422.971 60.8731 425.248 60.0841 427.268C59.2951 429.288 57.0181 430.287 54.9981 429.498C52.9781 428.71 51.9801 426.432 52.7681 424.412Z" fill="white"/>
<path d="M44.097 426.002C44.637 424.62 46.195 423.936 47.577 424.476C48.959 425.016 49.643 426.574 49.103 427.956C48.563 429.338 47.005 430.022 45.623 429.482C44.241 428.942 43.558 427.384 44.097 426.002Z" fill="white"/>
<path d="M63.9642 330.291C66.6312 323.393 63.201 315.638 56.3026 312.971C49.4042 310.304 41.6498 313.734 38.9827 320.633C36.3157 327.531 39.7458 335.286 46.6443 337.953C53.5427 340.62 61.2971 337.19 63.9642 330.291Z" fill="white"/>
<path d="M60.3508 329.135C62.3784 324.24 60.0539 318.629 55.1591 316.601C50.2642 314.573 44.6524 316.898 42.6249 321.793C40.5973 326.688 42.9217 332.299 47.8166 334.327C52.7115 336.355 58.3232 334.03 60.3508 329.135Z" fill="#E0E0E0"/>
<path d="M57.654 318.371C57.654 318.371 54.78 315.305 53.055 317.604C51.331 319.903 55.738 323.736 53.247 325.46C50.756 327.185 49.415 326.418 49.032 328.526C48.649 330.634 48.457 331.209 49.798 331.975C51.139 332.741 52.097 333.125 53.247 333.125C54.397 333.125 54.588 333.125 55.738 332.358C56.888 331.592 57.462 331.017 58.229 330.25C58.995 329.484 58.995 330.25 59.379 328.334C59.762 326.418 59.762 325.843 59.762 324.502C59.762 323.161 59.762 325.077 59.762 323.161C59.762 321.245 59.762 321.245 59.762 321.245C59.762 321.245 58.612 319.137 57.654 318.371Z" fill="#E06330"/>
<path d="M240.063 223.965H79.9619V449.237H240.063V223.965Z" fill="#737373" stroke="#263238" stroke-miterlimit="10"/>
<path d="M243.42 223.965H83.3188V449.237H243.42V223.965Z" fill="#A1A1A1" stroke="#263238" stroke-miterlimit="10"/>
<path d="M124.009 274.333H102.064V311.505H124.009V274.333Z" fill="white" stroke="#263238" stroke-miterlimit="10"/>
<path d="M406.334 223.965H246.233V449.237H406.334V223.965Z" fill="#BFBFBF" stroke="#263238" stroke-miterlimit="10"/>
<path d="M403.602 223.965H243.501V449.237H403.602V223.965Z" fill="#A1A1A1" stroke="#263238" stroke-miterlimit="10"/>
<path d="M146.828 304.468C146.836 309.866 150.927 314.49 156.414 315.045C161.901 315.601 166.836 311.891 167.927 306.605L146.828 304.468Z" fill="#E06330" stroke="#263238" stroke-miterlimit="10"/>
<path d="M167.126 308.973C167.477 308.228 167.754 307.439 167.926 306.605L146.827 304.468C146.828 305.32 146.942 306.149 147.136 306.949L167.126 308.973Z" fill="white" stroke="#263238" stroke-miterlimit="10"/>
<path d="M146.292 310.205C146.785 315.58 151.275 319.818 156.789 319.879C162.304 319.94 166.886 315.802 167.497 310.439L146.292 310.205Z" fill="#E06330" stroke="#263238" stroke-miterlimit="10"/>
<path d="M166.913 312.87C167.195 312.096 167.401 311.285 167.497 310.439L146.292 310.205C146.37 311.053 146.557 311.868 146.823 312.648L166.913 312.87Z" fill="white" stroke="#263238" stroke-miterlimit="10"/>
<path d="M146.462 315.769C147.331 321.096 152.108 325.008 157.613 324.681C163.118 324.354 167.399 319.904 167.631 314.512L146.462 315.769Z" fill="#E06330" stroke="#263238" stroke-miterlimit="10"/>
<path d="M167.219 316.978C167.446 316.186 167.594 315.363 167.631 314.512L146.462 315.769C146.599 316.61 146.844 317.41 147.163 318.169L167.219 316.978Z" fill="white" stroke="#263238" stroke-miterlimit="10"/>
<path d="M146.392 319.93C146.944 325.299 151.48 329.488 156.995 329.488C162.51 329.488 167.046 325.3 167.598 319.93H146.392Z" fill="#E06330" stroke="#263238" stroke-miterlimit="10"/>
<path d="M167.041 322.367C167.315 321.59 167.511 320.777 167.598 319.93H146.391C146.478 320.777 146.675 321.59 146.948 322.367H167.041Z" fill="white" stroke="#263238" stroke-miterlimit="10"/>
<path d="M146.392 325.367C146.944 330.736 151.48 334.924 156.995 334.924C162.51 334.924 167.046 330.736 167.598 325.367H146.392Z" fill="#E06330" stroke="#263238" stroke-miterlimit="10"/>
<path d="M167.041 327.805C167.315 327.028 167.511 326.215 167.598 325.368H146.391C146.478 326.215 146.675 327.028 146.948 327.805H167.041Z" fill="white" stroke="#263238" stroke-miterlimit="10"/>
<path d="M192.043 304.468C192.035 309.866 187.944 314.49 182.457 315.045C176.97 315.601 172.035 311.891 170.945 306.605L192.043 304.468Z" fill="#E06330" stroke="#263238" stroke-miterlimit="10"/>
<path d="M171.744 308.973C171.393 308.228 171.116 307.439 170.944 306.605L192.043 304.468C192.042 305.32 191.928 306.149 191.734 306.949L171.744 308.973Z" fill="white" stroke="#263238" stroke-miterlimit="10"/>
<path d="M192.578 310.205C192.085 315.58 187.595 319.818 182.081 319.879C176.566 319.94 171.984 315.802 171.373 310.439L192.578 310.205Z" fill="#E06330" stroke="#263238" stroke-miterlimit="10"/>
<path d="M171.957 312.87C171.675 312.096 171.469 311.285 171.373 310.439L192.578 310.205C192.5 311.053 192.313 311.868 192.047 312.648L171.957 312.87Z" fill="white" stroke="#263238" stroke-miterlimit="10"/>
<path d="M192.408 315.769C191.539 321.096 186.762 325.008 181.257 324.681C175.751 324.354 171.471 319.904 171.239 314.512L192.408 315.769Z" fill="#E06330" stroke="#263238" stroke-miterlimit="10"/>
<path d="M171.651 316.978C171.424 316.186 171.276 315.363 171.239 314.512L192.408 315.769C192.271 316.61 192.026 317.41 191.707 318.169L171.651 316.978Z" fill="white" stroke="#263238" stroke-miterlimit="10"/>
<path d="M192.478 319.93C191.926 325.299 187.39 329.488 181.875 329.488C176.36 329.488 171.824 325.3 171.272 319.93H192.478Z" fill="#E06330" stroke="#263238" stroke-miterlimit="10"/>
<path d="M171.829 322.367C171.555 321.59 171.359 320.777 171.272 319.93H192.479C192.392 320.777 192.195 321.59 191.921 322.367H171.829Z" fill="white" stroke="#263238" stroke-miterlimit="10"/>
<path d="M192.478 325.367C191.926 330.736 187.39 334.924 181.875 334.924C176.36 334.924 171.824 330.736 171.272 325.367H192.478Z" fill="#E06330" stroke="#263238" stroke-miterlimit="10"/>
<path d="M171.829 327.805C171.555 327.028 171.359 326.215 171.272 325.368H192.479C192.392 326.215 192.195 327.028 191.921 327.805H171.829Z" fill="white" stroke="#263238" stroke-miterlimit="10"/>
<path d="M216.086 304.468C216.078 309.866 211.987 314.49 206.5 315.045C201.013 315.601 196.078 311.891 194.987 306.605L216.086 304.468Z" fill="#E06330" stroke="#263238" stroke-miterlimit="10"/>
<path d="M195.787 308.973C195.436 308.228 195.159 307.439 194.987 306.605L216.086 304.468C216.085 305.32 215.971 306.149 215.777 306.949L195.787 308.973Z" fill="white" stroke="#263238" stroke-miterlimit="10"/>
<path d="M216.621 310.205C216.128 315.58 211.638 319.818 206.124 319.879C200.609 319.94 196.027 315.802 195.416 310.439L216.621 310.205Z" fill="#E06330" stroke="#263238" stroke-miterlimit="10"/>
<path d="M196 312.87C195.718 312.096 195.512 311.285 195.416 310.439L216.621 310.205C216.543 311.053 216.356 311.868 216.09 312.648L196 312.87Z" fill="white" stroke="#263238" stroke-miterlimit="10"/>
<path d="M216.451 315.769C215.582 321.096 210.805 325.008 205.3 324.681C199.795 324.354 195.515 319.904 195.282 314.512L216.451 315.769Z" fill="#E06330" stroke="#263238" stroke-miterlimit="10"/>
<path d="M195.694 316.978C195.467 316.186 195.319 315.363 195.282 314.512L216.451 315.769C216.314 316.61 216.069 317.41 215.75 318.169L195.694 316.978Z" fill="white" stroke="#263238" stroke-miterlimit="10"/>
<path d="M216.521 319.93C215.969 325.299 211.433 329.488 205.918 329.488C200.403 329.488 195.867 325.3 195.315 319.93H216.521Z" fill="#E06330" stroke="#263238" stroke-miterlimit="10"/>
<path d="M195.872 322.367C195.598 321.59 195.402 320.777 195.314 319.93H216.521C216.434 320.777 216.237 321.59 215.964 322.367H195.872Z" fill="white" stroke="#263238" stroke-miterlimit="10"/>
<path d="M216.521 325.367C215.969 330.736 211.433 334.924 205.918 334.924C200.403 334.924 195.867 330.736 195.315 325.367H216.521Z" fill="#E06330" stroke="#263238" stroke-miterlimit="10"/>
<path d="M195.872 327.805C195.598 327.028 195.402 326.215 195.314 325.368H216.521C216.434 326.215 216.237 327.028 215.964 327.805H195.872Z" fill="white" stroke="#263238" stroke-miterlimit="10"/>
<path d="M288.957 229.865H178.336V290.506H288.957V229.865Z" fill="#CFCFCF" stroke="#263238" stroke-miterlimit="10"/>
<path d="M288.958 229.865H206.882V290.506H288.958V229.865Z" fill="#CFCFCF" stroke="#263238" stroke-miterlimit="10"/>
<path d="M362.712 254.693H323.691V311.663H362.712V254.693Z" fill="white" stroke="#263238" stroke-miterlimit="10"/>
<path d="M355.689 254.693H316.668V311.663H355.689V254.693Z" fill="white" stroke="#263238" stroke-miterlimit="10"/>
<path d="M352.906 258.756H319.451V307.6H352.906V258.756Z" fill="white" stroke="#263238" stroke-miterlimit="10"/>
<path d="M352.905 258.756H327.255V307.6H352.905V258.756Z" fill="#A1A1A1" stroke="#263238" stroke-miterlimit="10"/>
<path d="M352.906 283.202H319.451V286.593H352.906V283.202Z" fill="white" stroke="#263238" stroke-miterlimit="10"/>
<path d="M320.448 235.711H285.859V276.843H320.448V235.711Z" fill="#E06330" stroke="#263238" stroke-miterlimit="10"/>
<path d="M283.523 235.711H248.934V276.843H283.523V235.711Z" fill="#E06330" stroke="#263238" stroke-miterlimit="10"/>
<path d="M358.309 235.711H323.72V276.843H358.309V235.711Z" fill="#E06330" stroke="#263238" stroke-miterlimit="10"/>
<path d="M396.17 235.711H361.581V276.843H396.17V235.711Z" fill="#E06330" stroke="#263238" stroke-miterlimit="10"/>
<path d="M117.552 235.711H82.9629V276.843H117.552V235.711Z" fill="#E06330" stroke="#263238" stroke-miterlimit="10"/>
<path d="M230.666 235.711H196.077V276.843H230.666V235.711Z" fill="#E06330" stroke="#263238" stroke-miterlimit="10"/>
<path d="M155.413 235.711H120.824V276.843H155.413V235.711Z" fill="#E06330" stroke="#263238" stroke-miterlimit="10"/>
<path d="M193.273 235.711H158.684V276.843H193.273V235.711Z" fill="#E06330" stroke="#263238" stroke-miterlimit="10"/>
<path d="M109.215 259.546C109.215 259.546 111.685 258.586 110.724 255.018C109.763 251.45 107.156 250.764 104.824 251.039C102.491 251.314 95.4929 254.469 92.6119 254.744C89.7299 255.018 88.0839 254.058 88.3579 254.881C88.6319 255.704 90.2789 258.997 93.2979 259.409C96.3169 259.821 100.296 258.174 100.296 258.174C100.296 258.174 97.6889 262.29 93.9839 264.074C90.2789 265.858 89.0439 266.407 89.0439 266.407C89.0439 266.407 92.8859 268.877 96.0419 268.877C99.1979 268.877 100.844 268.054 102.217 266.682C103.59 265.31 109.215 259.546 109.215 259.546Z" fill="white" stroke="#263238" stroke-miterlimit="10"/>
<path d="M107.294 248.431C107.294 248.431 103.04 250.352 99.061 251.313C95.082 252.273 92.612 251.176 91.514 249.666C90.416 248.157 90.416 246.098 90.416 246.098C90.416 246.098 92.337 247.058 96.179 245.823C100.021 244.588 102.903 243.216 105.098 243.902C107.294 244.589 107.294 248.431 107.294 248.431Z" fill="white" stroke="#263238" stroke-miterlimit="10"/>
<path d="M127.695 252.268C127.695 252.268 127.009 255.424 127.969 257.894C128.93 260.364 130.165 260.776 131.399 260.638C132.634 260.501 139.083 259.815 141.004 260.089C142.925 260.364 145.121 262.147 146.904 260.912C148.688 259.677 149.786 256.796 148.413 254.188C147.041 251.581 144.845 252.404 140.729 252.404C136.612 252.404 133.182 253.639 131.124 253.227C129.067 252.817 127.695 252.268 127.695 252.268Z" fill="white" stroke="#263238" stroke-miterlimit="10"/>
<path d="M176.472 252.278C176.472 252.278 172.493 249.122 170.572 249.534C168.651 249.946 167.142 250.632 167.828 252.141C168.514 253.65 172.356 257.767 172.356 257.767C172.356 257.767 168.514 261.197 167.142 262.021C165.77 262.844 164.26 262.707 164.398 263.53C164.535 264.353 167.417 266.274 169.338 266.274C171.259 266.274 176.748 261.746 176.748 261.746C176.748 261.746 180.453 265.176 181.825 264.49C183.197 263.804 184.295 262.569 183.334 259.687C182.374 256.805 181.55 255.845 181.55 255.845C181.55 255.845 187.587 250.356 187.039 248.161C186.49 245.966 185.118 245.417 183.334 244.593C181.55 243.77 180.178 243.084 180.041 244.044C179.904 245.005 180.316 245.691 179.081 247.886C177.844 250.083 176.472 252.278 176.472 252.278Z" fill="white" stroke="#263238" stroke-miterlimit="10"/>
<path d="M206.239 243.174C206.239 243.174 205.965 246.605 207.748 248.937C209.532 251.27 212.688 251.681 214.197 250.721C215.706 249.761 215.295 247.153 213.511 245.507C211.727 243.86 209.394 244.272 208.159 243.86C206.925 243.449 206.239 243.174 206.239 243.174Z" fill="white" stroke="#263238" stroke-miterlimit="10"/>
<path d="M223.254 245.096C223.254 245.096 218.451 252.506 214.747 255.936C212.397 258.112 205.965 261.562 205.965 261.562L211.316 266.09C211.316 266.09 216.942 264.169 220.509 258.68C224.077 253.191 224.9 244.409 223.254 245.096Z" fill="white" stroke="#263238" stroke-miterlimit="10"/>
<path d="M384.453 171.666H245.444V236.08H384.453V171.666Z" fill="#616161" stroke="#263238" stroke-miterlimit="10"/>
<path d="M443.62 236.08H284.775L262.886 171.666H421.731L443.62 236.08Z" fill="#263238" stroke="#263238" stroke-miterlimit="10"/>
<path d="M94.0979 236.08L233.107 236.08V171.666H94.0979V236.08Z" fill="#616161" stroke="#263238" stroke-miterlimit="10"/>
<path d="M34.9309 236.08H193.776L215.665 171.666H56.8189L34.9309 236.08Z" fill="#263238" stroke="#263238" stroke-miterlimit="10"/>
<path d="M427.047 327.177H244.02V449.447H427.047V327.177Z" fill="#E06330" stroke="#263238" stroke-miterlimit="10"/>
<path d="M427.047 358.031H244.02V364.969H427.047V358.031Z" fill="#263238" stroke="#263238" stroke-miterlimit="10"/>
<path d="M427.047 331.453H244.02V338.391H427.047V331.453Z" fill="#263238" stroke="#263238" stroke-miterlimit="10"/>
<path d="M442.746 353.558H244.02V359.08H442.746V353.558Z" fill="white" stroke="#263238" stroke-miterlimit="10"/>
<path d="M442.747 353.558H263.706V359.08H442.747V353.558Z" fill="white" stroke="#263238" stroke-miterlimit="10"/>
<path d="M430.731 327.177H244.019V333.037H430.731V327.177Z" fill="white" stroke="#263238" stroke-miterlimit="10"/>
<path d="M61.0968 449.448H244.124L244.124 327.178H61.0968L61.0968 449.448Z" fill="#E06330" stroke="#263238" stroke-miterlimit="10"/>
<path d="M244.071 358.031H61.5959V364.969H244.071V358.031Z" fill="#263238" stroke="#263238" stroke-miterlimit="10"/>
<path d="M244.071 331.453H61.5959V338.391H244.071V331.453Z" fill="#263238" stroke="#263238" stroke-miterlimit="10"/>
<path d="M57.4128 333.038H244.125V327.178H57.4128V333.038Z" fill="white" stroke="#263238" stroke-miterlimit="10"/>
<path d="M45.3978 359.082H244.124V353.56H45.3978V359.082Z" fill="white" stroke="#263238" stroke-miterlimit="10"/>
<path d="M45.397 359.082H224.438V353.56H45.397V359.082Z" fill="white" stroke="#263238" stroke-miterlimit="10"/>
<path d="M274.737 259.546C274.737 259.546 277.207 258.586 276.246 255.018C275.285 251.45 272.678 250.764 270.346 251.039C268.013 251.314 261.015 254.469 258.134 254.744C255.252 255.018 253.606 254.058 253.88 254.881C254.154 255.704 255.801 258.997 258.82 259.409C261.839 259.821 265.818 258.174 265.818 258.174C265.818 258.174 263.211 262.29 259.506 264.074C255.801 265.858 254.566 266.407 254.566 266.407C254.566 266.407 258.408 268.877 261.564 268.877C264.72 268.877 266.367 268.054 267.739 266.682C269.111 265.309 274.737 259.546 274.737 259.546Z" fill="white" stroke="#263238" stroke-miterlimit="10"/>
<path d="M272.816 248.431C272.816 248.431 268.562 250.352 264.583 251.313C260.604 252.273 258.134 251.176 257.036 249.666C255.938 248.157 255.938 246.098 255.938 246.098C255.938 246.098 257.859 247.058 261.701 245.823C265.543 244.588 268.425 243.216 270.62 243.902C272.816 244.589 272.816 248.431 272.816 248.431Z" fill="white" stroke="#263238" stroke-miterlimit="10"/>
<path d="M293.217 252.268C293.217 252.268 292.531 255.424 293.491 257.894C294.452 260.364 295.686 260.776 296.921 260.638C298.156 260.501 304.605 259.815 306.526 260.089C308.447 260.364 310.642 262.147 312.426 260.912C314.21 259.677 315.308 256.796 313.935 254.188C312.563 251.581 310.367 252.404 306.251 252.404C302.135 252.404 298.704 253.639 296.646 253.227C294.59 252.817 293.217 252.268 293.217 252.268Z" fill="white" stroke="#263238" stroke-miterlimit="10"/>
<path d="M341.995 252.278C341.995 252.278 338.016 249.122 336.095 249.534C334.174 249.946 332.665 250.632 333.351 252.141C334.037 253.65 337.879 257.767 337.879 257.767C337.879 257.767 334.037 261.197 332.665 262.021C331.293 262.844 329.783 262.707 329.921 263.53C330.058 264.353 332.94 266.274 334.861 266.274C336.782 266.274 342.271 261.746 342.271 261.746C342.271 261.746 345.976 265.176 347.348 264.49C348.72 263.804 349.818 262.569 348.857 259.687C347.896 256.805 347.073 255.845 347.073 255.845C347.073 255.845 353.111 250.356 352.562 248.161C352.013 245.966 350.641 245.417 348.857 244.593C347.073 243.77 345.701 243.084 345.564 244.044C345.427 245.005 345.839 245.691 344.604 247.886C343.367 250.083 341.995 252.278 341.995 252.278Z" fill="white" stroke="#263238" stroke-miterlimit="10"/>
<path d="M371.761 243.174C371.761 243.174 371.487 246.605 373.27 248.937C375.054 251.27 378.21 251.681 379.719 250.721C381.228 249.761 380.817 247.153 379.033 245.507C377.249 243.86 374.917 244.272 373.681 243.86C372.447 243.449 371.761 243.174 371.761 243.174Z" fill="white" stroke="#263238" stroke-miterlimit="10"/>
<path d="M388.776 245.096C388.776 245.096 383.974 252.506 380.269 255.936C377.919 258.112 371.487 261.562 371.487 261.562L376.838 266.09C376.838 266.09 382.464 264.169 386.032 258.68C389.599 253.191 390.423 244.409 388.776 245.096Z" fill="white" stroke="#263238" stroke-miterlimit="10"/>
<path d="M243.452 171.397H214.292V344.853H243.452V171.397Z" fill="white" stroke="#263238" stroke-miterlimit="10"/>
<path d="M250.865 171.397H221.705V344.853H250.865V171.397Z" fill="white" stroke="#263238" stroke-miterlimit="10"/>
<path d="M248.937 192.204H236.652H224.367C224.813 197.236 226.897 200.573 226.897 200.573L226.937 200.588C228.087 202.65 231.994 204.171 236.651 204.171C241.308 204.171 245.215 202.65 246.365 200.588L246.405 200.573C246.405 200.573 248.49 197.236 248.937 192.204Z" fill="#263238" stroke="#263238" stroke-miterlimit="10"/>
<path d="M248.937 192.204C248.937 194.874 243.437 197.039 236.652 197.039C229.867 197.039 224.367 194.874 224.367 192.204C224.367 189.534 229.867 187.369 236.652 187.369C243.437 187.369 248.937 189.533 248.937 192.204Z" fill="white" stroke="#263238" stroke-miterlimit="10"/>
<path d="M236.652 196.101C242.788 196.101 247.762 194.356 247.762 192.204C247.762 190.051 242.788 188.307 236.652 188.307C230.516 188.307 225.542 190.051 225.542 192.204C225.542 194.356 230.516 196.101 236.652 196.101Z" fill="white" stroke="#263238" stroke-miterlimit="10"/>
<path d="M226.986 193.924C226.986 193.924 226.79 191.637 228.162 189.742" stroke="#263238" stroke-miterlimit="10"/>
<path d="M228.684 194.709C228.684 194.709 228.161 191.507 230.252 189.09" stroke="#263238" stroke-miterlimit="10"/>
<path d="M230.775 195.427C230.775 195.427 229.272 192.748 232.343 188.632" stroke="#263238" stroke-miterlimit="10"/>
<path d="M230.775 191.899C230.775 191.899 234.173 193.01 235.479 195.95" stroke="#263238" stroke-miterlimit="10"/>
<path d="M231.494 190.2C231.494 190.2 236.198 191.049 238.877 195.95" stroke="#263238" stroke-miterlimit="10"/>
<path d="M233.062 188.501C233.062 188.501 239.792 190.265 241.883 195.362" stroke="#263238" stroke-miterlimit="10"/>
<path d="M238.354 191.18C238.354 191.18 239.138 189.612 242.993 189.089" stroke="#263238" stroke-miterlimit="10"/>
<path d="M240.118 192.683C240.118 192.683 241.882 190.919 245.868 190.2" stroke="#263238" stroke-miterlimit="10"/>
<path d="M241.556 194.578C241.556 194.578 244.82 192.378 247.762 192.204" stroke="#263238" stroke-miterlimit="10"/>
<path d="M233.715 190.919L237.178 178.57L238.55 179.093L234.761 191.18L233.715 190.919Z" fill="white" stroke="#263238" stroke-miterlimit="10"/>
<path d="M234.402 191.348L240.503 180.067L241.726 180.879L235.364 191.833L234.402 191.348Z" fill="white" stroke="#263238" stroke-miterlimit="10"/>
<path d="M232.534 234.81C232.534 234.81 233.495 237.28 237.062 236.319C240.63 235.358 241.316 232.751 241.041 230.419C240.767 228.086 237.611 221.088 237.336 218.207C237.062 215.325 238.022 213.679 237.199 213.953C236.376 214.227 233.082 215.874 232.671 218.893C232.259 221.912 233.906 225.891 233.906 225.891C233.906 225.891 229.789 223.284 228.006 219.579C226.222 215.874 225.673 214.639 225.673 214.639C225.673 214.639 223.203 218.481 223.203 221.637C223.203 224.793 224.026 226.44 225.398 227.812C226.771 229.184 232.534 234.81 232.534 234.81Z" fill="#263238"/>
<path d="M243.648 232.889C243.648 232.889 241.727 228.635 240.766 224.656C239.806 220.677 240.903 218.207 242.413 217.109C243.922 216.011 245.981 216.011 245.981 216.011C245.981 216.011 245.021 217.932 246.255 221.774C247.49 225.616 248.862 228.498 248.176 230.693C247.49 232.889 243.648 232.889 243.648 232.889Z" fill="#263238"/>
<path d="M240.319 249.812C240.319 249.812 237.163 249.126 234.693 250.086C232.223 251.046 231.811 252.281 231.949 253.516C232.086 254.751 232.772 261.2 232.498 263.121C232.224 265.042 230.44 267.237 231.675 269.021C232.91 270.805 235.792 271.903 238.399 270.53C241.006 269.158 240.183 266.962 240.183 262.846C240.183 258.729 238.948 255.299 239.36 253.241C239.77 251.184 240.319 249.812 240.319 249.812Z" fill="#263238"/>
<path d="M238.429 290.254C238.429 290.254 241.585 286.275 241.173 284.354C240.761 282.433 240.075 280.924 238.566 281.61C237.057 282.296 232.94 286.138 232.94 286.138C232.94 286.138 229.51 282.296 228.686 280.924C227.863 279.552 228 278.042 227.177 278.18C226.354 278.317 224.433 281.199 224.433 283.12C224.433 285.041 228.961 290.53 228.961 290.53C228.961 290.53 225.531 294.235 226.217 295.607C226.903 296.979 228.138 298.077 231.019 297.116C233.901 296.155 234.861 295.332 234.861 295.332C234.861 295.332 240.35 301.37 242.545 300.821C244.741 300.272 245.289 298.9 246.113 297.116C246.936 295.332 247.622 293.96 246.662 293.823C245.702 293.686 245.015 294.097 242.82 292.863C240.624 291.626 238.429 290.254 238.429 290.254Z" fill="#263238"/>
<path d="M247.239 316.012C247.239 316.012 243.809 315.737 241.476 317.521C239.143 319.305 238.732 322.461 239.692 323.97C240.652 325.479 243.26 325.068 244.906 323.284C246.553 321.5 246.141 319.167 246.553 317.933C246.964 316.698 247.239 316.012 247.239 316.012Z" fill="#263238"/>
<path d="M245.318 333.027C245.318 333.027 237.908 328.224 234.478 324.52C232.302 322.17 228.852 315.738 228.852 315.738L224.324 321.09C224.324 321.09 226.245 326.716 231.734 330.284C237.222 333.85 246.004 334.673 245.318 333.027Z" fill="#263238"/>
<path d="M279.649 303.124H267.569V327.127H279.649V303.124Z" fill="white" stroke="#263238" stroke-miterlimit="10"/>
<path d="M278.633 298.874H268.585V303.063H278.633V298.874Z" fill="white" stroke="#263238" stroke-miterlimit="10"/>
<path d="M267.354 305.269H263.716V315.272H264.905V307.298H267.354V305.269Z" fill="white" stroke="#263238" stroke-miterlimit="10"/>
<path d="M291.129 317.518H283.32L284.1 327.046H290.348L291.129 317.518Z" fill="white" stroke="#263238" stroke-miterlimit="10"/>
<path d="M93.5231 303.124H81.4431V327.127H93.5231V303.124Z" fill="white" stroke="#263238" stroke-miterlimit="10"/>
<path d="M92.507 298.874H82.459V303.063H92.507V298.874Z" fill="white" stroke="#263238" stroke-miterlimit="10"/>
<path d="M81.2271 305.269H77.5901V315.272H78.7791V307.298H81.2271V305.269Z" fill="white" stroke="#263238" stroke-miterlimit="10"/>
<path d="M105.003 317.518H97.1931L97.9741 327.046H104.222L105.003 317.518Z" fill="white" stroke="#263238" stroke-miterlimit="10"/>
<path d="M142.647 303.124H130.567V327.127H142.647V303.124Z" fill="white" stroke="#263238" stroke-miterlimit="10"/>
<path d="M141.631 298.874H131.583V303.063H141.631V298.874Z" fill="white" stroke="#263238" stroke-miterlimit="10"/>
<path d="M130.352 305.269H126.715V315.272H127.904V307.298H130.352V305.269Z" fill="white" stroke="#263238" stroke-miterlimit="10"/>
<path d="M154.127 317.518H146.318L147.099 327.046H153.346L154.127 317.518Z" fill="white" stroke="#263238" stroke-miterlimit="10"/>
<path d="M194.638 303.124H182.558V327.127H194.638V303.124Z" fill="white" stroke="#263238" stroke-miterlimit="10"/>
<path d="M193.622 298.874H183.574V303.063H193.622V298.874Z" fill="white" stroke="#263238" stroke-miterlimit="10"/>
<path d="M182.342 305.269H178.705V315.272H179.894V307.298H182.342V305.269Z" fill="white" stroke="#263238" stroke-miterlimit="10"/>
<path d="M206.118 317.518H198.308L199.089 327.046H205.337L206.118 317.518Z" fill="white" stroke="#263238" stroke-miterlimit="10"/>
<path d="M334.367 303.124H322.287V327.127H334.367V303.124Z" fill="white" stroke="#263238" stroke-miterlimit="10"/>
<path d="M333.351 298.874H323.303V303.063H333.351V298.874Z" fill="white" stroke="#263238" stroke-miterlimit="10"/>
<path d="M322.071 305.269H318.434V315.272H319.623V307.298H322.071V305.269Z" fill="white" stroke="#263238" stroke-miterlimit="10"/>
<path d="M346.028 317.518H338.219L339 327.046H345.247L346.028 317.518Z" fill="white" stroke="#263238" stroke-miterlimit="10"/>
<path d="M389.084 303.124H377.004V327.127H389.084V303.124Z" fill="white" stroke="#263238" stroke-miterlimit="10"/>
<path d="M388.068 298.874H378.02V303.063H388.068V298.874Z" fill="white" stroke="#263238" stroke-miterlimit="10"/>
<path d="M376.789 305.269H373.151V315.272H374.34V307.298H376.789V305.269Z" fill="white" stroke="#263238" stroke-miterlimit="10"/>
<path d="M399.166 317.518H391.357L392.138 327.046H398.385L399.166 317.518Z" fill="white" stroke="#263238" stroke-miterlimit="10"/>
<path d="M430.738 345.482C430.738 345.482 434.349 337.57 435.199 336.348C436.049 335.127 438.651 332.047 439.129 331.144C439.607 330.241 440.51 328.064 440.51 328.064C440.51 328.064 436.687 331.144 435.2 333.693C433.713 336.242 430.261 345.694 430.261 345.694L430.738 345.482Z" fill="white" stroke="#263238" stroke-miterlimit="10" stroke-linecap="round" stroke-linejoin="round"/>
<path d="M432.767 340.212C433.757 337.702 434.862 335.051 435.538 333.891C436.436 332.351 438.245 330.584 439.478 329.472C439.234 330.026 438.971 330.6 438.781 330.96C438.517 331.458 437.48 332.77 436.565 333.927C435.881 334.792 435.234 335.61 434.877 336.124C434.504 336.658 433.64 338.391 432.767 340.212Z" fill="#E06330"/>
<g opacity="0.25">
<path d="M434.991 334.949L435.435 335.369C435.549 335.22 435.67 335.064 435.798 334.9L435.265 334.395C435.177 334.564 435.086 334.751 434.991 334.949Z" fill="black"/>
<path d="M433.586 338.528C433.678 338.342 433.769 338.16 433.856 337.987L433.68 337.944C433.605 338.126 433.529 338.311 433.454 338.496L433.586 338.528Z" fill="black"/>
<path d="M437.106 331.824C436.974 331.971 436.845 332.12 436.719 332.27L437.381 332.891C437.505 332.732 437.627 332.575 437.744 332.423L437.106 331.824Z" fill="black"/>
<path d="M438.585 330.303L438.987 330.547C439.067 330.381 439.151 330.199 439.238 330.009L439.03 329.883C438.885 330.017 438.737 330.157 438.585 330.303Z" fill="black"/>
</g>
<path d="M429.251 345.482C429.251 345.482 430.419 329.02 430.26 324.665C430.101 320.31 428.295 315.266 428.083 314.204C427.871 313.142 427.393 311.814 427.393 311.814C427.393 311.814 427.181 321.585 427.712 325.621C428.243 329.657 427.5 334.171 427.446 336.454C427.393 338.737 426.862 345.163 426.862 345.163L429.251 345.482Z" fill="#263238" stroke="#263238" stroke-miterlimit="10" stroke-linecap="round" stroke-linejoin="round"/>
<path d="M426.861 345.163C426.861 345.163 430.313 328.701 431.534 324.399C432.755 320.097 435.676 315.584 436.154 314.15C436.632 312.716 437.747 310.008 437.747 310.008C437.747 310.008 437.747 315.212 436.419 317.814C435.091 320.416 432.808 324.983 432.171 326.948C431.534 328.913 429.25 339.321 428.613 341.87C427.976 344.419 428.029 345.481 428.029 345.481L426.861 345.163Z" fill="white" stroke="#263238" stroke-miterlimit="10" stroke-linecap="round" stroke-linejoin="round"/>
<path d="M427.323 344.881C427.838 342.438 430.81 328.392 431.913 324.507C432.708 321.708 434.223 318.835 435.33 316.737C435.903 315.651 436.355 314.794 436.528 314.275C436.706 313.742 436.975 313.024 437.241 312.337C437.1 314.022 436.782 316.239 436.07 317.635C434.453 320.804 432.4 324.971 431.798 326.826C431.377 328.123 430.257 333.015 429.357 336.945C428.872 339.062 428.453 340.89 428.232 341.774C427.832 343.375 427.698 344.407 427.655 344.971L427.323 344.881Z" fill="#E06330"/>
<g opacity="0.25">
<path d="M432.5 322.74C432.431 322.925 432.363 323.111 432.298 323.296L433.173 323.535C433.255 323.357 433.34 323.176 433.426 322.993L432.5 322.74Z" fill="black"/>
<path d="M431.754 326.968L431.337 326.738C431.29 326.93 431.242 327.128 431.193 327.332L431.589 327.55C431.65 327.323 431.705 327.127 431.754 326.968Z" fill="black"/>
<path d="M436.542 314.234L436.987 314.442C437.02 314.238 437.05 314.035 437.078 313.833L436.738 313.674C436.665 313.874 436.599 314.063 436.542 314.234Z" fill="black"/>
<path d="M436.336 317.029C436.405 316.85 436.469 316.663 436.529 316.47L435.665 316.1C435.577 316.268 435.486 316.442 435.39 316.624L436.336 317.029Z" fill="black"/>
<path d="M433.771 319.793L434.746 320.266C434.833 320.089 434.921 319.913 435.009 319.738L434.029 319.263C433.943 319.438 433.857 319.615 433.771 319.793Z" fill="black"/>
</g>
<path d="M427.552 345.057C427.605 344.685 430.898 334.171 432.438 330.613C433.978 327.055 437.802 322.435 437.855 322.276C437.908 322.117 437.112 326.365 436.368 327.799C435.625 329.233 433.607 332.631 432.173 335.924C430.739 339.216 429.146 344.367 429.093 344.686C429.04 345.005 429.252 345.483 429.252 345.483L427.552 345.057Z" fill="#263238" stroke="#263238" stroke-miterlimit="10" stroke-linecap="round" stroke-linejoin="round"/>
<path d="M421.816 308.681C421.816 308.681 421.812 308.814 421.808 309.049C421.778 310.592 421.709 316.534 422.4 318.239C423.197 320.204 423.356 321.425 424.152 324.665C424.949 327.904 425.055 337.463 425.161 338.313C425.267 339.163 426.701 345.535 426.701 345.535H428.56C428.56 345.535 426.648 325.887 425.799 322.806C424.949 319.726 423.462 314.416 423.038 312.876C422.613 311.336 421.816 308.681 421.816 308.681Z" fill="white" stroke="#263238" stroke-miterlimit="10" stroke-linecap="round" stroke-linejoin="round"/>
<path d="M427.016 345.142C426.507 342.872 425.631 338.892 425.552 338.264C425.528 338.069 425.5 337.268 425.464 336.255C425.351 333.034 425.141 327.037 424.535 324.57C424.323 323.708 424.157 322.993 424.011 322.361C423.606 320.614 423.361 319.56 422.765 318.091C422.353 317.073 422.197 314.211 422.184 311.313C422.355 311.902 422.526 312.498 422.659 312.98C422.836 313.621 423.196 314.914 423.618 316.427C424.21 318.552 424.924 321.111 425.42 322.91C426.182 325.671 427.84 342.242 428.127 345.141H427.016V345.142Z" fill="#E06330"/>
<g opacity="0.33">
<path d="M424.236 318.645L423.124 319.047C423.189 319.236 423.25 319.422 423.308 319.608L424.395 319.215C424.342 319.025 424.289 318.835 424.236 318.645Z" fill="black"/>
<path d="M422.282 314.763L423.079 314.491C423.023 314.289 422.97 314.098 422.921 313.922L422.251 314.151C422.259 314.359 422.27 314.564 422.282 314.763Z" fill="black"/>
<path d="M423.737 316.853C423.697 316.709 423.657 316.567 423.618 316.427C423.604 316.376 423.59 316.325 423.575 316.274L422.474 316.819C422.506 317.04 422.54 317.243 422.578 317.426L423.737 316.853Z" fill="black"/>
<path d="M425.787 324.81L424.64 325.052C424.675 325.234 424.709 325.428 424.742 325.633L425.877 325.393C425.846 325.19 425.816 324.995 425.787 324.81Z" fill="black"/>
<path d="M425.303 322.487C425.251 322.298 425.197 322.103 425.141 321.902L424.045 322.511C424.089 322.702 424.135 322.9 424.184 323.109L425.303 322.487Z" fill="black"/>
</g>
<path d="M425.938 345.535C425.938 345.535 425.056 331.303 425.056 327.111C425.056 322.919 428.171 317.237 428.641 316.409C429.111 315.582 431.109 311.389 431.109 311.389C431.109 311.389 429.463 319.277 428.641 322.367C427.818 325.456 427.583 330.2 427.23 332.793C426.877 335.386 426.76 341.564 426.76 343.053C426.76 344.542 426.701 345.535 426.701 345.535H425.938Z" fill="white" stroke="#263238" stroke-miterlimit="10" stroke-linecap="round" stroke-linejoin="round"/>
<path d="M426.307 345.142C426.169 342.877 425.449 330.867 425.449 327.111C425.449 322.942 428.621 317.24 428.983 316.604C429.173 316.27 429.599 315.414 430.046 314.5C429.496 317.05 428.737 320.481 428.261 322.266C427.68 324.446 427.385 327.469 427.148 329.898C427.045 330.957 426.947 331.958 426.841 332.739C426.486 335.351 426.367 341.606 426.367 343.052C426.367 343.984 426.343 344.725 426.326 345.141H426.307V345.142Z" fill="#E06330"/>
<g opacity="0.25">
<path d="M426.645 321.643C426.575 321.831 426.507 322.022 426.441 322.214C426.971 322.273 427.438 322.336 427.623 322.389C427.748 322.425 427.944 322.515 428.169 322.632C428.199 322.508 428.23 322.385 428.262 322.265C428.28 322.196 428.3 322.121 428.319 322.047C428.11 321.943 427.921 321.86 427.786 321.821C427.581 321.763 427.139 321.701 426.645 321.643Z" fill="black"/>
<path d="M426.76 333.437L425.652 333.196C425.661 333.398 425.671 333.601 425.681 333.806L426.705 334.029C426.723 333.822 426.741 333.624 426.76 333.437Z" fill="black"/>
<path d="M425.451 327.452C425.453 327.642 425.456 327.849 425.46 328.07C425.856 327.932 426.16 327.84 426.254 327.839C426.355 327.853 426.776 327.987 427.321 328.172C427.342 327.973 427.363 327.772 427.385 327.571C426.87 327.399 426.449 327.267 426.32 327.253C426.175 327.238 425.846 327.323 425.451 327.452Z" fill="black"/>
<path d="M426.211 324.857C426.391 324.881 426.969 325.106 427.657 325.395C427.686 325.193 427.717 324.992 427.748 324.793C427.099 324.523 426.518 324.303 426.289 324.272C426.176 324.257 426.017 324.257 425.831 324.268C425.783 324.468 425.739 324.668 425.699 324.868C425.924 324.848 426.106 324.842 426.211 324.857Z" fill="black"/>
<path d="M428.426 317.638L429.28 317.985C429.324 317.791 429.367 317.596 429.41 317.401L428.702 317.113C428.622 317.263 428.529 317.438 428.426 317.638Z" fill="black"/>
<path d="M427.76 318.993C427.676 319.172 427.591 319.358 427.505 319.55L428.874 319.765C428.918 319.576 428.962 319.384 429.007 319.189L427.76 318.993Z" fill="black"/>
<path d="M425.541 330.635C425.549 330.83 425.557 331.028 425.565 331.23C425.977 331.289 426.463 331.371 426.991 331.467C427.011 331.276 427.031 331.079 427.052 330.878C426.525 330.782 426.002 330.696 425.541 330.635Z" fill="black"/>
</g>
<path d="M424.737 345.429C424.737 345.429 422.507 337.888 422.029 335.605C421.551 333.322 421.976 326.577 421.87 325.356C421.764 324.135 420.861 320.736 420.861 320.736C420.861 320.736 422.454 323.338 423.038 324.506C423.622 325.674 425.322 330.082 425.534 332.418C425.746 334.755 425.481 336.613 425.534 337.888C425.587 339.163 426.118 345.429 426.118 345.429H424.737Z" fill="white" stroke="#263238" stroke-miterlimit="10" stroke-linecap="round" stroke-linejoin="round"/>
<path d="M425.031 345.035C424.622 343.645 422.831 337.516 422.414 335.523C422.106 334.049 422.186 330.595 422.245 328.074C422.275 326.776 422.299 325.751 422.262 325.32C422.219 324.829 422.057 324.016 421.874 323.204C422.193 323.757 422.497 324.299 422.687 324.681C423.237 325.78 424.935 330.159 425.143 332.453C425.274 333.898 425.219 335.185 425.173 336.219C425.145 336.861 425.121 337.415 425.142 337.903C425.187 338.992 425.57 343.591 425.691 345.034H425.031V345.035Z" fill="#E06330"/>
<g opacity="0.25">
<path d="M423.807 327.451C423.739 327.262 423.671 327.077 423.604 326.897L422.261 327.347C422.257 327.547 422.252 327.756 422.247 327.974L423.807 327.451Z" fill="black"/>
<path d="M424.28 328.839L422.22 329.137C422.216 329.334 422.212 329.533 422.208 329.735L424.458 329.409C424.401 329.219 424.341 329.028 424.28 328.839Z" fill="black"/>
<path d="M423.325 326.17C423.248 325.975 423.173 325.79 423.103 325.62L422.28 325.851C422.281 326.029 422.28 326.235 422.277 326.464L423.325 326.17Z" fill="black"/>
<path d="M425.141 337.904C425.135 337.763 425.134 337.615 425.134 337.463L422.913 337.547C422.963 337.736 423.015 337.931 423.069 338.131L425.148 338.052C425.145 337.999 425.143 337.948 425.141 337.904Z" fill="black"/>
<path d="M425.237 339.389H423.413C423.467 339.585 423.522 339.782 423.577 339.979H425.28C425.266 339.774 425.251 339.577 425.237 339.389Z" fill="black"/>
<path d="M425.213 333.672L422.243 333.988C422.255 334.195 422.269 334.391 422.285 334.577L425.222 334.265C425.222 334.071 425.219 333.874 425.213 333.672Z" fill="black"/>
<path d="M425.107 332.153C425.082 331.968 425.05 331.772 425.011 331.568L422.19 331.746C422.19 331.945 422.191 332.143 422.193 332.337L425.107 332.153Z" fill="black"/>
</g>
<path d="M424.631 344.791C424.631 344.791 423.516 337.569 422.029 335.604C420.542 333.639 415.072 328.807 414.647 328.169C414.222 327.532 414.222 327.532 414.222 327.532C414.222 327.532 416.771 333.373 418.47 335.285C420.169 337.197 420.116 337.675 421.603 340.064C423.09 342.454 423.727 344.843 423.727 344.843L423.833 345.268L424.736 345.427L424.631 344.791Z" fill="white" stroke="#263238" stroke-miterlimit="10" stroke-linecap="round" stroke-linejoin="round"/>
<path d="M424.154 344.926L424.11 344.749C424.082 344.643 423.439 342.269 421.938 339.857C421.447 339.069 421.131 338.5 420.852 337.998C420.295 336.995 419.926 336.331 418.765 335.025C417.827 333.969 416.6 331.633 415.718 329.818C415.995 330.083 416.314 330.386 416.677 330.731C418.431 332.396 420.834 334.677 421.716 335.842C423.126 337.705 424.232 344.781 424.243 344.852L424.259 344.945L424.154 344.926Z" fill="#E06330"/>
<g opacity="0.25">
<path d="M420.409 334.373L418.923 335.206C419.064 335.368 419.194 335.52 419.312 335.664L420.828 334.814C420.696 334.673 420.555 334.524 420.409 334.373Z" fill="black"/>
<path d="M416.701 330.753L416.32 331.026C416.41 331.202 416.501 331.378 416.594 331.555L417.136 331.167C416.988 331.026 416.842 330.887 416.701 330.753Z" fill="black"/>
<path d="M418.894 332.855C418.752 332.717 418.61 332.579 418.467 332.441L417.511 333.207C417.614 333.381 417.718 333.552 417.82 333.715L418.894 332.855Z" fill="black"/>
<path d="M423.253 339.966L422.251 340.382C422.351 340.556 422.447 340.73 422.539 340.901L423.394 340.546C423.349 340.353 423.302 340.16 423.253 339.966Z" fill="black"/>
<path d="M422.264 336.845L420.691 337.708C420.744 337.802 420.797 337.898 420.853 337.998C420.894 338.071 420.936 338.147 420.978 338.224L422.485 337.398C422.413 337.203 422.339 337.019 422.264 336.845Z" fill="black"/>
</g>
<path d="M430.26 345.694C430.26 345.694 433.499 338.047 433.977 335.02C434.455 331.993 434.561 327.904 434.667 326.683C434.773 325.462 435.092 324.293 435.357 323.762C435.623 323.231 436.366 321.213 436.366 321.213C436.366 321.213 433.658 325.249 432.755 327.267C431.852 329.285 430.312 333.162 429.781 336.135C429.25 339.109 429.25 345.481 429.25 345.481L430.26 345.694Z" fill="white" stroke="#263238" stroke-miterlimit="10" stroke-linecap="round" stroke-linejoin="round"/>
<path d="M429.646 345.163C429.655 343.839 429.718 338.733 430.17 336.205C430.79 332.733 432.733 328.284 433.115 327.428C433.443 326.696 434.02 325.682 434.616 324.696C434.468 325.252 434.339 325.93 434.276 326.649C434.247 326.978 434.219 327.499 434.184 328.158C434.086 329.987 433.937 332.752 433.589 334.96C433.177 337.57 430.621 343.806 430.023 345.243L429.646 345.163Z" fill="#E06330"/>
<g opacity="0.25">
<path d="M431.813 340.708C431.882 340.523 431.951 340.337 432.019 340.15C431.622 340.058 431.242 339.974 430.927 339.912C430.574 339.843 430.189 339.785 429.811 339.737C429.799 339.934 429.789 340.131 429.779 340.328C430.133 340.373 430.49 340.427 430.814 340.491C431.103 340.548 431.45 340.624 431.813 340.708Z" fill="black"/>
<path d="M433.586 334.973L430.556 334.484C430.505 334.676 430.457 334.868 430.411 335.058L433.472 335.552C433.52 335.345 433.558 335.15 433.586 334.973Z" fill="black"/>
<path d="M433.44 326.762C433.716 326.8 433.988 326.844 434.241 326.893C434.246 326.894 434.252 326.895 434.257 326.896C434.263 326.805 434.27 326.722 434.276 326.65C434.286 326.534 434.299 326.42 434.312 326.306C434.127 326.27 433.933 326.238 433.737 326.208C433.631 326.4 433.532 326.585 433.44 326.762Z" fill="black"/>
<path d="M429.993 337.483C429.972 337.674 429.953 337.871 429.934 338.072L432.583 338.557C432.648 338.367 432.711 338.178 432.772 337.992L429.993 337.483Z" fill="black"/>
<path d="M433.317 328.551C433.106 328.505 432.894 328.461 432.687 328.417C432.616 328.587 432.539 328.772 432.457 328.972C432.698 329.022 432.945 329.075 433.193 329.128C433.486 329.191 433.8 329.266 434.119 329.348C434.131 329.141 434.142 328.942 434.153 328.748C433.865 328.676 433.583 328.608 433.317 328.551Z" fill="black"/>
<path d="M431.285 332.09L433.876 332.616C433.895 332.419 433.913 332.222 433.93 332.025L431.48 331.528C431.415 331.712 431.35 331.9 431.285 332.09Z" fill="black"/>
<path d="M429.889 342.15C429.828 342.137 429.766 342.124 429.705 342.111C429.698 342.316 429.692 342.516 429.687 342.71C429.713 342.715 429.739 342.721 429.764 342.727C430.13 342.806 430.529 342.905 430.927 343.01C430.998 342.832 431.07 342.647 431.144 342.458C430.716 342.343 430.285 342.236 429.889 342.15Z" fill="black"/>
</g>
<path d="M426.118 345.8C426.118 345.8 425.799 338.047 426.968 333.905C428.137 329.763 429.198 327.639 429.729 326.364C430.26 325.089 432.225 322.806 432.225 322.806C432.225 322.806 430.951 326.045 430.951 327.373C430.951 328.701 431.482 329.763 430.792 333.852C430.102 337.941 428.827 340.224 428.721 340.968C428.615 341.711 427.553 345.535 427.553 345.535L426.118 345.8Z" fill="white" stroke="#263238" stroke-miterlimit="10" stroke-linecap="round" stroke-linejoin="round"/>
<path d="M426.497 345.33C426.452 343.618 426.369 337.476 427.346 334.011C428.308 330.6 429.19 328.585 429.774 327.251C429.894 326.977 430.001 326.733 430.092 326.514C430.28 326.063 430.666 325.467 431.077 324.898C430.8 325.795 430.557 326.76 430.557 327.372C430.557 327.745 430.596 328.099 430.638 328.474C430.755 329.524 430.901 330.832 430.403 333.785C429.934 336.564 429.185 338.513 428.738 339.678C428.516 340.255 428.37 340.636 428.33 340.911C428.252 341.46 427.567 343.996 427.238 345.192L426.497 345.33Z" fill="#E06330"/>
<path opacity="0.25" d="M428.615 335.257C428.595 335.251 428.575 335.247 428.554 335.246L427.082 335.13C427.044 335.32 427.009 335.515 426.976 335.713L428.476 335.831C428.954 335.973 429.455 336.126 429.869 336.257C429.918 336.071 429.967 335.881 430.014 335.683C429.671 335.575 429.218 335.436 428.615 335.257Z" fill="black"/>
<path opacity="0.25" d="M429.243 338.312C428.363 338.33 427.254 338.359 426.933 338.402C426.868 338.411 426.771 338.426 426.653 338.445C426.637 338.647 426.622 338.849 426.608 339.051C426.784 339.021 426.926 338.999 427.011 338.987C427.268 338.953 428.177 338.925 429.03 338.907C429.099 338.721 429.17 338.523 429.243 338.312Z" fill="black"/>
<path opacity="0.25" d="M426.488 341.894C427.046 341.943 427.595 341.992 428.076 342.037C428.129 341.824 428.177 341.628 428.217 341.458C427.747 341.413 427.177 341.362 426.503 341.303C426.497 341.503 426.492 341.701 426.488 341.894Z" fill="black"/>
<path opacity="0.25" d="M430.535 332.935C430.325 332.904 430.112 332.871 429.911 332.84C429.137 332.721 428.348 332.601 427.782 332.539C427.724 332.725 427.666 332.917 427.607 333.113C428.164 333.169 429.033 333.302 429.821 333.423C430.037 333.456 430.246 333.488 430.446 333.518C430.479 333.316 430.509 333.122 430.535 332.935Z" fill="black"/>
<path opacity="0.25" d="M429.132 330.541C428.908 330.487 428.684 330.476 428.466 330.494C428.394 330.696 428.32 330.904 428.245 331.121C428.489 331.068 428.744 331.054 428.993 331.114C429.488 331.234 430.121 331.483 430.678 331.725C430.698 331.506 430.714 331.297 430.726 331.103C430.194 330.878 429.611 330.657 429.132 330.541Z" fill="black"/>
<path opacity="0.25" d="M430.374 328.784C430.47 328.784 430.571 328.793 430.675 328.806C430.663 328.692 430.651 328.582 430.639 328.475C430.629 328.385 430.619 328.296 430.61 328.208C430.53 328.201 430.451 328.194 430.374 328.194C430.073 328.194 429.697 328.236 429.325 328.292C429.24 328.493 429.152 328.707 429.061 328.933C429.514 328.854 430.013 328.784 430.374 328.784Z" fill="black"/>
<path opacity="0.25" d="M429.802 327.189C430.079 327.175 430.342 327.184 430.473 327.239C430.501 327.251 430.531 327.262 430.562 327.274C430.569 327.095 430.593 326.892 430.631 326.671C430.47 326.619 430.268 326.597 430.06 326.593C429.983 326.774 429.897 326.971 429.802 327.189Z" fill="black"/>
<path d="M427.021 345.747C427.021 345.747 427.127 340.702 426.596 338.897C426.065 337.092 425.162 335.87 424.525 334.171C423.888 332.472 422.082 329.923 422.082 329.923C422.082 329.923 423.25 332.684 423.41 333.534C423.569 334.384 423.941 335.658 423.941 336.083C423.941 336.508 423.622 338.526 424.26 340.013C424.897 341.5 425.375 343.199 425.428 343.943C425.481 344.686 425.481 345.642 425.481 345.642L427.021 345.747Z" fill="white" stroke="#263238" stroke-miterlimit="10" stroke-linecap="round" stroke-linejoin="round"/>
<path d="M425.871 345.274C425.866 344.924 425.853 344.382 425.82 343.914C425.759 343.067 425.233 341.285 424.621 339.857C424.133 338.718 424.253 337.199 424.311 336.469C424.325 336.296 424.334 336.172 424.334 336.082C424.334 335.779 424.2 335.22 424.045 334.573C423.958 334.207 423.867 333.829 423.806 333.511C423.943 333.789 424.063 334.059 424.157 334.308C424.44 335.062 424.774 335.725 425.097 336.367C425.524 337.215 425.927 338.016 426.219 339.008C426.64 340.44 426.645 344.094 426.633 345.326L425.871 345.274Z" fill="#E06330"/>
<g opacity="0.25">
<path d="M424.045 334.574C424.084 334.735 424.121 334.891 424.155 335.039L424.436 334.99C424.357 334.809 424.28 334.623 424.205 334.431L424.018 334.464C424.028 334.5 424.037 334.537 424.045 334.574Z" fill="black"/>
<path d="M424.255 337.593L425.587 337.367C425.501 337.181 425.411 336.997 425.32 336.814L424.274 336.991C424.264 337.175 424.256 337.378 424.255 337.593Z" fill="black"/>
<path d="M426.219 339.008C426.208 338.972 426.196 338.937 426.185 338.901L424.402 339.165C424.446 339.361 424.503 339.552 424.574 339.736L426.329 339.476C426.295 339.302 426.259 339.145 426.219 339.008Z" fill="black"/>
<path d="M426.565 341.759C426.554 341.559 426.542 341.361 426.528 341.166L425.208 341.408C425.272 341.599 425.332 341.789 425.389 341.975L426.565 341.759Z" fill="black"/>
</g>
<path d="M430.823 353.483H423.818L423.163 345.26H431.451L430.823 353.483Z" fill="white" stroke="#263238" stroke-miterlimit="10" stroke-linecap="round" stroke-linejoin="round"/>
<path d="M432.038 346.143H422.749L422.523 343.603H432.263L432.038 346.143Z" fill="white" stroke="#263238" stroke-miterlimit="10" stroke-linecap="round" stroke-linejoin="round"/>
<path d="M298.318 449.429H298.177C297.552 449.429 297.045 448.923 297.044 448.298L296.94 385.952H299.347L299.451 448.294C299.452 448.92 298.944 449.429 298.318 449.429Z" fill="white" stroke="#263238" stroke-miterlimit="10"/>
<path d="M315.42 385.952H280.867V397.47H315.42V385.952Z" fill="#263238" stroke="#263238" stroke-miterlimit="10"/>
<path d="M315.42 390.354H280.867V393.066H315.42V390.354Z" fill="white" stroke="#263238" stroke-miterlimit="10"/>
<path d="M282.149 449.447C281.523 449.447 281.016 448.94 281.016 448.314V438.579L294.719 425.318V420.964C294.719 420.338 295.226 419.831 295.852 419.831C296.478 419.831 296.985 420.338 296.985 420.964V426.279L283.282 439.54V448.315C283.282 448.94 282.775 449.447 282.149 449.447Z" fill="white" stroke="#263238" stroke-miterlimit="10"/>
<path d="M314.307 449.447C314.933 449.447 315.44 448.94 315.44 448.314V438.579L301.737 425.318V420.964C301.737 420.338 301.23 419.831 300.604 419.831C299.978 419.831 299.471 420.338 299.471 420.964V426.279L313.174 439.54V448.315C313.174 448.94 313.681 449.447 314.307 449.447Z" fill="white" stroke="#263238" stroke-miterlimit="10"/>
<path d="M315.824 439.001H280.362C279.877 439.001 279.484 438.608 279.484 438.123V437.89C279.484 437.405 279.877 437.012 280.362 437.012H315.824C316.309 437.012 316.702 437.405 316.702 437.89V438.123C316.702 438.608 316.309 439.001 315.824 439.001Z" fill="white" stroke="#263238" stroke-miterlimit="10"/>
<path d="M366.734 449.429H366.593C365.968 449.429 365.461 448.923 365.46 448.298L365.356 385.952H367.763L367.867 448.294C367.868 448.92 367.36 449.429 366.734 449.429Z" fill="white" stroke="#263238" stroke-miterlimit="10"/>
<path d="M383.836 385.952H349.283V397.47H383.836V385.952Z" fill="#263238" stroke="#263238" stroke-miterlimit="10"/>
<path d="M383.836 390.354H349.283V393.066H383.836V390.354Z" fill="white" stroke="#263238" stroke-miterlimit="10"/>
<path d="M350.565 449.447C349.939 449.447 349.432 448.94 349.432 448.314V438.579L363.135 425.318V420.964C363.135 420.338 363.642 419.831 364.268 419.831C364.894 419.831 365.401 420.338 365.401 420.964V426.279L351.698 439.54V448.315C351.698 448.94 351.191 449.447 350.565 449.447Z" fill="white" stroke="#263238" stroke-miterlimit="10"/>
<path d="M382.723 449.447C383.349 449.447 383.856 448.94 383.856 448.314V438.579L370.153 425.318V420.964C370.153 420.338 369.646 419.831 369.02 419.831C368.394 419.831 367.887 420.338 367.887 420.964V426.279L381.59 439.54V448.315C381.59 448.94 382.097 449.447 382.723 449.447Z" fill="white" stroke="#263238" stroke-miterlimit="10"/>
<path d="M384.24 439.001H348.778C348.293 439.001 347.9 438.608 347.9 438.123V437.89C347.9 437.405 348.293 437.012 348.778 437.012H384.24C384.725 437.012 385.118 437.405 385.118 437.89V438.123C385.118 438.608 384.725 439.001 384.24 439.001Z" fill="white" stroke="#263238" stroke-miterlimit="10"/>
<path d="M425.978 449.429H425.836C425.211 449.429 424.704 448.923 424.703 448.298L424.599 385.952H427.006L427.11 448.294C427.112 448.92 426.604 449.429 425.978 449.429Z" fill="white" stroke="#263238" stroke-miterlimit="10"/>
<path d="M443.08 385.952H408.527V397.47H443.08V385.952Z" fill="#263238" stroke="#263238" stroke-miterlimit="10"/>
<path d="M443.08 390.354H408.527V393.066H443.08V390.354Z" fill="white" stroke="#263238" stroke-miterlimit="10"/>
<path d="M409.809 449.447C409.183 449.447 408.676 448.94 408.676 448.314V438.579L422.379 425.318V420.964C422.379 420.338 422.886 419.831 423.512 419.831C424.138 419.831 424.645 420.338 424.645 420.964V426.279L410.942 439.54V448.315C410.942 448.94 410.435 449.447 409.809 449.447Z" fill="white" stroke="#263238" stroke-miterlimit="10"/>
<path d="M441.967 449.447C442.593 449.447 443.1 448.94 443.1 448.314V438.579L429.397 425.318V420.964C429.397 420.338 428.89 419.831 428.264 419.831C427.638 419.831 427.131 420.338 427.131 420.964V426.279L440.834 439.54V448.315C440.834 448.94 441.341 449.447 441.967 449.447Z" fill="white" stroke="#263238" stroke-miterlimit="10"/>
<path d="M443.484 439.001H408.022C407.537 439.001 407.144 438.608 407.144 438.123V437.89C407.144 437.405 407.537 437.012 408.022 437.012H443.484C443.969 437.012 444.362 437.405 444.362 437.89V438.123C444.362 438.608 443.969 439.001 443.484 439.001Z" fill="white" stroke="#263238" stroke-miterlimit="10"/>
<path d="M61.8612 449.429H61.7202C61.0952 449.429 60.5882 448.923 60.5872 448.298L60.4832 385.952H62.8902L62.9942 448.294C62.9952 448.92 62.4872 449.429 61.8612 449.429Z" fill="white" stroke="#263238" stroke-miterlimit="10"/>
<path d="M78.9632 385.952H44.4102V397.47H78.9632V385.952Z" fill="#263238" stroke="#263238" stroke-miterlimit="10"/>
<path d="M78.9632 390.354H44.4102V393.066H78.9632V390.354Z" fill="white" stroke="#263238" stroke-miterlimit="10"/>
<path d="M45.6921 449.447C45.0661 449.447 44.5591 448.94 44.5591 448.314V438.579L58.2621 425.318V420.964C58.2621 420.338 58.7691 419.831 59.3951 419.831C60.0211 419.831 60.5281 420.338 60.5281 420.964V426.279L46.8251 439.54V448.315C46.8251 448.94 46.3181 449.447 45.6921 449.447Z" fill="white" stroke="#263238" stroke-miterlimit="10"/>
<path d="M77.8502 449.447C78.4762 449.447 78.9832 448.94 78.9832 448.314V438.579L65.2802 425.318V420.964C65.2802 420.338 64.7732 419.831 64.1472 419.831C63.5212 419.831 63.0142 420.338 63.0142 420.964V426.279L76.7172 439.54V448.315C76.7172 448.94 77.2242 449.447 77.8502 449.447Z" fill="white" stroke="#263238" stroke-miterlimit="10"/>
<path d="M79.3681 439.001H43.9061C43.4211 439.001 43.0281 438.608 43.0281 438.123V437.89C43.0281 437.405 43.4211 437.012 43.9061 437.012H79.3681C79.8531 437.012 80.2461 437.405 80.2461 437.89V438.123C80.2451 438.608 79.8521 439.001 79.3681 439.001Z" fill="white" stroke="#263238" stroke-miterlimit="10"/>
<path d="M130.277 449.429H130.136C129.511 449.429 129.004 448.923 129.003 448.298L128.899 385.952H131.306L131.41 448.294C131.411 448.92 130.903 449.429 130.277 449.429Z" fill="white" stroke="#263238" stroke-miterlimit="10"/>
<path d="M147.379 385.952H112.826V397.47H147.379V385.952Z" fill="#263238" stroke="#263238" stroke-miterlimit="10"/>
<path d="M147.379 390.354H112.826V393.066H147.379V390.354Z" fill="white" stroke="#263238" stroke-miterlimit="10"/>
<path d="M114.108 449.447C113.482 449.447 112.975 448.94 112.975 448.314V438.579L126.678 425.318V420.964C126.678 420.338 127.185 419.831 127.811 419.831C128.437 419.831 128.944 420.338 128.944 420.964V426.279L115.241 439.54V448.315C115.241 448.94 114.734 449.447 114.108 449.447Z" fill="white" stroke="#263238" stroke-miterlimit="10"/>
<path d="M146.266 449.447C146.892 449.447 147.399 448.94 147.399 448.314V438.579L133.696 425.318V420.964C133.696 420.338 133.189 419.831 132.563 419.831C131.937 419.831 131.43 420.338 131.43 420.964V426.279L145.133 439.54V448.315C145.133 448.94 145.64 449.447 146.266 449.447Z" fill="white" stroke="#263238" stroke-miterlimit="10"/>
<path d="M147.784 439.001H112.322C111.837 439.001 111.444 438.608 111.444 438.123V437.89C111.444 437.405 111.837 437.012 112.322 437.012H147.784C148.269 437.012 148.662 437.405 148.662 437.89V438.123C148.662 438.608 148.268 439.001 147.784 439.001Z" fill="white" stroke="#263238" stroke-miterlimit="10"/>
<path d="M189.521 449.429H189.38C188.755 449.429 188.248 448.923 188.247 448.298L188.143 385.952H190.55L190.654 448.294C190.655 448.92 190.147 449.429 189.521 449.429Z" fill="white" stroke="#263238" stroke-miterlimit="10"/>
<path d="M206.623 385.952H172.07V397.47H206.623V385.952Z" fill="#263238" stroke="#263238" stroke-miterlimit="10"/>
<path d="M206.623 390.354H172.07V393.066H206.623V390.354Z" fill="white" stroke="#263238" stroke-miterlimit="10"/>
<path d="M173.352 449.447C172.726 449.447 172.219 448.94 172.219 448.314V438.579L185.922 425.318V420.964C185.922 420.338 186.429 419.831 187.055 419.831C187.681 419.831 188.188 420.338 188.188 420.964V426.279L174.485 439.54V448.315C174.485 448.94 173.978 449.447 173.352 449.447Z" fill="white" stroke="#263238" stroke-miterlimit="10"/>
<path d="M205.51 449.447C206.136 449.447 206.643 448.94 206.643 448.314V438.579L192.94 425.318V420.964C192.94 420.338 192.433 419.831 191.807 419.831C191.181 419.831 190.674 420.338 190.674 420.964V426.279L204.377 439.54V448.315C204.377 448.94 204.884 449.447 205.51 449.447Z" fill="white" stroke="#263238" stroke-miterlimit="10"/>
<path d="M207.028 439.001H171.566C171.081 439.001 170.688 438.608 170.688 438.123V437.89C170.688 437.405 171.081 437.012 171.566 437.012H207.028C207.513 437.012 207.906 437.405 207.906 437.89V438.123C207.906 438.608 207.513 439.001 207.028 439.001Z" fill="white" stroke="#263238" stroke-miterlimit="10"/>
<path d="M480.76 449.447H489.275" stroke="#263238" stroke-miterlimit="10"/>
<path d="M12.071 449.447H474.678" stroke="#263238" stroke-miterlimit="10"/>
</svg>
