<svg width="500" height="500" viewBox="0 0 500 500" fill="none" xmlns="http://www.w3.org/2000/svg">
<path d="M342.109 42.7022C342.109 42.7022 265.122 15.3272 189.55 58.9102C113.978 102.494 75.8461 189.012 43.1011 258.316C10.3561 327.62 29.2041 398.115 86.8931 430.259C144.582 462.402 183.809 415.019 264.738 412.711C345.667 410.404 367.433 421.974 434.587 376.256C501.742 330.539 513.881 222.568 460.907 142.678C407.932 62.7882 342.109 42.7022 342.109 42.7022Z" fill="#E06330"/>
<path opacity="0.7" d="M342.109 42.7022C342.109 42.7022 265.122 15.3272 189.55 58.9102C113.978 102.494 75.8461 189.012 43.1011 258.316C10.3561 327.62 29.2041 398.115 86.8931 430.259C144.582 462.402 183.809 415.019 264.738 412.711C345.667 410.404 367.433 421.974 434.587 376.256C501.742 330.539 513.881 222.568 460.907 142.678C407.932 62.7882 342.109 42.7022 342.109 42.7022Z" fill="white"/>
<path d="M138 31V173H385V31H138ZM376.303 165H146.697V39H376.303V165Z" fill="#B2B2B2" stroke="#B2B2B2" stroke-miterlimit="10" stroke-linecap="round" stroke-linejoin="round"/>
<path d="M146.523 95.003C146.523 95.003 222.252 55.897 227.839 65.829C233.426 75.761 194.94 101.211 211.079 110.522C227.218 119.833 313.5 41 329.018 59.622C344.536 78.244 301.085 127.903 314.741 133.489C328.397 139.076 357.572 111.763 363.779 118.591C369.986 125.419 353.847 152.731 360.675 156.456C367.503 160.18 375.573 153.352 375.573 153.352" stroke="#B2B2B2" stroke-miterlimit="10" stroke-linecap="round" stroke-linejoin="round"/>
<path d="M277.043 64.1075C279.185 55.102 273.621 46.0653 264.615 43.9234C255.61 41.7815 246.573 47.3455 244.431 56.3509C242.289 65.3564 247.853 74.3931 256.859 76.535C265.864 78.6769 274.901 73.1129 277.043 64.1075Z" stroke="#B2B2B2" stroke-miterlimit="10" stroke-linecap="round" stroke-linejoin="round"/>
<path d="M181.029 55.2987C182.245 50.126 179.037 44.9472 173.864 43.7314C168.691 42.5157 163.512 45.7235 162.297 50.8962C161.081 56.0689 164.289 61.2478 169.462 62.4635C174.634 63.6792 179.813 60.4715 181.029 55.2987Z" stroke="#B2B2B2" stroke-miterlimit="10" stroke-linecap="round" stroke-linejoin="round"/>
<path d="M202.389 122.315C202.389 124.715 200.444 126.66 198.044 126.66C195.644 126.66 193.699 124.715 193.699 122.315C193.699 119.915 195.644 117.97 198.044 117.97C200.444 117.97 202.389 119.915 202.389 122.315Z" stroke="#B2B2B2" stroke-miterlimit="10" stroke-linecap="round" stroke-linejoin="round"/>
<path d="M356.952 69.8631C356.952 72.0911 355.146 73.8981 352.917 73.8981C350.689 73.8981 348.882 72.0921 348.882 69.8631C348.882 67.6351 350.688 65.8281 352.917 65.8281C355.145 65.8281 356.952 67.6341 356.952 69.8631Z" stroke="#B2B2B2" stroke-miterlimit="10" stroke-linecap="round" stroke-linejoin="round"/>
<path d="M295.447 157.791C300.989 155.078 303.283 148.386 300.571 142.844C297.858 137.301 291.166 135.007 285.623 137.72C280.081 140.432 277.787 147.124 280.5 152.667C283.212 158.209 289.904 160.504 295.447 157.791Z" stroke="#B2B2B2" stroke-miterlimit="10" stroke-linecap="round" stroke-linejoin="round"/>
<path d="M28.8101 248H474.81" stroke="#B2B2B2" stroke-miterlimit="10" stroke-linecap="round" stroke-linejoin="round"/>
<path d="M46.3052 261.368H474.81" stroke="#B2B2B2" stroke-miterlimit="10" stroke-linecap="round" stroke-linejoin="round"/>
<path d="M28.8101 261.368H37.6251" stroke="#B2B2B2" stroke-miterlimit="10" stroke-linecap="round" stroke-linejoin="round"/>
<path d="M467.7 284.534H328.578C328.578 289.086 324.653 292.777 319.81 292.777V440.349C324.652 440.349 328.578 444.04 328.578 448.592C328.578 449.073 328.525 449.542 328.441 450H465.901" stroke="#B2B2B2" stroke-miterlimit="10" stroke-linecap="round" stroke-linejoin="round"/>
<path d="M30.5452 284.534H78.6302C78.6302 289.086 82.4402 292.777 87.1402 292.777V440.349C82.4402 440.349 78.6302 444.04 78.6302 448.592C78.6302 449.073 78.6812 449.542 78.7632 450H38.3412" stroke="#B2B2B2" stroke-miterlimit="10" stroke-linecap="round" stroke-linejoin="round"/>
<path d="M295.224 284.534H247.85H156.101H108.3C108.3 289.086 104.362 292.777 99.5051 292.777V440.349C104.362 440.349 108.3 444.04 108.3 448.592C108.3 449.073 108.247 449.542 108.163 450H157.9H246.045H295.36C295.276 449.542 295.223 449.073 295.223 448.592C295.223 444.04 299.149 440.349 303.991 440.349V292.777C299.15 292.777 295.224 289.086 295.224 284.534Z" stroke="#B2B2B2" stroke-miterlimit="10" stroke-linecap="round" stroke-linejoin="round"/>
<path d="M459.81 111.411C471.776 111.411 481.477 101.711 481.477 89.7441C481.477 77.7778 471.776 68.0771 459.81 68.0771C447.844 68.0771 438.143 77.7778 438.143 89.7441C438.143 101.711 447.844 111.411 459.81 111.411Z" fill="white" stroke="#B2B2B2" stroke-miterlimit="10" stroke-linecap="round" stroke-linejoin="round"/>
<path d="M439.986 81.0011H479.634C476.273 73.3911 468.664 68.0771 459.81 68.0771C450.956 68.0771 443.347 73.3911 439.986 81.0011Z" fill="#636363" stroke="#636363" stroke-miterlimit="10" stroke-linecap="round" stroke-linejoin="round"/>
<path d="M460.014 64.018V22" stroke="#636363" stroke-width="2" stroke-miterlimit="10" stroke-linecap="round" stroke-linejoin="round"/>
<path d="M462.09 61.9951H457.529V69.5971H462.09V61.9951Z" fill="#636363" stroke="#636363" stroke-miterlimit="10" stroke-linecap="round" stroke-linejoin="round"/>
<path d="M51.8101 111.411C63.7764 111.411 73.4771 101.711 73.4771 89.7441C73.4771 77.7778 63.7764 68.0771 51.8101 68.0771C39.8437 68.0771 30.1431 77.7778 30.1431 89.7441C30.1431 101.711 39.8437 111.411 51.8101 111.411Z" fill="white" stroke="#B2B2B2" stroke-miterlimit="10" stroke-linecap="round" stroke-linejoin="round"/>
<path d="M31.9861 81.0011H71.6341C68.2731 73.3911 60.6641 68.0771 51.8101 68.0771C42.9561 68.0771 35.3471 73.3911 31.9861 81.0011Z" fill="#636363" stroke="#636363" stroke-miterlimit="10" stroke-linecap="round" stroke-linejoin="round"/>
<path d="M52.0142 64.018V22" stroke="#636363" stroke-width="2" stroke-miterlimit="10" stroke-linecap="round" stroke-linejoin="round"/>
<path d="M54.0901 61.9951H49.5291V69.5971H54.0901V61.9951Z" fill="#636363" stroke="#636363" stroke-miterlimit="10" stroke-linecap="round" stroke-linejoin="round"/>
<path d="M418.43 232.991C418.43 232.991 418.955 298.552 418.955 315.86C418.955 333.168 418.43 436.866 418.43 436.866" stroke="#263238" stroke-width="3" stroke-miterlimit="10" stroke-linecap="round" stroke-linejoin="round"/>
<path d="M457.766 249.775L441.507 236.138L487.138 241.383L446.752 228.27L488.187 220.928H441.507L477.697 193.654L436.787 214.109L460.389 173.723L428.919 209.913L439.934 156.94L419.479 206.242L417.381 151.17L413.185 207.291L390.866 157.712L406.366 212.011L372.983 175.595L402.171 220.403L360.849 190.923L399.548 228.27L355.739 204.334L395.877 231.417L359.571 226.688L394.828 236.662L366.597 241.377L395.877 240.334L378.568 251.872L419.479 240.858L457.766 249.775Z" fill="#E06330"/>
<path d="M457.766 392.775L441.507 379.138L487.138 384.383L446.752 371.27L488.187 363.928H441.507L477.697 336.654L436.787 357.109L460.389 316.723L428.919 352.913L439.934 299.94L419.479 349.242L417.381 294.17L413.185 350.291L390.866 300.712L406.366 355.011L372.983 318.595L402.171 363.403L360.849 333.923L399.548 371.27L355.739 347.334L395.877 374.417L359.571 369.688L394.828 379.662L366.597 384.377L395.877 383.334L378.568 394.872L419.479 383.858L457.766 392.775Z" fill="#E06330"/>
<path d="M402.695 299.077C402.695 299.077 401.122 312.714 402.17 317.959C403.219 323.204 403.743 329.498 403.743 336.316C403.743 343.134 404.268 372.112 404.268 376.833C404.268 381.553 403.743 421.657 403.743 425.328C403.743 428.999 403.743 431.622 403.743 433.72C403.743 435.818 403.743 437.916 403.743 437.916" stroke="#263238" stroke-width="3" stroke-miterlimit="10" stroke-linecap="round" stroke-linejoin="round"/>
<path d="M404.268 371.587C404.268 371.587 406.366 331.595 408.464 326.35C410.562 321.105 412.136 322.679 412.66 316.385C413.184 310.091 413.184 307.469 414.233 305.371C415.282 303.273 416.331 299.602 416.331 299.602L417.38 295.406" stroke="#263238" stroke-width="3" stroke-miterlimit="10" stroke-linecap="round" stroke-linejoin="round"/>
<path d="M441.507 312.713L425.248 299.077L470.879 304.322L430.493 291.209L471.928 283.866H425.248L461.438 256.593L420.528 277.048L444.13 236.662L412.66 272.852L423.675 219.879L403.219 269.181L401.122 214.109L396.926 270.23L380.666 219.354L390.107 274.95L361.26 233.515L385.911 283.342L348.076 258.621L383.289 291.209L344.243 275.226L379.617 294.356L342.966 291.192L378.568 299.601L353.823 305.242L379.617 303.273L362.309 314.811L403.219 303.797L441.507 312.713Z" fill="#E06330"/>
<path d="M388.328 423.054L377.1 441.766C375.376 444.639 374.893 448.089 375.762 451.324L380.751 469.911C381.478 472.618 383.931 474.5 386.734 474.5H437.87C440.673 474.5 443.127 472.618 443.853 469.911L448.842 451.324C449.711 448.088 449.228 444.638 447.504 441.766L436.277 423.053C435.511 421.776 434.131 420.995 432.642 420.995H391.964C390.474 420.996 389.094 421.777 388.328 423.054Z" fill="#263238" stroke="#263238" stroke-miterlimit="10" stroke-linejoin="round"/>
<path d="M354.315 157.502C354.315 157.502 354.561 146.435 355.299 144.714C356.037 142.993 358.004 140.287 359.48 139.795C360.956 139.303 364.89 138.074 366.12 137.336C367.35 136.598 372.268 131.68 372.268 131.68C372.268 131.68 376.203 130.696 376.449 131.926C376.695 133.156 370.793 138.566 370.793 138.566L373.252 139.55L386.286 139.796L393.91 132.172C393.91 132.172 396.615 130.451 396.369 132.172C396.123 133.894 388.745 143.485 388.007 143.485C387.269 143.485 365.874 151.355 365.874 151.355L363.415 160.946L354.315 157.502Z" fill="white" stroke="#263238" stroke-miterlimit="10" stroke-linecap="round" stroke-linejoin="round"/>
<path d="M377.678 146.435C377.678 146.435 382.842 144.959 383.58 143.73C384.318 142.501 389.728 131.68 390.22 130.942C390.712 130.204 387.515 130.696 386.285 130.942C385.055 131.188 381.612 141.763 381.612 141.763L376.202 143.484L377.678 146.435Z" fill="white" stroke="#263238" stroke-miterlimit="10" stroke-linecap="round" stroke-linejoin="round"/>
<path d="M379.537 144.556C379.537 144.556 384.898 144.23 385.884 143.189C386.87 142.148 394.489 132.75 395.129 132.136C395.768 131.522 392.541 131.312 391.287 131.286C390.033 131.261 384.388 140.843 384.388 140.843L378.734 141.356L379.537 144.556Z" fill="white" stroke="#263238" stroke-miterlimit="10" stroke-linecap="round" stroke-linejoin="round"/>
<path d="M358.742 150.862C358.742 150.862 358.496 145.943 361.693 143.484C364.89 141.025 374.973 140.779 374.973 140.779C374.973 140.779 379.891 131.188 381.121 131.188C382.351 131.188 385.302 129.958 385.056 131.188C384.81 132.418 381.859 137.336 380.629 139.795C379.399 142.254 378.907 145.451 377.678 146.435C376.448 147.419 369.316 149.14 369.316 149.14" fill="white"/>
<path d="M358.742 150.862C358.742 150.862 358.496 145.943 361.693 143.484C364.89 141.025 374.973 140.779 374.973 140.779C374.973 140.779 379.891 131.188 381.121 131.188C382.351 131.188 385.302 129.958 385.056 131.188C384.81 132.418 381.859 137.336 380.629 139.795C379.399 142.254 378.907 145.451 377.678 146.435C376.448 147.419 369.316 149.14 369.316 149.14" stroke="#263238" stroke-miterlimit="10" stroke-linecap="round" stroke-linejoin="round"/>
<path d="M350.38 165.617L353.086 156.518L365.382 158.486L362.431 169.798L350.38 165.617Z" fill="#E06330" stroke="#263238" stroke-miterlimit="10" stroke-linecap="round" stroke-linejoin="round"/>
<path d="M300.95 155.78C300.95 155.78 311.771 158.731 313.738 162.42C315.705 166.109 332.182 192.669 333.166 194.39C334.15 196.111 334.887 197.587 334.887 197.587C334.887 197.587 346.937 168.322 347.429 166.601C347.921 164.88 352.102 164.388 353.331 164.388C354.561 164.388 365.873 165.126 366.365 168.077C366.857 171.028 352.101 227.099 350.626 228.329C349.15 229.559 345.216 230.051 342.756 229.313C340.297 228.575 308.08 212.344 308.08 212.344L300.95 155.78Z" fill="#E06330" stroke="#263238" stroke-miterlimit="10" stroke-linecap="round" stroke-linejoin="round"/>
<path d="M334.887 197.587C334.887 197.587 331.946 204.675 330.975 210.015" stroke="#263238" stroke-miterlimit="10" stroke-linecap="round" stroke-linejoin="round"/>
<path d="M326.788 208.932C326.547 209.581 326.322 210.267 326.12 210.986" stroke="#263238" stroke-miterlimit="10" stroke-linecap="round" stroke-linejoin="round"/>
<path d="M331.218 201.277C331.218 201.277 329.486 203.133 327.877 206.403" stroke="#263238" stroke-miterlimit="10" stroke-linecap="round" stroke-linejoin="round"/>
<path d="M240.846 252.035L232.058 355.123L226.65 444.692C226.65 444.692 223.608 448.41 223.946 450.1C224.284 451.79 225.974 456.522 225.974 456.522C225.974 456.522 220.904 471.056 222.256 472.07C223.608 473.084 226.312 474.436 226.312 474.436H240.17C240.17 474.436 242.874 471.732 242.536 469.704C242.198 467.676 240.17 455.508 240.17 455.508C240.17 455.508 243.212 450.1 243.55 448.748C243.888 447.396 241.86 440.298 241.86 440.298L274.307 315.916C274.307 315.916 288.165 393.655 291.545 411.568C294.925 429.482 301.533 473.964 301.533 473.964H308.631L309.645 470.922C309.645 470.922 309.983 470.246 313.363 472.274C316.743 474.302 319.785 473.964 319.785 473.964H337.361C337.361 473.964 338.713 472.274 337.699 471.936C336.685 471.598 322.827 462.241 320.461 460.213C318.095 458.185 314.039 452.777 314.039 452.777C314.039 452.777 316.405 446.693 316.405 445.679C316.405 444.665 313.363 438.919 313.363 438.919L311.149 348.362L312.163 254.399L240.846 252.035Z" fill="#263238" stroke="#263238" stroke-miterlimit="10" stroke-linecap="round" stroke-linejoin="round"/>
<path d="M252.174 152.01L230.824 162.254L241.162 228.713L240.107 255.086C240.107 255.086 257.829 264.791 277.873 264.158C297.916 263.525 313.107 256.352 313.107 256.352L314.162 198.754C314.162 198.754 312.052 170.693 309.52 166.052C306.988 161.41 305.722 159.301 302.136 156.558C298.549 153.815 287.578 150.65 287.578 150.65C287.578 150.65 267.746 148.962 267.113 148.962C266.48 148.962 252.174 152.01 252.174 152.01Z" fill="#263238" stroke="#263238" stroke-miterlimit="10" stroke-linecap="round" stroke-linejoin="round"/>
<path d="M275.455 176.274L288 198.964L290.954 172.17L282.092 159.3L275.552 174.068L275.455 176.274Z" fill="#E06330" stroke="#263238" stroke-miterlimit="10" stroke-linecap="round" stroke-linejoin="round"/>
<path d="M282.997 163.814L290.539 173.979L292.506 152.01L287.916 146.435L282.997 163.814Z" fill="#E06330" stroke="#263238" stroke-miterlimit="10" stroke-linecap="round" stroke-linejoin="round"/>
<path d="M255.453 129.384L257.093 147.419L282.997 163.814L294.146 133.319L255.453 129.384Z" fill="white" stroke="#263238" stroke-miterlimit="10" stroke-linecap="round" stroke-linejoin="round"/>
<path d="M256.426 140.084C259.796 141.499 263.913 142.554 268.556 142.352C277.586 141.959 288.002 137.947 293.294 135.649L294.146 133.319L255.454 129.384L256.426 140.084Z" fill="#263238" stroke="#263238" stroke-miterlimit="10" stroke-linecap="round" stroke-linejoin="round"/>
<path d="M282.997 163.814L275.455 176.274L252.174 152.01L255.781 146.107L282.997 163.814Z" fill="#E06330" stroke="#263238" stroke-miterlimit="10" stroke-linecap="round" stroke-linejoin="round"/>
<path d="M312.508 236.198C312.508 236.198 322.099 228.083 323.329 228.083C324.559 228.083 330.707 232.756 330.707 232.756C330.707 232.756 336.855 232.018 337.101 233.494C337.347 234.969 336.117 239.15 336.117 239.15L334.641 240.626C334.641 240.626 330.46 247.02 330.46 248.004C330.46 248.988 325.05 248.742 322.59 249.234C320.131 249.726 313.245 248.004 313.245 248.004L312.508 236.198Z" fill="white" stroke="#263238" stroke-miterlimit="10" stroke-linecap="round" stroke-linejoin="round"/>
<path d="M303.163 235.46L314.475 235.706L314.721 247.51L305.376 247.756L303.163 235.46Z" fill="white" stroke="#263238" stroke-miterlimit="10" stroke-linecap="round" stroke-linejoin="round"/>
<path d="M251.033 185.513C251.009 179.589 248.26 174.016 243.588 170.373C239.648 167.301 234.745 163.609 233.074 162.912C230.123 161.682 228.647 162.174 224.467 165.125C220.286 168.076 218.811 174.224 219.057 184.307C219.303 194.39 226.435 247.51 227.173 249.723C227.911 251.936 230.124 252.428 232.092 252.674C234.059 252.92 301.847 250.599 303.164 250.461C307.836 249.969 308.599 243.604 308.328 240.624C307.836 235.214 303.164 233.492 296.032 232.754C288.9 232.016 253.979 227.835 252.749 227.59C251.519 227.344 250.29 226.852 250.29 226.852C250.29 226.852 251.028 198.079 251.028 190.209C251.027 188.452 251.039 186.903 251.033 185.513Z" fill="#E06330" stroke="#263238" stroke-miterlimit="10" stroke-linecap="round" stroke-linejoin="round"/>
<path d="M236.829 235.58C236.007 236.479 235.307 237.426 234.796 238.411" stroke="#263238" stroke-miterlimit="10" stroke-linecap="round" stroke-linejoin="round"/>
<path d="M250.289 226.853C250.289 226.853 244.551 229.195 239.863 232.829" stroke="#263238" stroke-miterlimit="10" stroke-linecap="round" stroke-linejoin="round"/>
<path d="M234.304 232.263C234.304 232.263 239.96 224.639 248.814 226.607" stroke="#263238" stroke-miterlimit="10" stroke-linecap="round" stroke-linejoin="round"/>
<path d="M359.869 104.865H357.592V126.331H359.869V104.865Z" fill="white" stroke="#263238" stroke-miterlimit="10" stroke-linecap="round" stroke-linejoin="round"/>
<path d="M367.349 126.331H350.111V127.307H367.349V126.331Z" fill="white" stroke="#263238" stroke-miterlimit="10" stroke-linecap="round" stroke-linejoin="round"/>
<path d="M358.73 106.816C353.88 106.816 349.948 102.884 349.948 98.0342L351.704 82.0972H365.755L367.511 98.0342C367.512 102.885 363.58 106.816 358.73 106.816Z" fill="white" stroke="#263238" stroke-miterlimit="10" stroke-linecap="round" stroke-linejoin="round"/>
<path d="M387.549 70.559L386.737 52H383.947H382.619H379.829L379.017 70.559C378.939 72.345 378.587 74.108 377.974 75.787L373.965 86.769C373.187 88.9 372.789 91.152 372.789 93.421V129.31H380.493H386.072H393.776V93.421C393.776 91.152 393.378 88.9 392.6 86.769L388.591 75.787C387.979 74.108 387.628 72.345 387.549 70.559Z" fill="#263238" stroke="#263238" stroke-miterlimit="10" stroke-linecap="round" stroke-linejoin="round"/>
<path d="M392.715 97.4302H373.719V123.067H392.715V97.4302Z" fill="white" stroke="#263238" stroke-miterlimit="10" stroke-linecap="round" stroke-linejoin="round"/>
<path d="M387.455 68.339C387.452 68.287 387.447 68.235 387.445 68.182L386.802 53.488C386.766 52.656 386.081 52 385.248 52H383.948H382.62H381.32C380.487 52 379.802 52.656 379.766 53.488L379.123 68.182C379.121 68.234 379.116 68.286 379.113 68.339H387.455Z" fill="#8C8C8C" stroke="#263238" stroke-miterlimit="10" stroke-linecap="round" stroke-linejoin="round"/>
<path d="M424.896 131.188H331.69L326.772 127.253H430.798L424.896 131.188Z" fill="#8C8C8C" stroke="#263238" stroke-miterlimit="10" stroke-linecap="round" stroke-linejoin="round"/>
<path d="M264.167 228.375L264.505 286.848H313.514L314.475 235.706L264.167 228.375Z" fill="white" stroke="#263238" stroke-miterlimit="10" stroke-linecap="round" stroke-linejoin="round"/>
<path d="M278.973 90.0371C278.973 90.0371 283.897 91.0221 286.851 96.6841C289.805 102.346 297.929 125.98 298.175 129.18C298.421 132.38 294.975 133.365 291.036 135.827C287.097 138.289 274.296 140.258 267.156 137.796C260.017 135.334 258.54 131.395 258.54 131.395C258.54 131.395 255.832 134.595 250.662 131.149C245.492 127.703 244.507 123.025 246.477 121.302C248.446 119.579 251.647 121.056 251.647 121.056C251.647 121.056 246.231 107.762 246.723 103.085C247.215 98.4081 247.462 93.7301 255.339 90.5301C263.217 87.3291 278.973 90.0371 278.973 90.0371Z" fill="white" stroke="#263238" stroke-miterlimit="10" stroke-linecap="round" stroke-linejoin="round"/>
<path d="M279.219 100.623C279.219 100.623 280.204 103.823 281.435 104.316C282.666 104.808 289.067 102.839 289.559 105.547C290.051 108.255 287.59 112.686 287.59 112.686" stroke="#263238" stroke-miterlimit="10" stroke-linecap="round" stroke-linejoin="round"/>
<path d="M289.559 117.117C289.559 117.117 283.404 122.533 277.25 117.609" stroke="#263238" stroke-miterlimit="10" stroke-linecap="round" stroke-linejoin="round"/>
<path d="M267.156 108.501L274.049 106.039" stroke="#263238" stroke-miterlimit="10" stroke-linecap="round" stroke-linejoin="round"/>
<path d="M271.834 98.6542C271.834 98.6542 266.418 95.7002 263.71 101.116" stroke="#263238" stroke-miterlimit="10" stroke-linecap="round" stroke-linejoin="round"/>
<path d="M278.973 98.1611C278.973 98.1611 281.435 93.7301 285.866 97.4221" stroke="#263238" stroke-miterlimit="10" stroke-linecap="round" stroke-linejoin="round"/>
<path d="M271.659 107.688C271.776 108.038 271.323 108.503 270.649 108.728C269.974 108.953 269.333 108.851 269.217 108.501C269.101 108.151 269.553 107.686 270.228 107.461C270.901 107.237 271.542 107.339 271.659 107.688Z" fill="#263238" stroke="#263238" stroke-miterlimit="10" stroke-linecap="round" stroke-linejoin="round"/>
<path d="M249.677 117.117C249.677 117.117 251.154 122.287 252.139 122.533C253.124 122.779 257.309 123.518 257.063 121.056C256.817 118.594 252.386 109.978 252.878 107.024C253.37 104.07 259.033 99.8851 257.802 98.1611C256.571 96.4381 254.602 96.6841 255.34 95.4531C256.079 94.2221 267.895 90.2831 272.327 90.2831C276.758 90.2831 278.728 90.0371 280.697 88.5601C282.667 87.0831 285.621 81.1751 276.512 80.9281C267.403 80.6811 252.386 86.8361 247.216 93.7301C242.046 100.623 244.508 106.039 245.985 108.747C247.462 111.455 249.677 117.117 249.677 117.117Z" fill="#263238" stroke="#263238" stroke-miterlimit="10" stroke-linecap="round" stroke-linejoin="round"/>
<path d="M283.785 168.782L273.889 166.667L275.934 177.057L284.157 170.774L293.333 174.935L291.636 164.326L283.785 168.782Z" fill="#263238" stroke="#263238" stroke-miterlimit="10" stroke-linecap="round" stroke-linejoin="round"/>
<path d="M174.629 220.794L177.858 237.189C177.858 237.189 179.597 239.673 185.31 242.157C191.023 244.641 193.756 242.654 193.756 238.679C193.756 234.705 191.769 213.342 191.769 213.342L174.629 220.794Z" fill="white" stroke="#263238" stroke-miterlimit="10" stroke-linecap="round" stroke-linejoin="round"/>
<path d="M175.651 226.737L192.419 222.164L191.769 213.341L174.629 220.794L175.651 226.737Z" fill="#263238" stroke="#263238" stroke-miterlimit="10" stroke-linecap="round" stroke-linejoin="round"/>
<path d="M85.948 206.386L77.999 228.991L83.961 233.462C83.961 233.462 88.929 233.959 92.158 231.723C95.387 229.487 103.336 211.105 103.336 211.105L85.948 206.386Z" fill="white" stroke="#263238" stroke-miterlimit="10" stroke-linecap="round" stroke-linejoin="round"/>
<path d="M84.189 211.275L100.957 216.284L103.336 211.106L85.713 205.614L84.189 211.275Z" fill="#263238" stroke="#263238" stroke-miterlimit="10" stroke-linecap="round" stroke-linejoin="round"/>
<path d="M147.47 337.048C147.47 337.048 149.788 366.194 149.788 372.487C149.788 378.78 147.138 392.691 148.794 400.309C150.45 407.927 156.081 431.443 156.081 439.06C156.081 446.677 151.775 460.257 154.094 462.907C156.412 465.557 160.718 466.219 162.043 468.869C163.368 471.519 164.03 472.181 166.349 473.175C168.667 474.169 177.941 474.831 179.929 474.169C181.916 473.506 180.923 471.851 177.611 467.214C174.299 462.577 166.681 453.634 165.356 449.66C164.031 445.686 172.311 413.889 172.643 400.641C172.974 387.393 172.312 370.501 172.312 370.501C172.312 370.501 176.618 340.692 176.618 334.73L147.47 337.048Z" fill="white" stroke="#263238" stroke-miterlimit="10" stroke-linecap="round" stroke-linejoin="round"/>
<path d="M148.306 347.977C156.378 347.542 165.646 346.208 175.883 343.373C176.319 339.5 176.617 336.292 176.617 334.73L147.471 337.048C147.471 337.048 147.852 341.85 148.306 347.977Z" fill="#263238" stroke="#263238" stroke-miterlimit="10" stroke-linecap="round" stroke-linejoin="round"/>
<path d="M171.648 363.876C171.648 363.876 171.317 372.487 168.336 377.124" stroke="#263238" stroke-miterlimit="10" stroke-linecap="round" stroke-linejoin="round"/>
<path d="M179.929 474.169C181.916 473.506 180.923 471.851 177.611 467.214C177.04 466.415 176.336 465.481 175.563 464.473C171.627 466.958 165.922 465.407 163.7 462.908C161.675 460.63 156.568 455.077 154.265 452.578C153.453 457.369 152.914 461.558 154.095 462.908C156.414 465.558 160.719 466.22 162.044 468.87C163.369 471.52 164.031 472.182 166.35 473.176C168.667 474.169 177.941 474.831 179.929 474.169Z" fill="#263238" stroke="#263238" stroke-miterlimit="10" stroke-linecap="round" stroke-linejoin="round"/>
<path d="M116.005 337.711C116.005 337.711 120.973 368.845 121.636 369.838C122.298 370.832 121.636 398.322 124.948 407.596C128.26 416.87 136.872 446.016 137.203 450.653C137.534 455.29 126.604 464.564 121.967 467.545C117.33 470.526 116.005 472.513 118.986 473.507C121.967 474.501 132.566 473.507 136.871 473.176C141.177 472.845 146.948 474.443 147.942 473.118C148.936 471.793 147.47 452.972 147.47 447.342C147.47 441.711 148.795 401.635 146.808 388.387C144.821 375.139 142.833 363.546 142.833 363.546L143.495 336.387L114.349 335.393L116.005 337.711Z" fill="white" stroke="#263238" stroke-miterlimit="10" stroke-linecap="round" stroke-linejoin="round"/>
<path d="M116.005 337.711C116.005 337.711 116.496 340.787 117.189 345.033C121.788 346.328 130.799 348.267 143.208 348.146L143.495 336.386L114.349 335.392L116.005 337.711Z" fill="#263238" stroke="#263238" stroke-miterlimit="10" stroke-linecap="round" stroke-linejoin="round"/>
<path d="M122.629 363.214C122.629 363.214 123.291 373.15 127.266 377.787" stroke="#263238" stroke-miterlimit="10" stroke-linecap="round" stroke-linejoin="round"/>
<path d="M147.942 473.117C148.322 472.611 148.314 469.686 148.16 465.954C143.002 466.69 133.89 466.219 133.89 466.219C131.572 461.582 127.928 463.569 127.928 463.569L127.248 463.554C125.241 465.243 123.331 466.667 121.966 467.544C117.329 470.525 116.004 472.512 118.985 473.506C121.966 474.5 132.374 474.442 136.68 474.11C140.987 473.779 146.948 474.442 147.942 473.117Z" fill="#263238" stroke="#263238" stroke-miterlimit="10" stroke-linecap="round" stroke-linejoin="round"/>
<path d="M100.107 311.214L99.113 338.042C99.113 338.042 121.635 344.335 140.845 344.666C160.055 344.997 185.227 337.048 185.227 337.048L183.902 307.57L100.769 306.245L100.107 311.214Z" fill="#E06330" stroke="#263238" stroke-miterlimit="10" stroke-linecap="round" stroke-linejoin="round"/>
<path d="M116.75 233.711C116.75 233.711 98.1199 281.074 93.4829 316.844C93.4829 316.844 120.642 324.462 147.47 323.137C174.298 321.812 190.196 314.526 190.196 314.526C190.196 314.526 181.916 259.545 168.171 236.692L116.75 233.711Z" fill="#263238" stroke="#263238" stroke-miterlimit="10" stroke-linecap="round" stroke-linejoin="round"/>
<path d="M152.438 89.635C152.438 89.635 151.113 81.023 142.502 82.68C133.891 84.336 134.222 87.317 132.897 90.298C131.572 93.279 112.693 96.922 108.388 108.183C104.083 119.444 114.681 123.087 114.681 129.049C114.681 135.011 101.433 139.648 104.413 146.603C107.394 153.558 118.324 154.883 117.33 157.202C116.336 159.52 108.387 163.164 114.349 168.463C120.311 173.762 147.139 179.062 161.381 176.412C175.623 173.762 179.266 162.501 176.617 158.858C173.967 155.215 171.98 153.559 173.967 149.915C175.954 146.272 186.222 142.628 182.91 132.692C179.598 122.756 170.655 121.1 170.986 115.469C171.317 109.838 181.254 106.195 172.973 98.246C164.693 90.297 152.438 89.635 152.438 89.635Z" fill="#263238" stroke="#263238" stroke-miterlimit="10" stroke-linecap="round" stroke-linejoin="round"/>
<path d="M128.674 159.189L101.846 166.89L116.75 233.712C116.75 233.712 123.705 238.183 138.858 239.177C154.011 240.171 168.17 236.693 168.17 236.693L182.826 169.375L157.24 161.178L128.674 159.189Z" fill="white"/>
<path d="M123.469 160.683L122.504 160.96L133.055 238.581C133.39 238.628 133.73 238.672 134.076 238.716L123.469 160.683Z" fill="#E06330"/>
<path d="M129.344 159.235L128.674 159.188L128.35 159.281L136.84 239.009C137.17 239.039 137.509 239.065 137.848 239.092L129.344 159.235Z" fill="#E06330"/>
<path d="M136.365 159.724L135.363 159.654L141.542 239.306C141.876 239.317 142.208 239.324 142.541 239.331L136.365 159.724Z" fill="#E06330"/>
<path d="M117.368 162.434L116.407 162.71L129.652 238.02C129.994 238.085 130.339 238.149 130.695 238.211L117.368 162.434Z" fill="#E06330"/>
<path d="M110.992 164.264L125.333 237.042C125.673 237.133 126.038 237.222 126.399 237.311L111.951 163.988L110.992 164.264Z" fill="#E06330"/>
<path d="M150.232 160.688L149.237 160.619L150.552 239.163C150.886 239.143 151.217 239.121 151.545 239.099L150.232 160.688Z" fill="#E06330"/>
<path d="M120.318 235.403C120.66 235.538 121.029 235.677 121.422 235.819L106.536 165.543L105.578 165.818L120.318 235.403Z" fill="#E06330"/>
<path d="M174.216 166.615L164.607 237.434C164.975 237.365 165.32 237.299 165.637 237.237L175.177 166.923L174.216 166.615Z" fill="#E06330"/>
<path d="M179.624 168.347L178.669 168.041L166.431 237.075C166.853 236.988 167.207 236.911 167.48 236.85L179.624 168.347Z" fill="#E06330"/>
<path d="M169.37 165.062L168.404 164.753L160.405 238.134C160.754 238.083 161.092 238.031 161.421 237.979L169.37 165.062Z" fill="#E06330"/>
<path d="M157.35 161.211L157.241 161.176L156.36 161.115L152.682 239.015C153.018 238.988 153.352 238.961 153.681 238.931L157.35 161.211Z" fill="#E06330"/>
<path d="M145.474 239.347C145.807 239.343 146.138 239.338 146.467 239.331L143.74 160.237L142.743 160.168L145.474 239.347Z" fill="#E06330"/>
<path d="M163.138 163.065L162.164 162.753L156.872 238.601C157.213 238.561 157.547 238.52 157.877 238.479L163.138 163.065Z" fill="#E06330"/>
<path d="M166.953 189.131L157.141 188.609C155.57 188.525 154.365 187.184 154.448 185.614L154.494 184.745C154.578 183.174 155.919 181.969 157.489 182.052L167.301 182.574C168.872 182.658 170.077 183.999 169.994 185.569L169.948 186.438C169.865 188.009 168.523 189.215 166.953 189.131Z" fill="#E06330" stroke="#263238" stroke-miterlimit="10" stroke-linecap="round" stroke-linejoin="round"/>
<path d="M128.674 159.189L101.846 166.89L116.75 233.712C116.75 233.712 123.705 238.183 138.858 239.177C154.011 240.171 168.17 236.693 168.17 236.693L182.826 169.375L157.24 161.178L128.674 159.189Z" stroke="#263238" stroke-miterlimit="10" stroke-linecap="round" stroke-linejoin="round"/>
<path d="M131.463 140.57L132.027 154.684L142.002 162.4L151.944 154.608L155.929 141.511L142.755 145.463L131.463 140.57Z" fill="white" stroke="#263238" stroke-miterlimit="10" stroke-linecap="round" stroke-linejoin="round"/>
<path d="M155.929 141.51L142.755 145.462L131.463 140.569L131.751 147.76C134.125 150.959 136.539 153.525 138.16 154.22C142.112 155.914 144.37 155.161 145.688 153.844C146.692 152.84 151.74 149.745 155.502 142.915L155.929 141.51Z" fill="#263238" stroke="#263238" stroke-miterlimit="10" stroke-linecap="round" stroke-linejoin="round"/>
<path d="M137.485 165.976L140.308 170.117L138.426 206.062L143.884 206.251L142.002 170.305L146.519 164.659L141.549 159.954L137.485 165.976Z" fill="#E06330" stroke="#263238" stroke-miterlimit="10" stroke-linecap="round" stroke-linejoin="round"/>
<path d="M130.954 150.732L141.305 159.954L134.906 170.681L126.061 159.201L130.954 150.732Z" fill="white"/>
<path d="M126.482 158.473L135.607 169.507L136.147 168.601L127.012 157.555L126.482 158.473Z" fill="#E06330"/>
<path d="M128.498 154.983L127.957 155.92L136.692 167.688L137.243 166.764L128.498 154.983Z" fill="#E06330"/>
<path d="M131.216 150.966L130.954 150.732L130.452 151.602L139.723 161.917L138.322 163.618L129.783 152.76L129.247 153.686L138.231 165.108L140.503 161.298L131.216 150.966Z" fill="#E06330"/>
<path d="M130.954 150.732L141.305 159.954L134.906 170.681L126.061 159.201L130.954 150.732Z" stroke="#263238" stroke-miterlimit="10" stroke-linecap="round" stroke-linejoin="round"/>
<path d="M153.115 150.732L141.549 159.954L148.699 170.681L158.582 159.201L153.115 150.732Z" fill="white"/>
<path d="M158.112 158.473L147.916 169.507L147.312 168.601L157.519 157.555L158.112 158.473Z" fill="#E06330"/>
<path d="M155.859 154.983L156.464 155.92L146.704 167.688L146.088 166.764L155.859 154.983Z" fill="#E06330"/>
<path d="M152.822 150.966L153.115 150.732L153.676 151.602L143.316 161.917L144.882 163.618L154.423 152.76L155.021 153.686L144.984 165.108L142.445 161.298L152.822 150.966Z" fill="#E06330"/>
<path d="M153.115 150.732L141.549 159.954L148.699 170.681L158.582 159.201L153.115 150.732Z" stroke="#263238" stroke-miterlimit="10" stroke-linecap="round" stroke-linejoin="round"/>
<path d="M125.611 119.797C125.611 119.797 122.43 117.045 121.112 120.245C119.795 123.444 124.876 131.725 126.382 131.349C127.888 130.973 126.947 120.245 126.947 120.245L125.611 119.797Z" fill="white" stroke="#263238" stroke-miterlimit="10" stroke-linecap="round" stroke-linejoin="round"/>
<path d="M163.38 120.166C163.38 120.166 166.887 117.844 167.785 121.185C168.682 124.527 162.584 132.089 161.139 131.524C159.694 130.958 161.999 120.439 161.999 120.439L163.38 120.166Z" fill="white" stroke="#263238" stroke-miterlimit="10" stroke-linecap="round" stroke-linejoin="round"/>
<path d="M136.921 94.2729C136.921 94.2729 128.076 97.0959 126.758 105C125.563 112.171 125.064 125.325 126.382 131.348C127.699 137.37 136.357 150.168 140.309 151.862C144.261 153.556 146.519 152.803 147.837 151.486C149.154 150.169 157.435 145.276 160.634 133.043C163.833 120.81 163.457 111.777 161.387 102.555C160.108 96.8579 146.519 89.9439 136.921 94.2729Z" fill="white" stroke="#263238" stroke-miterlimit="10" stroke-linecap="round" stroke-linejoin="round"/>
<path d="M161.386 102.554C160.107 96.8589 146.518 89.9449 136.92 94.2729C136.92 94.2729 128.075 97.0959 126.757 105C126.111 108.875 125.672 114.496 125.61 119.797C126.044 118.285 126.683 115.83 127.322 112.528C128.451 106.694 130.898 101.989 135.038 101.613C139.178 101.237 140.872 103.119 147.647 102.742C154.422 102.366 156.68 101.801 159.503 105C162.326 108.199 161.95 118.737 162.702 121.749C163.386 114.767 162.766 108.7 161.386 102.554Z" fill="#263238" stroke="#263238" stroke-miterlimit="10" stroke-linecap="round" stroke-linejoin="round"/>
<path d="M146.707 125.514L146.331 129.843C146.331 129.843 148.401 131.16 147.837 132.666C147.272 134.172 145.014 134.924 144.073 133.983" stroke="#263238" stroke-miterlimit="10" stroke-linecap="round" stroke-linejoin="round"/>
<path d="M138.05 138.688C138.05 138.688 142.567 141.135 145.578 140.758C148.589 140.381 151.412 138.123 151.412 138.123" stroke="#263238" stroke-miterlimit="10" stroke-linecap="round" stroke-linejoin="round"/>
<path d="M138.238 123.726C138.238 124.921 137.69 125.89 137.015 125.89C136.34 125.89 135.792 124.921 135.792 123.726C135.792 122.531 136.34 121.562 137.015 121.562C137.69 121.562 138.238 122.531 138.238 123.726Z" fill="#263238"/>
<path d="M153.858 124.385C153.858 125.58 153.31 126.549 152.635 126.549C151.96 126.549 151.412 125.58 151.412 124.385C151.412 123.19 151.96 122.221 152.635 122.221C153.31 122.221 153.858 123.189 153.858 124.385Z" fill="#263238"/>
<path d="M133.157 118.362C133.157 118.362 136.168 114.41 141.438 116.856" stroke="#263238" stroke-miterlimit="10" stroke-linecap="round" stroke-linejoin="round"/>
<path d="M149.154 117.609C149.154 117.609 154.235 114.222 159.129 119.303" stroke="#263238" stroke-miterlimit="10" stroke-linecap="round" stroke-linejoin="round"/>
<path d="M101.846 166.889L82.2219 207.628L106.566 213.838L109.547 202.411L101.846 166.889Z" fill="white"/>
<path d="M102.384 169.37L85.241 208.398L86.217 208.647L102.743 171.025L102.384 169.37Z" fill="#E06330"/>
<path d="M103.805 175.926L103.43 174.198C98.672 186.008 92.475 201.178 88.958 209.347L89.926 209.594C93.849 200.524 100.559 183.973 103.805 175.926Z" fill="#E06330"/>
<path d="M105.146 182.112L104.774 180.395L92.5801 210.27L93.5521 210.518L105.146 182.112Z" fill="#E06330"/>
<path d="M108.524 206.331L109.547 202.411L109.486 202.133L104.034 213.193L105.018 213.443L108.524 206.331Z" fill="#E06330"/>
<path d="M108.286 196.598L107.914 194.879L100.796 212.367L101.768 212.614L108.286 196.598Z" fill="#E06330"/>
<path d="M106.607 188.85L106.232 187.12L96.509 211.273L97.48 211.52L106.607 188.85Z" fill="#E06330"/>
<path d="M101.846 166.889L82.2219 207.628L106.566 213.838L109.547 202.411L101.846 166.889Z" stroke="#263238" stroke-miterlimit="10" stroke-linecap="round" stroke-linejoin="round"/>
<path d="M182.827 169.373L198.973 215.826L173.884 225.017L172.145 218.558L182.827 169.373Z" fill="white"/>
<path d="M177.147 195.526L176.757 197.324L185.496 220.762L186.429 220.421L177.147 195.526Z" fill="#E06330"/>
<path d="M175.739 202.009L175.35 203.798L182.183 221.976L183.116 221.635L175.739 202.009Z" fill="#E06330"/>
<path d="M174.586 207.32L174.186 209.16L179.144 223.09L180.077 222.748L174.586 207.32Z" fill="#E06330"/>
<path d="M177.399 223.729L173.327 213.117L172.942 214.888L176.466 224.071L177.399 223.729Z" fill="#E06330"/>
<path d="M180.988 177.839L180.585 179.698L193.843 217.705L194.776 217.363L180.988 177.839Z" fill="#E06330"/>
<path d="M182.336 171.632L181.922 173.539L196.285 216.81L197.218 216.468L182.336 171.632Z" fill="#E06330"/>
<path d="M179.913 182.788L179.508 184.653L191.299 218.637L192.232 218.295L179.913 182.788Z" fill="#E06330"/>
<path d="M178.324 190.105L177.943 191.859L188.783 219.559L189.716 219.217L178.324 190.105Z" fill="#E06330"/>
<path d="M182.827 169.373L198.973 215.826L173.884 225.017L172.145 218.558L182.827 169.373Z" stroke="#263238" stroke-miterlimit="10" stroke-linecap="round" stroke-linejoin="round"/>
<path d="M110.54 189.743L106.814 192.972L102.094 203.157L104.826 210.858C104.826 210.858 79.737 225.266 78.246 226.756C76.756 228.246 76.259 238.431 79.488 243.399C82.717 248.367 96.38 233.463 96.38 233.463L118.737 203.406C118.737 203.406 124.202 196.947 122.712 195.209C121.221 193.47 119.98 192.228 119.234 192.228C118.488 192.228 116.75 192.476 116.75 192.476L110.54 189.743Z" fill="white" stroke="#263238" stroke-miterlimit="10" stroke-linecap="round" stroke-linejoin="round"/>
<path d="M111.055 182.663L116.751 194.463L118.987 195.208L112.658 181.916C112.43 181.425 111.817 181.252 111.366 181.553C111.001 181.795 110.869 182.267 111.055 182.663Z" fill="white" stroke="#263238" stroke-miterlimit="10" stroke-linecap="round" stroke-linejoin="round"/>
<path d="M103.336 198.437L107.808 211.106L121.47 213.59L125.693 211.106L120.973 196.698L103.336 198.437Z" fill="white" stroke="#263238" stroke-miterlimit="10" stroke-linecap="round" stroke-linejoin="round"/>
<path d="M117.496 200.921L99.6109 199.431C99.6109 199.431 97.1269 197.692 100.356 195.705C103.585 193.718 106.318 194.463 106.318 194.463L118.987 195.208L117.496 200.921Z" fill="white" stroke="#263238" stroke-miterlimit="10" stroke-linecap="round" stroke-linejoin="round"/>
<path d="M125.693 208.373L121.718 195.704C121.718 195.704 117.743 194.462 116.501 196.698C115.259 198.934 116.749 200.424 117.495 200.921C118.24 201.418 120.724 199.679 120.724 199.679L123.456 209.864L125.693 208.373Z" fill="white" stroke="#263238" stroke-miterlimit="10" stroke-linecap="round" stroke-linejoin="round"/>
<path d="M192.763 232.469C192.763 232.469 193.508 234.953 193.508 239.921C193.508 244.889 192.266 248.615 189.037 248.615C185.808 248.615 172.145 244.64 165.935 241.411C159.725 238.182 134.636 225.761 134.636 225.761C134.636 225.761 125.693 224.767 123.209 224.271C120.725 223.774 116.502 222.035 114.018 220.296C111.534 218.557 110.292 213.589 110.292 213.589C110.292 213.589 105.821 210.857 105.821 209.614C105.821 208.372 117.993 210.856 120.229 210.856C122.465 210.856 125.694 208.372 125.694 208.372L124.452 203.652C124.452 203.652 128.923 205.391 130.165 206.881C131.407 208.371 135.878 216.817 136.624 217.811C137.369 218.805 157.242 227.002 167.426 227.996C177.611 228.99 187.547 230.48 187.547 230.48" fill="white"/>
<path d="M192.763 232.469C192.763 232.469 193.508 234.953 193.508 239.921C193.508 244.889 192.266 248.615 189.037 248.615C185.808 248.615 172.145 244.64 165.935 241.411C159.725 238.182 134.636 225.761 134.636 225.761C134.636 225.761 125.693 224.767 123.209 224.271C120.725 223.774 116.502 222.035 114.018 220.296C111.534 218.557 110.292 213.589 110.292 213.589C110.292 213.589 105.821 210.857 105.821 209.614C105.821 208.372 117.993 210.856 120.229 210.856C122.465 210.856 125.694 208.372 125.694 208.372L124.452 203.652C124.452 203.652 128.923 205.391 130.165 206.881C131.407 208.371 135.878 216.817 136.624 217.811C137.369 218.805 157.242 227.002 167.426 227.996C177.611 228.99 187.547 230.48 187.547 230.48" stroke="#263238" stroke-miterlimit="10" stroke-linecap="round" stroke-linejoin="round"/>
<path d="M24.6049 474.5H16.5439" stroke="#263238" stroke-miterlimit="10" stroke-linecap="round" stroke-linejoin="round"/>
<path d="M489.679 474.5H33.8279" stroke="#263238" stroke-miterlimit="10" stroke-linecap="round" stroke-linejoin="round"/>
</svg>
