<svg width="500" height="500" viewBox="0 0 500 500" fill="none" xmlns="http://www.w3.org/2000/svg">
<path d="M500 382.398H0V382.648H500V382.398Z" fill="#EBEBEB"/>
<path d="M449.901 398.494H416.779V398.744H449.901V398.494Z" fill="#EBEBEB"/>
<path d="M331.22 401.208H322.527V401.458H331.22V401.208Z" fill="#EBEBEB"/>
<path d="M415.778 389.208H396.586V389.458H415.778V389.208Z" fill="#EBEBEB"/>
<path d="M95.652 390.888H52.459V391.138H95.652V390.888Z" fill="#EBEBEB"/>
<path d="M110.889 390.888H104.556V391.138H110.889V390.888Z" fill="#EBEBEB"/>
<path d="M225.147 395.111H131.471V395.361H225.147V395.111Z" fill="#EBEBEB"/>
<path d="M237.014 337.8H43.915C40.768 337.8 38.207 335.239 38.207 332.092V60.6601C38.207 57.5131 40.768 54.9521 43.915 54.9521H237.014C240.16 54.9521 242.721 57.5131 242.721 60.6601V332.092C242.721 335.239 240.16 337.8 237.014 337.8ZM43.915 55.2031C40.905 55.2031 38.457 57.6511 38.457 60.6611V332.093C38.457 335.103 40.905 337.551 43.915 337.551H237.014C240.023 337.551 242.471 335.103 242.471 332.093V60.6601C242.471 57.6511 240.023 55.2021 237.014 55.2021L43.915 55.2031Z" fill="#EBEBEB"/>
<path d="M453.31 337.8H260.212C257.065 337.8 254.505 335.239 254.505 332.092V60.6601C254.505 57.5131 257.066 54.9521 260.212 54.9521H453.31C456.458 54.9521 459.018 57.5131 459.018 60.6601V332.092C459.019 335.239 456.458 337.8 453.31 337.8ZM260.212 55.2031C257.203 55.2031 254.755 57.6511 254.755 60.6611V332.093C254.755 335.103 257.203 337.551 260.212 337.551H453.31C456.32 337.551 458.768 335.103 458.768 332.093V60.6601C458.768 57.6511 456.32 55.2021 453.31 55.2021L260.212 55.2031Z" fill="#EBEBEB"/>
<path d="M440.269 111.906H58.728V177.949H440.269V111.906Z" fill="#F5F5F5"/>
<path d="M83.1331 142.365V121.833H78.5781V142.365C78.5781 143.896 77.5801 145.249 76.1171 145.7C74.5931 146.17 73.5811 147.614 73.6601 149.208L75.0851 177.949H86.6281L88.0531 149.208C88.1321 147.614 87.1201 146.17 85.5961 145.7C84.1311 145.248 83.1331 143.896 83.1331 142.365Z" fill="#EBEBEB"/>
<path d="M112.273 147.732V127.383H105.284V147.732C105.284 149.824 103.832 151.636 101.79 152.092C99.7479 152.548 98.2959 154.359 98.2959 156.452V177.949H119.263V156.452C119.263 154.36 117.811 152.548 115.768 152.092C113.726 151.637 112.273 149.824 112.273 147.732Z" fill="#EBEBEB"/>
<path d="M139.559 139.408V124.711H133.845V139.408C133.845 140.969 133.143 142.447 131.933 143.434C130.723 144.42 130.021 145.899 130.021 147.46V177.95H143.382V147.46C143.382 145.899 142.68 144.421 141.47 143.434C140.262 142.447 139.559 140.969 139.559 139.408Z" fill="#EBEBEB"/>
<path d="M168.018 143.081V124.71H161.234V143.08C161.234 145.412 160.647 147.707 159.526 149.753C158.406 151.799 157.818 154.093 157.818 156.426V177.949H171.432V156.426C171.432 154.094 170.845 151.799 169.725 149.754C168.605 147.709 168.018 145.413 168.018 143.081Z" fill="#EBEBEB"/>
<path d="M195.226 139.083V127.382H189.873V139.083C189.873 141.555 188.368 143.777 186.072 144.694C183.676 145.651 182.152 148.025 182.279 150.602L183.626 177.949H201.475L202.822 150.602C202.949 148.025 201.425 145.651 199.028 144.694C196.731 143.777 195.226 141.555 195.226 139.083Z" fill="#EBEBEB"/>
<path d="M222.75 142.365V121.833H218.195V142.365C218.195 143.896 217.197 145.249 215.734 145.7C214.21 146.17 213.198 147.614 213.277 149.208L214.702 177.949H226.245L227.67 149.208C227.749 147.614 226.738 146.17 225.213 145.7C223.748 145.248 222.75 143.896 222.75 142.365Z" fill="#EBEBEB"/>
<path d="M251.89 147.732V127.383H244.901V147.732C244.901 149.824 243.449 151.636 241.406 152.092C239.364 152.548 237.911 154.359 237.911 156.452V177.949H258.878V156.452C258.878 154.36 257.426 152.548 255.384 152.092C253.342 151.637 251.89 149.824 251.89 147.732Z" fill="#EBEBEB"/>
<path d="M279.176 139.408V124.711H273.462V139.408C273.462 140.969 272.76 142.447 271.55 143.434C270.34 144.42 269.638 145.899 269.638 147.46V177.95H283V147.46C283 145.899 282.298 144.421 281.088 143.434C279.878 142.447 279.176 140.969 279.176 139.408Z" fill="#EBEBEB"/>
<path d="M307.634 143.081V124.71H300.85V143.08C300.85 145.412 300.263 147.707 299.142 149.753C298.022 151.799 297.434 154.093 297.434 156.426V177.949H311.048V156.426C311.048 154.094 310.461 151.799 309.341 149.754C308.222 147.709 307.634 145.413 307.634 143.081Z" fill="#EBEBEB"/>
<path d="M334.842 139.083V127.382H329.489V139.083C329.489 141.555 327.984 143.777 325.688 144.694C323.292 145.651 321.768 148.025 321.895 150.602L323.242 177.949H341.091L342.438 150.602C342.565 148.025 341.041 145.651 338.645 144.694C336.348 143.777 334.842 141.555 334.842 139.083Z" fill="#EBEBEB"/>
<path d="M362.367 142.365V121.833H357.812V142.365C357.812 143.896 356.814 145.249 355.351 145.7C353.826 146.17 352.815 147.614 352.894 149.208L354.319 177.949H365.862L367.287 149.208C367.366 147.614 366.354 146.17 364.83 145.7C363.365 145.248 362.367 143.896 362.367 142.365Z" fill="#EBEBEB"/>
<path d="M391.507 147.732V127.383H384.518V147.732C384.518 149.824 383.066 151.636 381.023 152.092C378.981 152.548 377.529 154.359 377.529 156.452V177.949H398.496V156.452C398.496 154.36 397.044 152.548 395.001 152.092C392.959 151.637 391.507 149.824 391.507 147.732Z" fill="#EBEBEB"/>
<path d="M418.793 139.408V124.711H413.079V139.408C413.079 140.969 412.377 142.447 411.167 143.434C409.957 144.42 409.255 145.899 409.255 147.46V177.95H422.616V147.46C422.616 145.899 421.914 144.421 420.704 143.434C419.495 142.447 418.793 140.969 418.793 139.408Z" fill="#EBEBEB"/>
<path d="M440.269 262.744H58.728V328.787H440.269V262.744Z" fill="#F5F5F5"/>
<path d="M83.1331 293.203V272.671H78.5781V293.203C78.5781 294.734 77.5801 296.087 76.1171 296.538C74.5931 297.008 73.5811 298.453 73.6601 300.046L75.0851 328.787H86.6281L88.0531 300.046C88.1321 298.452 87.1201 297.008 85.5961 296.538C84.1311 296.087 83.1331 294.734 83.1331 293.203Z" fill="#EBEBEB"/>
<path d="M112.273 298.571V278.222H105.284V298.571C105.284 300.663 103.832 302.475 101.79 302.931C99.7479 303.387 98.2959 305.198 98.2959 307.291V328.788H119.263V307.29C119.263 305.198 117.811 303.386 115.768 302.93C113.726 302.475 112.273 300.663 112.273 298.571Z" fill="#EBEBEB"/>
<path d="M139.559 290.246V275.549H133.845V290.246C133.845 291.807 133.143 293.285 131.933 294.272C130.723 295.258 130.021 296.737 130.021 298.298V328.788H143.382V298.298C143.382 296.737 142.68 295.259 141.47 294.272C140.262 293.285 139.559 291.807 139.559 290.246Z" fill="#EBEBEB"/>
<path d="M168.018 293.92V275.549H161.234V293.919C161.234 296.251 160.647 298.546 159.526 300.592C158.406 302.638 157.818 304.932 157.818 307.265V328.788H171.432V307.265C171.432 304.933 170.845 302.638 169.725 300.593C168.605 298.547 168.018 296.252 168.018 293.92Z" fill="#EBEBEB"/>
<path d="M195.226 289.922V278.221H189.873V289.922C189.873 292.394 188.368 294.616 186.072 295.533C183.676 296.49 182.152 298.864 182.279 301.441L183.626 328.788H201.475L202.822 301.441C202.949 298.864 201.425 296.49 199.028 295.533C196.731 294.616 195.226 292.393 195.226 289.922Z" fill="#EBEBEB"/>
<path d="M222.75 293.203V272.671H218.195V293.203C218.195 294.734 217.197 296.087 215.734 296.538C214.21 297.008 213.198 298.453 213.277 300.046L214.702 328.787H226.245L227.67 300.046C227.749 298.452 226.738 297.008 225.213 296.538C223.748 296.087 222.75 294.734 222.75 293.203Z" fill="#EBEBEB"/>
<path d="M251.89 298.571V278.222H244.901V298.571C244.901 300.663 243.449 302.475 241.406 302.931C239.364 303.387 237.911 305.198 237.911 307.291V328.788H258.878V307.29C258.878 305.198 257.426 303.386 255.384 302.93C253.342 302.475 251.89 300.663 251.89 298.571Z" fill="#EBEBEB"/>
<path d="M279.176 290.246V275.549H273.462V290.246C273.462 291.807 272.76 293.285 271.55 294.272C270.34 295.258 269.638 296.737 269.638 298.298V328.788H283V298.298C283 296.737 282.298 295.259 281.088 294.272C279.878 293.285 279.176 291.807 279.176 290.246Z" fill="#EBEBEB"/>
<path d="M307.634 293.92V275.549H300.85V293.919C300.85 296.251 300.263 298.546 299.142 300.592C298.022 302.638 297.434 304.932 297.434 307.265V328.788H311.048V307.265C311.048 304.933 310.461 302.638 309.341 300.593C308.222 298.547 307.634 296.252 307.634 293.92Z" fill="#EBEBEB"/>
<path d="M334.842 289.922V278.221H329.489V289.922C329.489 292.394 327.984 294.616 325.688 295.533C323.292 296.49 321.768 298.864 321.895 301.441L323.242 328.788H341.091L342.438 301.441C342.565 298.864 341.041 296.49 338.645 295.533C336.348 294.616 334.842 292.393 334.842 289.922Z" fill="#EBEBEB"/>
<path d="M362.367 293.203V272.671H357.812V293.203C357.812 294.734 356.814 296.087 355.351 296.538C353.826 297.008 352.815 298.453 352.894 300.046L354.319 328.787H365.862L367.287 300.046C367.366 298.452 366.354 297.008 364.83 296.538C363.365 296.087 362.367 294.734 362.367 293.203Z" fill="#EBEBEB"/>
<path d="M391.507 298.571V278.222H384.518V298.571C384.518 300.663 383.066 302.475 381.023 302.931C378.981 303.387 377.529 305.198 377.529 307.291V328.788H398.496V307.29C398.496 305.198 397.044 303.386 395.001 302.93C392.959 302.475 391.507 300.663 391.507 298.571Z" fill="#EBEBEB"/>
<path d="M418.793 290.246V275.549H413.079V290.246C413.079 291.807 412.377 293.285 411.167 294.272C409.957 295.258 409.255 296.737 409.255 298.298V328.788H422.616V298.298C422.616 296.737 421.914 295.259 420.704 294.272C419.495 293.285 418.793 291.807 418.793 290.246Z" fill="#EBEBEB"/>
<path d="M440.269 186.409H58.728V252.452H440.269V186.409Z" fill="#F5F5F5"/>
<path d="M416.157 213.911V199.214H421.871V213.911C421.871 215.472 422.573 216.95 423.783 217.937C424.993 218.923 425.695 220.402 425.695 221.963V252.453H412.334V221.963C412.334 220.402 413.036 218.924 414.246 217.937C415.455 216.95 416.157 215.472 416.157 213.911Z" fill="#EBEBEB"/>
<path d="M387.699 217.585V199.214H394.482V217.585C394.482 219.917 395.069 222.212 396.19 224.258C397.31 226.303 397.898 228.598 397.898 230.931V252.454H384.284V230.93C384.284 228.598 384.871 226.303 385.991 224.258C387.111 222.213 387.699 219.917 387.699 217.585Z" fill="#EBEBEB"/>
<path d="M360.491 213.587V201.887H365.844V213.587C365.844 216.059 367.349 218.281 369.645 219.198C372.041 220.155 373.565 222.529 373.438 225.106L372.091 252.453H354.242L352.895 225.106C352.768 222.529 354.292 220.155 356.688 219.198C358.985 218.281 360.491 216.058 360.491 213.587Z" fill="#EBEBEB"/>
<path d="M332.966 216.868V196.336H337.521V216.868C337.521 218.399 338.519 219.752 339.982 220.203C341.507 220.673 342.518 222.118 342.439 223.711L341.014 252.452H329.471L328.046 223.711C327.967 222.118 328.978 220.673 330.503 220.203C331.968 219.752 332.966 218.399 332.966 216.868Z" fill="#EBEBEB"/>
<path d="M303.826 222.236V201.887H310.815V222.236C310.815 224.328 312.267 226.14 314.31 226.596C316.352 227.052 317.804 228.864 317.804 230.956V252.453H296.837V230.956C296.837 228.864 298.289 227.052 300.332 226.596C302.374 226.14 303.826 224.328 303.826 222.236Z" fill="#EBEBEB"/>
<path d="M276.54 213.911V199.214H282.254V213.911C282.254 215.472 282.956 216.95 284.166 217.937C285.376 218.923 286.078 220.402 286.078 221.963V252.453H272.717V221.963C272.717 220.402 273.419 218.924 274.629 217.937C275.838 216.95 276.54 215.472 276.54 213.911Z" fill="#EBEBEB"/>
<path d="M248.082 217.585V199.214H254.866V217.585C254.866 219.917 255.453 222.212 256.574 224.258C257.695 226.303 258.282 228.598 258.282 230.931V252.454H244.668V230.93C244.668 228.598 245.255 226.303 246.376 224.258C247.495 222.213 248.082 219.917 248.082 217.585Z" fill="#EBEBEB"/>
<path d="M220.874 213.587V201.887H226.227V213.587C226.227 216.059 227.732 218.281 230.028 219.198C232.424 220.155 233.948 222.529 233.821 225.106L232.474 252.453H214.625L213.278 225.106C213.151 222.529 214.675 220.155 217.071 219.198C219.368 218.281 220.874 216.058 220.874 213.587Z" fill="#EBEBEB"/>
<path d="M193.35 216.868V196.336H197.905V216.868C197.905 218.399 198.903 219.752 200.366 220.203C201.891 220.673 202.902 222.118 202.823 223.711L201.398 252.452H189.855L188.43 223.711C188.351 222.118 189.363 220.673 190.887 220.203C192.352 219.752 193.35 218.399 193.35 216.868Z" fill="#EBEBEB"/>
<path d="M164.21 222.236V201.887H171.199V222.236C171.199 224.328 172.651 226.14 174.694 226.596C176.736 227.052 178.189 228.864 178.189 230.956V252.453H157.222V230.956C157.222 228.864 158.674 227.052 160.716 226.596C162.757 226.14 164.21 224.328 164.21 222.236Z" fill="#EBEBEB"/>
<path d="M136.923 213.911V199.214H142.637V213.911C142.637 215.472 143.339 216.95 144.549 217.937C145.759 218.923 146.461 220.402 146.461 221.963V252.453H133.1V221.963C133.1 220.402 133.802 218.924 135.012 217.937C136.221 216.95 136.923 215.472 136.923 213.911Z" fill="#EBEBEB"/>
<path d="M108.465 217.585V199.214H115.249V217.585C115.249 219.917 115.836 222.212 116.957 224.258C118.078 226.303 118.665 228.598 118.665 230.931V252.454H105.05V230.93C105.05 228.598 105.637 226.303 106.757 224.258C107.878 222.213 108.465 219.917 108.465 217.585Z" fill="#EBEBEB"/>
<path d="M81.2571 213.587V201.887H86.6101V213.587C86.6101 216.059 88.1151 218.281 90.4111 219.198C92.8071 220.155 94.3311 222.529 94.2051 225.106L92.8581 252.453H75.0101L73.6631 225.106C73.5361 222.529 75.0601 220.155 77.4561 219.198C79.7521 218.281 81.2571 216.058 81.2571 213.587Z" fill="#EBEBEB"/>
<path d="M153.802 168.411H96.0479L123.333 135.866H126.517L153.802 168.411Z" fill="#E0E0E0"/>
<path d="M126.425 66.3423H123.425V141.131H126.425V66.3423Z" fill="#E0E0E0"/>
<path d="M403.952 168.411H346.198L373.483 135.866H376.667L403.952 168.411Z" fill="#E0E0E0"/>
<path d="M376.575 66.3423H373.575V141.131H376.575V66.3423Z" fill="#E0E0E0"/>
<path d="M250 427.561C357.082 427.561 443.889 422.492 443.889 416.238C443.889 409.985 357.082 404.915 250 404.915C142.918 404.915 56.1108 409.985 56.1108 416.238C56.1108 422.492 142.918 427.561 250 427.561Z" fill="#F5F5F5"/>
<path d="M244.416 258.101C252.305 251.868 262.533 248.916 272.527 249.527C279.951 250.224 284.408 251.271 291.073 252.444C301.543 254.407 313.275 256.721 323.593 258.52C332.321 259.981 341.298 261.656 349.946 261.776C349.961 261.78 349.954 261.788 349.962 261.802C349.748 261.888 349.56 261.943 349.303 262.055C348.456 262.377 347.677 262.81 346.925 263.34C344.046 265.172 341.356 270.091 342.32 273.246C342.374 273.254 342.356 272.966 342.263 272.576C341.694 270.37 340.282 267.536 339.067 265.226C334.07 256.105 328.098 247.357 321.899 238.662C318.826 234.363 315.266 229.694 312.01 225.482L310.316 223.323C309.759 222.612 309.113 221.933 309.035 220.836L322.125 207.976C323.352 208.214 324.002 208.881 324.737 209.518L326.904 211.42L331.193 215.255C344.976 228.2 374.138 253.565 373.179 273.705C373.074 280.854 368.15 288.382 361.396 291.201C357.801 292.858 353.434 293.528 349.619 293.783C343.008 294.214 336.605 293.782 330.348 293.275C318.8 292.297 307.29 290.636 295.997 288.821C289.507 287.846 280.618 286.185 274.092 285.106C270.235 284.524 269.1 283.946 266.209 285.481C266.209 285.481 266.153 285.512 266.208 285.479L266.28 285.424L266.717 285.076L244.416 258.101Z" fill="#E06330"/>
<path opacity="0.6" d="M244.416 258.101C252.305 251.868 262.533 248.916 272.527 249.527C279.951 250.224 284.408 251.271 291.073 252.444C301.543 254.407 313.275 256.721 323.593 258.52C332.321 259.981 341.298 261.656 349.946 261.776C349.961 261.78 349.954 261.788 349.962 261.802C349.748 261.888 349.56 261.943 349.303 262.055C348.456 262.377 347.677 262.81 346.925 263.34C344.046 265.172 341.356 270.091 342.32 273.246C342.374 273.254 342.356 272.966 342.263 272.576C341.694 270.37 340.282 267.536 339.067 265.226C334.07 256.105 328.098 247.357 321.899 238.662C318.826 234.363 315.266 229.694 312.01 225.482L310.316 223.323C309.759 222.612 309.113 221.933 309.035 220.836L322.125 207.976C323.352 208.214 324.002 208.881 324.737 209.518L326.904 211.42L331.193 215.255C344.976 228.2 374.138 253.565 373.179 273.705C373.074 280.854 368.15 288.382 361.396 291.201C357.801 292.858 353.434 293.528 349.619 293.783C343.008 294.214 336.605 293.782 330.348 293.275C318.8 292.297 307.29 290.636 295.997 288.821C289.507 287.846 280.618 286.185 274.092 285.106C270.235 284.524 269.1 283.946 266.209 285.481C266.209 285.481 266.153 285.512 266.208 285.479L266.28 285.424L266.717 285.076L244.416 258.101Z" fill="white"/>
<path opacity="0.2" d="M305.385 290.272C302.235 289.817 299.113 289.331 295.999 288.825C292.27 288.233 288.559 287.599 284.888 286.964L284.099 286.828L285.213 263.8C285.212 263.798 300.152 272.677 305.385 290.272Z" fill="black"/>
<path d="M322.507 225.307L303.155 223.667L311.547 201.939C311.547 201.939 328.889 205.551 328.459 215.075L322.507 225.307Z" fill="#EBB376"/>
<path d="M290.027 208.35L294.252 201.231C295.934 198.397 299.421 197.198 302.49 198.398L311.547 201.939L303.155 223.667L292.502 217.644C289.218 215.787 288.101 211.594 290.027 208.35Z" fill="#EBB376"/>
<path d="M188.903 360.196C188.953 360.363 189.013 360.54 189.072 360.717C194.077 382.301 190.27 381.563 193.61 399.163C193.61 399.163 192.992 401.885 193.398 404.582H297.664C301.059 402.314 302.448 393.569 296.903 388.586C294.429 356.224 297.003 330.894 297.214 314.637C297.214 314.637 297.214 314.637 297.213 314.627C297.243 311.761 297.244 308.926 297.153 306.047C296.947 298.437 296.242 290.504 294.47 280.858C292.146 268.158 272.189 249.455 272.178 249.456C264.581 248.64 260.864 249.689 254.582 250.191C233.284 251.895 207.218 256.991 188.285 262.999C180.422 265.493 174.606 271.447 172.014 278.634C170.113 283.859 169.922 289.738 171.872 295.408C181.317 322.932 182.114 339.483 188.903 360.196Z" fill="#263238"/>
<path d="M258.289 293.631C258.303 296.745 258.188 299.877 257.921 302.976C256.287 300.443 251.917 296.993 246.217 293.035C231.804 283.015 208.918 269.775 200.554 260.108L235.769 259.068C235.769 259.068 237.477 253.951 242.23 253.687C252.346 254.953 258.174 273.696 258.289 293.631Z" fill="#E06330"/>
<path opacity="0.7" d="M258.289 293.631C258.303 296.745 258.188 299.877 257.921 302.976C256.287 300.443 251.917 296.993 246.217 293.035C231.804 283.015 208.918 269.775 200.554 260.108L235.769 259.068C235.769 259.068 237.477 253.951 242.23 253.687C252.346 254.953 258.174 273.696 258.289 293.631Z" fill="white"/>
<path d="M258.289 293.631C258.303 296.745 258.188 299.877 257.921 302.976C256.287 300.443 251.917 296.993 246.217 293.035L241.79 274.624L228.884 265.582L234.684 257.545L245.924 260.08L246.617 272.461L258.289 293.631Z" fill="#E06330"/>
<path d="M188.903 360.196C182.114 339.483 181.317 322.932 171.872 295.407C169.922 289.737 170.113 283.857 172.014 278.633C183.771 268.239 201.404 289.967 203.892 319.724C205.538 339.423 198.212 357.411 188.903 360.196Z" fill="#E06330"/>
<path opacity="0.7" d="M204.126 325.32C204.11 342.728 197.326 357.681 188.903 360.196C184.229 345.955 182.399 333.668 178.631 318.435C177.012 311.885 175.042 304.784 172.329 296.754C172.184 296.311 172.029 295.859 171.873 295.407C169.923 289.737 170.114 283.857 172.015 278.633C182.245 269.587 196.923 284.87 202.208 308.591C202.987 312.133 203.566 315.856 203.893 319.724C204.049 321.608 204.124 323.487 204.126 325.32Z" fill="white"/>
<path d="M265.379 322.996C265.568 324.401 265.001 325.636 264.114 325.755C263.227 325.874 262.355 324.832 262.166 323.427C261.977 322.022 262.544 320.787 263.431 320.668C264.319 320.548 265.191 321.591 265.379 322.996Z" fill="white"/>
<path d="M268.789 349.885C268.978 351.29 268.411 352.525 267.524 352.644C266.637 352.763 265.765 351.721 265.576 350.316C265.387 348.911 265.954 347.676 266.841 347.557C267.728 347.438 268.6 348.48 268.789 349.885Z" fill="white"/>
<path d="M272.397 378.651C272.586 380.056 272.019 381.291 271.132 381.41C270.245 381.529 269.373 380.487 269.184 379.082C268.995 377.677 269.562 376.442 270.449 376.323C271.336 376.203 272.208 377.246 272.397 378.651Z" fill="white"/>
<path opacity="0.2" d="M215.051 324.017C211.628 325.13 207.912 325.489 204.127 325.32C195.101 324.934 185.639 321.578 178.632 318.435C177.013 311.885 175.043 304.784 172.33 296.754C181.783 299.58 193.15 304.041 202.209 308.591C214.832 314.925 222.939 321.452 215.051 324.017Z" fill="black"/>
<path d="M297.154 306.047C281.273 290.391 272.18 249.455 272.18 249.455C272.19 249.454 292.147 268.157 294.471 280.857C296.243 290.503 296.948 298.436 297.154 306.047Z" fill="#E06330"/>
<path opacity="0.7" d="M297.154 306.047C281.273 290.391 272.18 249.455 272.18 249.455C272.19 249.454 292.147 268.157 294.471 280.857C296.243 290.503 296.948 298.436 297.154 306.047Z" fill="white"/>
<path d="M204.016 219.112C207.377 237.015 205.919 247.95 203.717 258.379C203.506 259.38 203.917 260.426 204.79 260.96C212.776 265.849 221.604 262.576 235.828 260.121C249.885 257.695 250.823 259.821 246.584 255.509C245.981 254.896 245.232 254.442 244.425 254.146C233.772 250.245 232.01 242.691 233.83 237.595L204.016 219.112Z" fill="#EBB376"/>
<path opacity="0.2" d="M204.023 219.117L233.838 237.597C232.807 240.45 232.913 244.098 235.117 247.435C230.124 248.534 224.681 247.891 219.473 244.91C211.866 240.553 208.397 234.374 205.029 225.372C204.773 223.385 204.428 221.315 204.023 219.117Z" fill="black"/>
<path d="M229.945 177.546C229.945 177.546 242.965 184.59 240.262 207.019C237.559 229.449 207.756 187.281 229.945 177.546Z" fill="#EBB376"/>
<path opacity="0.5" d="M229.945 177.546C229.945 177.546 242.965 184.59 240.262 207.019C237.559 229.449 207.756 187.281 229.945 177.546Z" fill="black"/>
<path d="M194.18 208.538C198.503 225.438 196.58 228.636 206.898 235.686C222.418 246.291 244.177 244.814 243.954 226.898C243.754 210.772 239.979 182.203 221.935 178.751C204.159 175.35 189.858 191.638 194.18 208.538Z" fill="#EBB376"/>
<path d="M215.206 206.333C215.541 207.781 216.23 207.782 217.176 207.555C218.122 207.328 218.966 206.958 218.632 205.51C218.298 204.062 217.259 203.071 216.313 203.299C215.367 203.526 214.871 204.885 215.206 206.333Z" fill="#263238"/>
<path d="M233.258 204.053C233.593 205.502 234.282 205.502 235.228 205.275C236.174 205.048 237.018 204.678 236.684 203.23C236.349 201.782 235.312 200.792 234.366 201.019C233.42 201.246 232.924 202.605 233.258 204.053Z" fill="#263238"/>
<path d="M230.375 203.919C230.375 203.919 234.019 209.963 237.359 212.601C235.678 214.811 232.151 214.557 232.151 214.557L230.375 203.919Z" fill="#D58745"/>
<path d="M211.259 200.298C211.114 200.294 210.968 200.253 210.835 200.173C210.424 199.924 210.296 199.386 210.549 198.973C213.08 194.833 217.11 194.645 217.28 194.639C217.763 194.622 218.163 195 218.176 195.482C218.189 195.963 217.81 196.367 217.33 196.386C217.197 196.392 214.057 196.572 212.037 199.876C211.866 200.156 211.564 200.307 211.259 200.298Z" fill="#263238"/>
<path d="M239.018 195.947C238.753 196.045 238.446 196.012 238.203 195.832C235.117 193.546 232.151 194.594 232.026 194.64C231.574 194.806 231.075 194.575 230.912 194.123C230.748 193.671 230.978 193.17 231.427 193C231.591 192.942 235.377 191.556 239.243 194.42C239.629 194.706 239.709 195.254 239.422 195.644C239.315 195.787 239.173 195.89 239.018 195.947Z" fill="#263238"/>
<path d="M230.094 223.481C222.698 223.481 219.916 219.277 219.783 219.068C219.672 218.894 219.722 218.663 219.897 218.551C220.071 218.439 220.302 218.49 220.415 218.664C220.451 218.72 224.123 224.204 234.175 222.333C234.379 222.294 234.574 222.43 234.613 222.633C234.651 222.837 234.517 223.032 234.313 223.071C232.765 223.358 231.361 223.481 230.094 223.481Z" fill="#263238"/>
<path d="M202.636 194.353C202.636 194.353 202.462 188.335 207.301 185.687C212.14 183.039 226.046 188.063 233.703 181.134C233.703 181.134 240.495 169.257 226.486 165.287C212.478 161.317 188.687 170.436 182.479 182.211C176.271 193.986 180.683 202.014 180.683 202.014C180.254 198.478 180.955 196.674 180.955 196.674C180.955 196.674 180.504 204.711 186.577 209.341L202.636 194.353Z" fill="#263238"/>
<path d="M198.13 219.788C206.457 223.523 203.809 215.523 203.169 214.743C200.371 211.332 201.996 206.063 203.933 198.664C204.795 195.372 203.407 190.279 203.407 190.279C203.407 190.279 193.523 189.379 187.881 191.422C182.056 193.531 182.326 198.363 182.326 198.363C185.149 213.366 191.421 216.778 198.13 219.788Z" fill="#EBB376"/>
<path opacity="0.5" d="M198.13 219.788C206.457 223.523 203.809 215.523 203.169 214.743C200.371 211.332 201.996 206.063 203.933 198.664C204.795 195.372 203.407 190.279 203.407 190.279C203.407 190.279 193.523 189.379 187.881 191.422C182.056 193.531 182.326 198.363 182.326 198.363C185.149 213.366 191.421 216.778 198.13 219.788Z" fill="black"/>
<path d="M188.547 221.449C191.009 225.237 194.716 227.559 198.007 228.301C202.958 229.417 204.642 224.459 202.602 219.53C200.766 215.093 195.978 209.166 191.328 210.268C186.746 211.354 185.732 217.118 188.547 221.449Z" fill="#EBB376"/>
<path d="M204.913 249.406C204.913 249.406 211.188 254.633 234.685 257.543C234.685 257.543 236.853 251.739 235.116 247.435L247.063 250.595C247.063 250.595 252.918 256.089 254.64 267.963L235.826 260.12L226.762 279.911C226.762 279.911 203.615 269.189 199.108 259.016C199.108 259.016 202.311 247.893 204.913 249.406Z" fill="#E06330"/>
<path opacity="0.6" d="M204.913 249.406C204.913 249.406 211.188 254.633 234.685 257.543C234.685 257.543 236.853 251.739 235.116 247.435L247.063 250.595C247.063 250.595 252.918 256.089 254.64 267.963L235.826 260.12L226.762 279.911C226.762 279.911 203.615 269.189 199.108 259.016C199.108 259.016 202.311 247.893 204.913 249.406Z" fill="white"/>
<path d="M305.031 256.412C298.073 252.559 291.114 248.706 284.155 244.852C284.033 240.509 283.85 236.128 283.653 231.737C293.761 215.978 305.396 200.985 317.213 186.213C323.872 189.9 330.531 193.587 337.19 197.275C330.94 215.13 324.407 232.948 316.413 249.878C312.587 252.041 308.777 254.211 305.031 256.412Z" fill="#263238"/>
<path opacity="0.6" d="M305.031 256.412C298.073 252.559 291.114 248.706 284.155 244.852C284.033 240.509 283.85 236.128 283.653 231.737C293.761 215.978 305.396 200.985 317.213 186.213C323.872 189.9 330.531 193.587 337.19 197.275C330.94 215.13 324.407 232.948 316.413 249.878C312.587 252.041 308.777 254.211 305.031 256.412Z" fill="white"/>
<path opacity="0.2" d="M283.654 231.737L316.414 249.877C316.414 249.877 308.49 242.433 283.654 231.737Z" fill="black"/>
<path opacity="0.2" d="M297.491 250.932L303.884 244.691L310.628 248.426L302.586 253.754L297.491 250.932Z" fill="white"/>
<path opacity="0.2" d="M329.086 193.873L306.326 241.696L312.471 245.098L332.983 196.031L329.086 193.873Z" fill="white"/>
<path d="M295.597 269.345L282.713 254.813L303.773 244.864C303.773 244.864 313.842 259.438 306.962 266.039L295.597 269.345Z" fill="#EBB376"/>
<path d="M283.767 234.668L291.736 232.426C294.908 231.533 298.261 233.069 299.656 236.055L303.773 244.865L282.713 254.814L279.151 243.106C278.053 239.496 280.135 235.689 283.767 234.668Z" fill="#EBB376"/>
<path d="M178.153 275.925C191.201 275.433 256.198 300.906 256.198 300.906L289.26 262.199C289.26 262.199 301.094 259.744 309.779 266.809C309.779 266.809 286.943 325.061 269.85 332.442C245.137 343.113 193.164 321.087 182.09 314.377C171.016 307.667 164.62 297.815 172.014 278.633L178.153 275.925Z" fill="#E06330"/>
<path opacity="0.7" d="M178.153 275.925C191.201 275.433 256.198 300.906 256.198 300.906L289.26 262.199C289.26 262.199 301.094 259.744 309.779 266.809C309.779 266.809 286.943 325.061 269.85 332.442C245.137 343.113 193.164 321.087 182.09 314.377C171.016 307.667 164.62 297.815 172.014 278.633L178.153 275.925Z" fill="white"/>
<path d="M402.318 316.539V265.154C402.318 264.66 401.918 264.26 401.424 264.26H390.552C390.058 264.26 389.658 264.66 389.658 265.154V316.539C389.658 319.588 388.046 322.41 385.42 323.959L380.741 326.719C377.858 328.42 376.088 331.518 376.088 334.865V396.906H415.885V334.865C415.885 331.518 414.116 328.419 411.232 326.718L406.553 323.958C403.929 322.409 402.318 319.588 402.318 316.539Z" fill="#E06330"/>
<path opacity="0.5" d="M402.318 316.539V265.154C402.318 264.66 401.918 264.26 401.424 264.26H390.552C390.058 264.26 389.658 264.66 389.658 265.154V316.539C389.658 319.588 388.046 322.41 385.42 323.959L380.741 326.719C377.858 328.42 376.088 331.518 376.088 334.865V396.906H415.885V334.865C415.885 331.518 414.116 328.419 411.232 326.718L406.553 323.958C403.929 322.409 402.318 319.588 402.318 316.539Z" fill="white"/>
<path opacity="0.4" d="M410.218 328.441L405.539 325.681C402.318 323.78 400.318 320.277 400.318 316.538V291.307H391.659V316.537C391.659 320.276 389.659 323.779 386.437 325.681L381.758 328.441C379.495 329.776 378.089 332.238 378.089 334.865V394.906H413.886V334.865C413.886 332.238 412.481 329.776 410.218 328.441Z" fill="#E06330"/>
<path d="M402.12 270.335H389.856C389.31 270.335 388.867 269.892 388.867 269.346V268.589C388.867 268.043 389.31 267.6 389.856 267.6H402.12C402.666 267.6 403.109 268.043 403.109 268.589V269.346C403.109 269.892 402.666 270.335 402.12 270.335Z" fill="#E06330"/>
<path opacity="0.6" d="M402.12 270.335H389.856C389.31 270.335 388.867 269.892 388.867 269.346V268.589C388.867 268.043 389.31 267.6 389.856 267.6H402.12C402.666 267.6 403.109 268.043 403.109 268.589V269.346C403.109 269.892 402.666 270.335 402.12 270.335Z" fill="white"/>
<path d="M415.886 342.86H376.089V388.689H415.886V342.86Z" fill="#263238"/>
<path opacity="0.2" d="M415.886 382.062H376.089V386.216H415.886V382.062Z" fill="white"/>
<path opacity="0.2" d="M416.188 345.864H376.089V347.446H416.188V345.864Z" fill="white"/>
<path d="M356.507 337.197C357.129 336.295 356.483 335.065 355.387 335.065H316.129C315.033 335.065 314.387 336.295 315.009 337.197L332.818 363.028V390.504L323.526 394.579C322.321 395.107 322.699 396.906 324.014 396.906H347.502C348.817 396.906 349.194 395.107 347.99 394.579L338.698 390.504V363.028L356.507 337.197Z" fill="#E06330"/>
<path opacity="0.7" d="M356.507 337.197C357.129 336.295 356.483 335.065 355.387 335.065H316.129C315.033 335.065 314.387 336.295 315.009 337.197L332.818 363.028V390.504L323.526 394.579C322.321 395.107 322.699 396.906 324.014 396.906H347.502C348.817 396.906 349.194 395.107 347.99 394.579L338.698 390.504V363.028L356.507 337.197Z" fill="white"/>
<path d="M321.258 342.736L334.285 361.631C334.619 362.116 335.17 362.405 335.759 362.405C336.348 362.405 336.898 362.116 337.232 361.631L350.259 342.736H321.258Z" fill="#E06330"/>
<path opacity="0.2" d="M345.534 336.604L335.879 361.493V390.802L343.567 395.361H347.535L336.83 390.504V361.692L352.457 336.604H345.534Z" fill="white"/>
<path d="M139.102 343.303L136.995 343.848L149.234 391.147L151.34 390.602L139.102 343.303Z" fill="#E06330"/>
<path opacity="0.7" d="M139.102 343.303L136.995 343.848L149.234 391.147L151.34 390.602L139.102 343.303Z" fill="white"/>
<path d="M141.741 351.204L138.534 352.034C137.516 352.297 136.477 351.686 136.214 350.668L129.834 326.013C129.571 324.995 130.182 323.956 131.2 323.693L134.408 322.863C135.426 322.6 136.465 323.211 136.728 324.229L143.108 348.884C143.371 349.902 142.759 350.941 141.741 351.204Z" fill="#E06330"/>
<path d="M176.215 355.791H139.028V396.906H176.215V355.791Z" fill="#263238"/>
<path opacity="0.6" d="M176.215 355.791H139.028V396.906H176.215V355.791Z" fill="white"/>
<path opacity="0.2" d="M170.497 358.447H162.369V395.361H170.497V358.447Z" fill="white"/>
<path d="M112.101 343.298V302.976H101.024V343.298C101.024 344.715 99.8752 345.864 98.4582 345.864H93.0652C90.0322 345.864 87.5742 348.322 87.5742 351.355V396.906H125.552V351.355C125.552 348.322 123.093 345.864 120.061 345.864H114.668C113.249 345.864 112.101 344.715 112.101 343.298Z" fill="#E06330"/>
<path opacity="0.3" d="M112.101 343.298V302.976H101.024V343.298C101.024 344.715 99.8752 345.864 98.4582 345.864H93.0652C90.0322 345.864 87.5742 348.322 87.5742 351.355V396.906H125.552V351.355C125.552 348.322 123.093 345.864 120.061 345.864H114.668C113.249 345.864 112.101 344.715 112.101 343.298Z" fill="white"/>
<path opacity="0.7" d="M120.968 358.403H92.1562V387.215H120.968V358.403Z" fill="white"/>
<path opacity="0.7" d="M119.468 385.715H93.6562V359.903H119.468V385.715ZM94.6562 384.715H118.468V360.903H94.6562V384.715Z" fill="white"/>
<path d="M111.886 307.396H101.238C100.765 307.396 100.381 307.012 100.381 306.539V304.957C100.381 304.484 100.765 304.1 101.238 304.1H111.886C112.359 304.1 112.743 304.484 112.743 304.957V306.539C112.743 307.012 112.359 307.396 111.886 307.396Z" fill="#E06330"/>
<path opacity="0.5" d="M111.886 307.396H101.238C100.765 307.396 100.381 307.012 100.381 306.539V304.957C100.381 304.484 100.765 304.1 101.238 304.1H111.886C112.359 304.1 112.743 304.484 112.743 304.957V306.539C112.743 307.012 112.359 307.396 111.886 307.396Z" fill="white"/>
<path d="M428.984 398.629H66.876V416.572H428.984V398.629Z" fill="#263238"/>
<path opacity="0.2" d="M428.984 398.629H66.876V416.572H428.984V398.629Z" fill="white"/>
<path d="M432.9 396.906H62.9609C61.8449 396.906 60.9409 397.81 60.9409 398.926V401.827C60.9409 402.943 61.8449 403.847 62.9609 403.847H432.9C434.016 403.847 434.92 402.943 434.92 401.827V398.926C434.919 397.81 434.015 396.906 432.9 396.906Z" fill="#263238"/>
<path opacity="0.4" d="M432.9 396.906H62.9609C61.8449 396.906 60.9409 397.81 60.9409 398.926V401.827C60.9409 402.943 61.8449 403.847 62.9609 403.847H432.9C434.016 403.847 434.92 402.943 434.92 401.827V398.926C434.919 397.81 434.015 396.906 432.9 396.906Z" fill="white"/>
</svg>
