<svg width="750" height="500" viewBox="0 0 750 500" fill="none" xmlns="http://www.w3.org/2000/svg">
<path d="M720.64 202.821C696.825 148.663 651.817 106.739 596.538 85.6548C539.496 63.8978 455.717 42.6258 357.263 50.4858C171.32 65.3288 11.9411 230.178 19.7531 282.523C27.5661 334.868 283.042 502.061 458.828 465.341C634.614 428.621 731.683 319.676 729.148 230.959C728.953 224.123 725.584 214.064 720.64 202.821Z" fill="#E06330"/>
<path opacity="0.7" d="M720.64 202.821C696.825 148.663 651.817 106.739 596.538 85.6548C539.496 63.8978 455.717 42.6258 357.263 50.4858C171.32 65.3288 11.9411 230.178 19.7531 282.523C27.5661 334.868 283.042 502.061 458.828 465.341C634.614 428.621 731.683 319.676 729.148 230.959C728.953 224.123 725.584 214.064 720.64 202.821Z" fill="white"/>
<path d="M18.6509 438.139H732.584" stroke="#263238" stroke-miterlimit="10" stroke-linecap="round" stroke-linejoin="round"/>
<path d="M433.087 70.4819H356.474V170.61H433.087V70.4819Z" fill="#263238" stroke="#263238" stroke-miterlimit="10" stroke-linecap="round" stroke-linejoin="round"/>
<path d="M430.02 74.4907H359.542V166.601H430.02V74.4907Z" fill="white" stroke="#263238" stroke-miterlimit="10" stroke-linecap="round" stroke-linejoin="round"/>
<path d="M413.307 96.334H376.255V144.758H413.307V96.334Z" fill="#263238" stroke="#263238" stroke-miterlimit="10" stroke-linecap="round" stroke-linejoin="round"/>
<path d="M506.439 55.6509H451.651V93.6799H506.439V55.6509Z" stroke="#263238" stroke-miterlimit="10" stroke-linecap="round" stroke-linejoin="round"/>
<path d="M567.028 55.6509H512.24V93.6799H567.028V55.6509Z" stroke="#263238" stroke-miterlimit="10" stroke-linecap="round" stroke-linejoin="round"/>
<path d="M627.617 55.6509H572.829V93.6799H627.617V55.6509Z" stroke="#263238" stroke-miterlimit="10" stroke-linecap="round" stroke-linejoin="round"/>
<path d="M688.206 55.6509H633.418V93.6799H688.206V55.6509Z" stroke="#263238" stroke-miterlimit="10" stroke-linecap="round" stroke-linejoin="round"/>
<path d="M506.439 101.414H451.651V139.443H506.439V101.414Z" stroke="#263238" stroke-miterlimit="10" stroke-linecap="round" stroke-linejoin="round"/>
<path d="M567.028 101.414H512.24V139.443H567.028V101.414Z" stroke="#263238" stroke-miterlimit="10" stroke-linecap="round" stroke-linejoin="round"/>
<path d="M627.617 101.414H572.829V139.443H627.617V101.414Z" stroke="#263238" stroke-miterlimit="10" stroke-linecap="round" stroke-linejoin="round"/>
<path d="M688.206 101.414H633.418V139.443H688.206V101.414Z" stroke="#263238" stroke-miterlimit="10" stroke-linecap="round" stroke-linejoin="round"/>
<path d="M506.439 147.178H451.651V185.207H506.439V147.178Z" stroke="#263238" stroke-miterlimit="10" stroke-linecap="round" stroke-linejoin="round"/>
<path d="M567.028 147.178H512.24V185.207H567.028V147.178Z" stroke="#263238" stroke-miterlimit="10" stroke-linecap="round" stroke-linejoin="round"/>
<path d="M627.617 147.178H572.829V185.207H627.617V147.178Z" stroke="#263238" stroke-miterlimit="10" stroke-linecap="round" stroke-linejoin="round"/>
<path d="M688.206 147.178H633.418V185.207H688.206V147.178Z" stroke="#263238" stroke-miterlimit="10" stroke-linecap="round" stroke-linejoin="round"/>
<path d="M154.807 55.6509H100.019V93.6799H154.807V55.6509Z" stroke="#263238" stroke-miterlimit="10" stroke-linecap="round" stroke-linejoin="round"/>
<path d="M215.396 55.6509H160.608V93.6799H215.396V55.6509Z" stroke="#263238" stroke-miterlimit="10" stroke-linecap="round" stroke-linejoin="round"/>
<path d="M275.985 55.6509H221.197V93.6799H275.985V55.6509Z" stroke="#263238" stroke-miterlimit="10" stroke-linecap="round" stroke-linejoin="round"/>
<path d="M336.574 55.6509H281.786V93.6799H336.574V55.6509Z" stroke="#263238" stroke-miterlimit="10" stroke-linecap="round" stroke-linejoin="round"/>
<path d="M154.807 101.414H100.019V139.443H154.807V101.414Z" stroke="#263238" stroke-miterlimit="10" stroke-linecap="round" stroke-linejoin="round"/>
<path d="M215.396 101.414H160.608V139.443H215.396V101.414Z" stroke="#263238" stroke-miterlimit="10" stroke-linecap="round" stroke-linejoin="round"/>
<path d="M275.985 101.414H221.197V139.443H275.985V101.414Z" stroke="#263238" stroke-miterlimit="10" stroke-linecap="round" stroke-linejoin="round"/>
<path d="M336.574 101.414H281.786V139.443H336.574V101.414Z" stroke="#263238" stroke-miterlimit="10" stroke-linecap="round" stroke-linejoin="round"/>
<path d="M154.807 147.178H100.019V185.207H154.807V147.178Z" stroke="#263238" stroke-miterlimit="10" stroke-linecap="round" stroke-linejoin="round"/>
<path d="M215.396 147.178H160.608V185.207H215.396V147.178Z" stroke="#263238" stroke-miterlimit="10" stroke-linecap="round" stroke-linejoin="round"/>
<path d="M275.985 147.178H221.197V185.207H275.985V147.178Z" stroke="#263238" stroke-miterlimit="10" stroke-linecap="round" stroke-linejoin="round"/>
<path d="M336.574 147.178H281.786V185.207H336.574V147.178Z" stroke="#263238" stroke-miterlimit="10" stroke-linecap="round" stroke-linejoin="round"/>
<path d="M372.68 270.97L385.866 397.314" stroke="#263238" stroke-miterlimit="10" stroke-linecap="round" stroke-linejoin="round"/>
<path d="M383.268 372.608L377.763 366.821" stroke="#263238" stroke-miterlimit="10" stroke-linecap="round" stroke-linejoin="round"/>
<path d="M379.579 368.713C379.579 368.713 379.75 365.92 377.2 363.642C375.666 362.272 367.591 358.875 366.825 361.719C365.991 364.812 374.257 370.887 379.579 368.713Z" fill="#E06330" stroke="#263238" stroke-miterlimit="10"/>
<path d="M379.579 368.713L371.892 363.922" stroke="#263238" stroke-miterlimit="10" stroke-linecap="round" stroke-linejoin="round"/>
<path d="M384.636 385.659L379.263 381.19" stroke="#263238" stroke-miterlimit="10" stroke-linecap="round" stroke-linejoin="round"/>
<path d="M381.079 383.082C381.079 383.082 381.25 380.289 378.7 378.012C377.166 376.642 369.091 373.245 368.325 376.089C367.491 379.181 375.756 385.256 381.079 383.082Z" fill="#E06330" stroke="#263238" stroke-miterlimit="10"/>
<path d="M381.079 383.082L373.392 378.291" stroke="#263238" stroke-miterlimit="10" stroke-linecap="round" stroke-linejoin="round"/>
<path d="M379.532 336.642L374.104 331.759" stroke="#263238" stroke-miterlimit="10" stroke-linecap="round" stroke-linejoin="round"/>
<path d="M375.92 333.65C375.92 333.65 376.091 330.857 373.541 328.58C372.007 327.21 363.932 323.813 363.166 326.657C362.332 329.75 370.597 335.824 375.92 333.65Z" fill="#E06330" stroke="#263238" stroke-miterlimit="10"/>
<path d="M375.92 333.65L368.233 328.859" stroke="#263238" stroke-miterlimit="10" stroke-linecap="round" stroke-linejoin="round"/>
<path d="M381.045 351.922L375.604 346.127" stroke="#263238" stroke-miterlimit="10" stroke-linecap="round" stroke-linejoin="round"/>
<path d="M377.42 348.019C377.42 348.019 377.591 345.226 375.041 342.948C373.507 341.578 365.432 338.181 364.666 341.025C363.832 344.118 372.097 350.193 377.42 348.019Z" fill="#E06330" stroke="#263238" stroke-miterlimit="10"/>
<path d="M377.42 348.019L369.732 343.228" stroke="#263238" stroke-miterlimit="10" stroke-linecap="round" stroke-linejoin="round"/>
<path d="M377.113 313.967L371.668 308.417" stroke="#263238" stroke-miterlimit="10" stroke-linecap="round" stroke-linejoin="round"/>
<path d="M373.484 310.309C373.484 310.309 373.655 307.516 371.105 305.239C369.571 303.869 361.496 300.472 360.729 303.316C359.896 306.408 368.161 312.483 373.484 310.309Z" fill="#E06330" stroke="#263238" stroke-miterlimit="10"/>
<path d="M373.484 310.309L365.797 305.518" stroke="#263238" stroke-miterlimit="10" stroke-linecap="round" stroke-linejoin="round"/>
<path d="M374.492 289.006L369.222 284.974" stroke="#263238" stroke-miterlimit="10" stroke-linecap="round" stroke-linejoin="round"/>
<path d="M371.038 286.866C371.038 286.866 371.209 284.073 368.659 281.795C367.125 280.425 359.05 277.028 358.283 279.872C357.45 282.965 365.715 289.04 371.038 286.866Z" fill="#E06330" stroke="#263238" stroke-miterlimit="10"/>
<path d="M371.038 286.866L363.35 282.075" stroke="#263238" stroke-miterlimit="10" stroke-linecap="round" stroke-linejoin="round"/>
<path d="M382.736 364.633L387.281 357.221" stroke="#263238" stroke-miterlimit="10" stroke-linecap="round" stroke-linejoin="round"/>
<path d="M385.895 359.447C385.895 359.447 385.151 356.75 387.176 353.995C388.394 352.337 395.594 347.346 396.931 349.971C398.384 352.825 391.552 360.475 385.895 359.447Z" fill="#E06330" stroke="#263238" stroke-miterlimit="10"/>
<path d="M385.895 359.448L391.303 354.373" stroke="#263238" stroke-miterlimit="10" stroke-linecap="round" stroke-linejoin="round"/>
<path d="M378.79 326.821L383.335 319.409" stroke="#263238" stroke-miterlimit="10" stroke-linecap="round" stroke-linejoin="round"/>
<path d="M381.949 321.635C381.949 321.635 381.205 318.938 383.23 316.183C384.448 314.525 390.081 310.373 391.418 312.998C392.871 315.853 387.606 322.664 381.949 321.635Z" fill="#E06330" stroke="#263238" stroke-miterlimit="10"/>
<path d="M381.949 321.635L388.871 315.019" stroke="#263238" stroke-miterlimit="10" stroke-linecap="round" stroke-linejoin="round"/>
<path d="M377.056 310.204L381.601 302.792" stroke="#263238" stroke-miterlimit="10" stroke-linecap="round" stroke-linejoin="round"/>
<path d="M380.215 305.018C380.215 305.018 379.471 302.321 381.496 299.566C382.714 297.909 389.914 292.917 391.25 295.542C392.704 298.396 385.872 306.047 380.215 305.018Z" fill="#E06330" stroke="#263238" stroke-miterlimit="10"/>
<path d="M380.215 305.018L387.137 298.402" stroke="#263238" stroke-miterlimit="10" stroke-linecap="round" stroke-linejoin="round"/>
<path d="M374.513 285.844L379.059 278.432" stroke="#263238" stroke-miterlimit="10" stroke-linecap="round" stroke-linejoin="round"/>
<path d="M377.672 280.658C377.672 280.658 376.928 277.961 378.953 275.206C380.171 273.549 387.371 268.557 388.707 271.182C390.162 274.036 383.329 281.686 377.672 280.658Z" fill="#E06330" stroke="#263238" stroke-miterlimit="10"/>
<path d="M377.672 280.658L384.594 274.042" stroke="#263238" stroke-miterlimit="10" stroke-linecap="round" stroke-linejoin="round"/>
<path d="M372.569 270.268C372.569 270.268 371.825 267.571 373.85 264.816C375.068 263.158 382.268 258.168 383.605 260.792C385.059 263.646 378.227 271.297 372.569 270.268Z" fill="#E06330" stroke="#263238" stroke-miterlimit="10"/>
<path d="M372.569 270.268L379.491 263.652" stroke="#263238" stroke-miterlimit="10" stroke-linecap="round" stroke-linejoin="round"/>
<path d="M372.971 270.554C372.971 270.554 370.211 271.011 367.683 268.708C366.162 267.323 361.954 259.64 364.704 258.585C367.695 257.439 374.587 265.036 372.971 270.554Z" fill="#E06330" stroke="#263238" stroke-miterlimit="10"/>
<path d="M372.971 270.554L367.117 262.976" stroke="#263238" stroke-miterlimit="10" stroke-linecap="round" stroke-linejoin="round"/>
<path d="M392.433 236.919V396.698" stroke="#263238" stroke-miterlimit="10" stroke-linecap="round" stroke-linejoin="round"/>
<path d="M407.457 288.37L394.346 414.721" stroke="#263238" stroke-miterlimit="10" stroke-linecap="round" stroke-linejoin="round"/>
<path d="M397.116 388.907L394.083 385.439" stroke="#263238" stroke-miterlimit="10" stroke-linecap="round" stroke-linejoin="round"/>
<path d="M394.083 385.439C394.083 385.439 394.825 382.741 392.799 379.987C391.58 378.33 384.377 373.344 383.042 375.969C381.59 378.824 388.427 386.47 394.083 385.439Z" fill="#E06330" stroke="#263238" stroke-miterlimit="10"/>
<path d="M394.083 385.439L387.547 379.168" stroke="#263238" stroke-miterlimit="10" stroke-linecap="round" stroke-linejoin="round"/>
<path d="M400.82 352.833L396.318 349.072" stroke="#263238" stroke-miterlimit="10" stroke-linecap="round" stroke-linejoin="round"/>
<path d="M397.722 350.374C397.722 350.374 398.464 347.676 396.438 344.922C395.219 343.265 388.016 338.278 386.681 340.904C385.228 343.759 392.065 351.405 397.722 350.374Z" fill="#E06330" stroke="#263238" stroke-miterlimit="10"/>
<path d="M397.722 350.374L391.186 344.103" stroke="#263238" stroke-miterlimit="10" stroke-linecap="round" stroke-linejoin="round"/>
<path d="M399.392 369.927L394.843 362.518" stroke="#263238" stroke-miterlimit="10" stroke-linecap="round" stroke-linejoin="round"/>
<path d="M396.231 364.743C396.231 364.743 396.973 362.045 394.947 359.291C393.728 357.634 386.525 352.647 385.19 355.273C383.737 358.129 390.574 365.775 396.231 364.743Z" fill="#E06330" stroke="#263238" stroke-miterlimit="10"/>
<path d="M396.231 364.743L389.695 358.473" stroke="#263238" stroke-miterlimit="10" stroke-linecap="round" stroke-linejoin="round"/>
<path d="M403.1 329.81L398.756 324.806" stroke="#263238" stroke-miterlimit="10" stroke-linecap="round" stroke-linejoin="round"/>
<path d="M400.144 327.031C400.144 327.031 400.886 324.333 398.86 321.579C397.641 319.922 390.438 314.935 389.103 317.561C387.651 320.416 394.487 328.063 400.144 327.031Z" fill="#E06330" stroke="#263238" stroke-miterlimit="10"/>
<path d="M400.144 327.031L393.608 320.76" stroke="#263238" stroke-miterlimit="10" stroke-linecap="round" stroke-linejoin="round"/>
<path d="M405.379 307.869L401.189 301.361" stroke="#263238" stroke-miterlimit="10" stroke-linecap="round" stroke-linejoin="round"/>
<path d="M402.577 303.586C402.577 303.586 403.319 300.888 401.292 298.135C400.073 296.478 392.871 291.491 391.535 294.117C390.083 296.972 396.92 304.618 402.577 303.586Z" fill="#E06330" stroke="#263238" stroke-miterlimit="10"/>
<path d="M402.577 303.586L396.041 297.316" stroke="#263238" stroke-miterlimit="10" stroke-linecap="round" stroke-linejoin="round"/>
<path d="M398.012 382.096L403.986 375.779" stroke="#263238" stroke-miterlimit="10" stroke-linecap="round" stroke-linejoin="round"/>
<path d="M402.171 377.672C402.171 377.672 401.998 374.879 404.547 372.6C406.081 371.229 414.153 367.827 414.921 370.671C415.757 373.763 407.495 379.843 402.171 377.672Z" fill="#E06330" stroke="#263238" stroke-miterlimit="10"/>
<path d="M402.171 377.672L410.307 372.623" stroke="#263238" stroke-miterlimit="10" stroke-linecap="round" stroke-linejoin="round"/>
<path d="M401.936 344.282L407.91 337.965" stroke="#263238" stroke-miterlimit="10" stroke-linecap="round" stroke-linejoin="round"/>
<path d="M406.095 339.858C406.095 339.858 405.922 337.065 408.471 334.786C410.005 333.415 418.077 330.013 418.845 332.857C419.681 335.949 411.419 342.029 406.095 339.858Z" fill="#E06330" stroke="#263238" stroke-miterlimit="10"/>
<path d="M406.095 339.858L414.231 334.808" stroke="#263238" stroke-miterlimit="10" stroke-linecap="round" stroke-linejoin="round"/>
<path d="M403.661 327.664L409.634 321.347" stroke="#263238" stroke-miterlimit="10" stroke-linecap="round" stroke-linejoin="round"/>
<path d="M407.819 323.24C407.819 323.24 407.646 320.447 410.195 318.168C411.728 316.797 419.801 313.395 420.569 316.239C421.405 319.331 413.144 325.411 407.819 323.24Z" fill="#E06330" stroke="#263238" stroke-miterlimit="10"/>
<path d="M407.819 323.24L415.955 318.191" stroke="#263238" stroke-miterlimit="10" stroke-linecap="round" stroke-linejoin="round"/>
<path d="M406.12 302.056L412.163 296.985" stroke="#263238" stroke-miterlimit="10" stroke-linecap="round" stroke-linejoin="round"/>
<path d="M410.347 298.878C410.347 298.878 410.174 296.085 412.723 293.806C414.257 292.435 422.329 289.033 423.098 291.877C423.933 294.969 415.671 301.049 410.347 298.878Z" fill="#E06330" stroke="#263238" stroke-miterlimit="10"/>
<path d="M410.347 298.878L418.484 293.828" stroke="#263238" stroke-miterlimit="10"/>
<path d="M407.493 287.66C407.493 287.66 407.32 284.867 409.869 282.588C411.402 281.217 419.475 277.815 420.243 280.659C421.079 283.751 412.817 289.831 407.493 287.66Z" fill="#E06330" stroke="#263238" stroke-miterlimit="10"/>
<path d="M407.493 287.66L415.629 282.611" stroke="#263238" stroke-miterlimit="10" stroke-linecap="round" stroke-linejoin="round"/>
<path d="M407.827 288.022C407.827 288.022 405.031 287.901 403.033 285.127C401.83 283.458 399.294 275.073 402.202 274.608C405.365 274.102 410.545 282.955 407.827 288.022Z" fill="#E06330" stroke="#263238" stroke-miterlimit="10"/>
<path d="M407.827 288.022L403.659 279.401" stroke="#263238" stroke-miterlimit="10" stroke-linecap="round" stroke-linejoin="round"/>
<path d="M392.215 372.38L387.27 365.774" stroke="#263238" stroke-miterlimit="10" stroke-linecap="round" stroke-linejoin="round"/>
<path d="M388.88 367.845C388.88 367.845 389.34 365.085 387.04 362.555C385.656 361.033 377.978 356.816 376.92 359.565C375.77 362.554 383.36 369.454 388.88 367.845Z" fill="#E06330" stroke="#263238" stroke-miterlimit="10"/>
<path d="M388.88 367.845L381.731 362.282" stroke="#263238" stroke-miterlimit="10" stroke-linecap="round" stroke-linejoin="round"/>
<path d="M392.387 340.514L387.27 335.748" stroke="#263238" stroke-miterlimit="10" stroke-linecap="round" stroke-linejoin="round"/>
<path d="M388.88 337.818C388.88 337.818 389.34 335.058 387.04 332.528C385.656 331.006 377.978 326.789 376.92 329.538C375.77 332.528 383.36 339.428 388.88 337.818Z" fill="#E06330" stroke="#263238" stroke-miterlimit="10"/>
<path d="M388.88 337.818L381.731 332.255" stroke="#263238" stroke-miterlimit="10" stroke-linecap="round" stroke-linejoin="round"/>
<path d="M392.56 307.394L387.27 300.495" stroke="#263238" stroke-miterlimit="10" stroke-linecap="round" stroke-linejoin="round"/>
<path d="M388.88 302.564C388.88 302.564 389.34 299.804 387.04 297.274C385.656 295.752 377.978 291.535 376.92 294.284C375.77 297.275 383.36 304.174 388.88 302.564Z" fill="#E06330" stroke="#263238" stroke-miterlimit="10"/>
<path d="M388.88 302.564L381.731 297.002" stroke="#263238" stroke-miterlimit="10" stroke-linecap="round" stroke-linejoin="round"/>
<path d="M392.215 281.484L387.27 277.026" stroke="#263238" stroke-miterlimit="10" stroke-linecap="round" stroke-linejoin="round"/>
<path d="M388.88 279.096C388.88 279.096 389.34 276.336 387.04 273.806C385.656 272.284 377.978 268.067 376.92 270.816C375.77 273.806 383.36 280.706 388.88 279.096Z" fill="#E06330" stroke="#263238" stroke-miterlimit="10"/>
<path d="M388.88 279.096L381.731 273.534" stroke="#263238" stroke-miterlimit="10" stroke-linecap="round" stroke-linejoin="round"/>
<path d="M392.5 258.004L387.371 254.243" stroke="#263238" stroke-miterlimit="10" stroke-linecap="round" stroke-linejoin="round"/>
<path d="M388.88 255.526C388.88 255.526 389.34 252.766 387.04 250.236C385.656 248.714 377.978 244.497 376.92 247.246C375.77 250.236 383.36 257.136 388.88 255.526Z" fill="#E06330" stroke="#263238" stroke-miterlimit="10"/>
<path d="M388.88 255.526L381.731 249.963" stroke="#263238" stroke-miterlimit="10" stroke-linecap="round" stroke-linejoin="round"/>
<path d="M393.469 380.359L397.733 374.944" stroke="#263238" stroke-miterlimit="10" stroke-linecap="round" stroke-linejoin="round"/>
<path d="M396.123 377.013C396.123 377.013 395.663 374.253 397.963 371.723C399.347 370.201 407.025 365.984 408.083 368.733C409.233 371.724 401.643 378.623 396.123 377.013Z" fill="#E06330" stroke="#263238" stroke-miterlimit="10"/>
<path d="M396.123 377.013L403.694 371.152" stroke="#263238" stroke-miterlimit="10" stroke-linecap="round" stroke-linejoin="round"/>
<path d="M392.443 334.087L397.733 327.187" stroke="#263238" stroke-miterlimit="10" stroke-linecap="round" stroke-linejoin="round"/>
<path d="M396.123 329.257C396.123 329.257 395.663 326.497 397.963 323.967C399.347 322.445 407.025 318.228 408.083 320.977C409.233 323.968 401.643 330.867 396.123 329.257Z" fill="#E06330" stroke="#263238" stroke-miterlimit="10"/>
<path d="M396.123 329.257L403.694 323.396" stroke="#263238" stroke-miterlimit="10" stroke-linecap="round" stroke-linejoin="round"/>
<path d="M392.443 310.517L397.733 303.617" stroke="#263238" stroke-miterlimit="10" stroke-linecap="round" stroke-linejoin="round"/>
<path d="M396.123 305.687C396.123 305.687 395.663 302.927 397.963 300.397C399.347 298.875 407.025 294.658 408.083 297.407C409.233 300.397 401.643 307.297 396.123 305.687Z" fill="#E06330" stroke="#263238" stroke-miterlimit="10"/>
<path d="M396.123 305.687L403.694 299.825" stroke="#263238" stroke-miterlimit="10" stroke-linecap="round" stroke-linejoin="round"/>
<path d="M392.443 279.363L397.733 272.463" stroke="#263238" stroke-miterlimit="10" stroke-linecap="round" stroke-linejoin="round"/>
<path d="M396.123 274.533C396.123 274.533 395.663 271.773 397.963 269.243C399.347 267.721 407.025 263.504 408.083 266.253C409.233 269.243 401.643 276.143 396.123 274.533Z" fill="#E06330" stroke="#263238" stroke-miterlimit="10"/>
<path d="M396.123 274.533L403.694 268.671" stroke="#263238" stroke-miterlimit="10" stroke-linecap="round" stroke-linejoin="round"/>
<path d="M392.671 252.476L397.857 248.43" stroke="#263238" stroke-miterlimit="10" stroke-linecap="round" stroke-linejoin="round"/>
<path d="M396.123 250.04C396.123 250.04 395.663 247.28 397.963 244.75C399.347 243.228 407.025 239.011 408.083 241.76C409.233 244.75 401.643 251.65 396.123 250.04Z" fill="#E06330" stroke="#263238" stroke-miterlimit="10"/>
<path d="M396.123 250.04L403.694 244.178" stroke="#263238" stroke-miterlimit="10" stroke-linecap="round" stroke-linejoin="round"/>
<path d="M392.126 239.177C392.126 239.177 391.666 236.417 393.966 233.887C395.349 232.365 403.029 228.148 404.086 230.897C405.236 233.887 397.646 240.787 392.126 239.177Z" fill="#E06330" stroke="#263238" stroke-miterlimit="10"/>
<path d="M392.126 239.177L399.697 233.315" stroke="#263238" stroke-miterlimit="10" stroke-linecap="round" stroke-linejoin="round"/>
<path d="M392.495 239.503C392.495 239.503 389.702 239.671 387.427 237.118C386.059 235.582 382.67 227.504 385.515 226.741C388.61 225.911 394.675 234.182 392.495 239.503Z" fill="#E06330" stroke="#263238" stroke-miterlimit="10"/>
<path d="M392.495 239.503L387.46 231.358" stroke="#263238" stroke-miterlimit="10" stroke-linecap="round" stroke-linejoin="round"/>
<path d="M399.006 438.139H382.085L379.969 395.404H401.121L399.006 438.139Z" fill="#263238" stroke="#263238" stroke-miterlimit="10"/>
<path d="M671.771 355.422L683.086 438.139H678.794L665.918 355.422H671.771Z" fill="white" stroke="#263238" stroke-miterlimit="10" stroke-linecap="round" stroke-linejoin="round"/>
<path d="M613.245 355.422L601.93 438.139H606.222L619.098 355.422H613.245Z" fill="white" stroke="#263238" stroke-miterlimit="10" stroke-linecap="round" stroke-linejoin="round"/>
<path d="M583.592 355.422L572.277 438.139H576.569L589.444 355.422H583.592Z" fill="white" stroke="#263238" stroke-miterlimit="10" stroke-linecap="round" stroke-linejoin="round"/>
<path d="M633.534 355.422L622.219 438.139H626.511L639.387 355.422H633.534Z" fill="white" stroke="#263238" stroke-miterlimit="10" stroke-linecap="round" stroke-linejoin="round"/>
<path d="M685.469 279.66L675.283 351.13H631.974L642.32 277.567C642.835 274.101 645.81 271.535 649.314 271.535H678.477C682.802 271.535 686.113 275.383 685.469 279.66Z" fill="white" stroke="#263238" stroke-miterlimit="10" stroke-linecap="round" stroke-linejoin="round"/>
<path d="M682.737 279.66L672.551 351.13H629.242L639.588 277.567C640.103 274.101 643.078 271.535 646.582 271.535H675.745C680.07 271.535 683.382 275.383 682.737 279.66Z" fill="#263238" stroke="#263238" stroke-miterlimit="10" stroke-linecap="round" stroke-linejoin="round"/>
<path d="M578.129 356.983H676.843V351.13H578.129V356.983Z" fill="white" stroke="#263238" stroke-miterlimit="10" stroke-linecap="round" stroke-linejoin="round"/>
<path d="M581.617 419.992L578.17 425.029L563.208 431.365C563.208 431.365 557.12 432.119 557.649 435.167C557.909 436.663 564.41 437.003 571.466 436.975C573.999 436.965 576.604 436.907 579.016 436.838C583.576 436.708 591.306 435.173 592.701 434.944C596.891 434.258 603.379 432.581 603.531 431.634C603.683 430.687 595.575 416.59 595.575 416.59L581.617 419.992Z" fill="white" stroke="#263238" stroke-miterlimit="10" stroke-linecap="round" stroke-linejoin="round"/>
<path d="M554.919 329.976C558.959 327.405 594.956 317.468 594.956 317.468L652 316.366C652 316.366 655.476 324.832 656.076 334.847C656.39 340.095 654.245 345.274 650.15 348.573C649.235 349.31 648.352 349.836 647.622 349.927C644.704 350.292 578.507 349.927 578.507 349.927L595.691 416.295L583.937 419.601C583.937 419.601 549.409 349.811 549.777 344.668C550.144 339.526 550.878 332.547 554.919 329.976Z" fill="#263238" stroke="#263238" stroke-miterlimit="10" stroke-linecap="round" stroke-linejoin="round"/>
<path d="M613.322 322.997C613.322 322.997 568.577 328.981 566.305 330.343C558.959 334.751 560.428 343.934 560.428 343.934L576.957 420.703L591.282 419.601L585.405 346.505" fill="#263238"/>
<path d="M613.322 322.997C613.322 322.997 568.577 328.981 566.305 330.343C558.959 334.751 560.428 343.934 560.428 343.934L576.957 420.703L591.282 419.601L585.405 346.505" stroke="#263238" stroke-miterlimit="10" stroke-linecap="round" stroke-linejoin="round"/>
<path d="M576.958 420.703L572.742 425.116L559.7 432.699C559.7 432.699 553.634 433.609 554.24 436.642C554.847 439.675 581.235 437.249 585.481 437.249C589.727 437.249 596.4 436.642 596.704 435.732C597.007 434.822 591.283 419.601 591.283 419.601L576.958 420.703Z" fill="white" stroke="#263238" stroke-miterlimit="10" stroke-linecap="round" stroke-linejoin="round"/>
<path d="M661.43 265.1C661.11 260.935 657.585 258.852 655.503 257.41C653.42 255.968 637.881 248.759 637.881 248.759C632.114 247.477 608.404 252.764 608.404 252.764L603.126 284.216L604.335 310.013L595.979 315.314L581.408 321.559C581.408 321.559 588.069 323.016 590.359 323.016C592.649 323.016 606.388 320.518 606.388 320.518L597.853 324.889C597.853 324.889 616.796 326.346 626.163 328.22C635.53 330.094 640.11 334.049 640.11 334.049C640.11 334.049 639.485 338.629 636.988 343C634.49 347.371 631.975 350.13 631.975 350.13L647.624 349.927C647.624 349.927 654.266 347.372 655.931 339.878C657.596 332.384 652.184 314.274 652.184 314.274L652.537 311.894C655.008 311.832 662.662 312.018 664.316 307.074C664.623 306.149 661.75 269.265 661.43 265.1Z" fill="#E06330" stroke="#263238" stroke-miterlimit="10" stroke-linecap="round" stroke-linejoin="round"/>
<path d="M623.302 211.272C623.302 211.272 616.734 208.709 610.646 212.073C604.558 215.437 603.116 221.685 604.238 226.972C605.36 232.259 603.918 239.468 603.918 239.468C603.918 239.468 597.991 246.036 599.913 251.964C601.836 257.892 604.399 256.45 603.438 260.615C602.477 264.78 598.952 264.46 603.438 270.227C607.924 275.994 612.89 276.475 616.575 274.232C620.26 271.989 621.541 265.581 621.541 265.581C621.541 265.581 621.381 249.561 626.507 249.08C631.634 248.599 643.649 250.041 643.649 250.041C643.649 250.041 636.119 242.351 636.119 233.22C636.119 224.088 633.556 214.636 630.832 212.874C628.108 211.111 623.302 211.272 623.302 211.272Z" fill="#263238" stroke="#263238" stroke-miterlimit="10" stroke-linecap="round" stroke-linejoin="round"/>
<path d="M596.849 285.648L594.977 289.612C594.977 289.612 592.995 290.383 592.445 291.814C591.894 293.245 591.894 294.566 591.894 294.566C591.894 294.566 590.573 295.777 590.353 297.429C590.133 299.081 592.115 302.383 593.326 303.484C594.537 304.585 598.06 304.475 600.042 304.035C602.024 303.595 605.547 299.521 605.767 295.117C605.987 290.713 604.556 285.318 603.125 284.217C601.693 283.115 597.84 285.207 596.849 285.648Z" fill="#E06330" stroke="#263238" stroke-miterlimit="10" stroke-linecap="round" stroke-linejoin="round"/>
<path d="M633.234 245.555C633.234 245.555 633.715 243.793 634.836 244.434C635.957 245.075 638.36 247.478 638.36 247.478C638.36 247.478 639.001 256.77 639.001 258.852C639.001 260.935 638.681 262.056 638.681 262.056C638.681 262.056 633.234 260.935 632.593 261.255C631.952 261.575 624.743 264.94 624.743 264.94L633.234 245.555Z" fill="#E06330" stroke="#263238" stroke-miterlimit="10" stroke-linecap="round" stroke-linejoin="round"/>
<path d="M616.733 244.273C616.733 244.273 618.976 253.244 619.136 254.846C619.296 256.448 619.617 266.221 620.418 267.662C621.219 269.104 622.821 269.104 624.103 268.143C625.385 267.182 626.506 265.259 627.788 262.536C629.07 259.812 633.235 247.477 633.235 245.554C633.235 243.632 631.793 239.787 631.313 237.704C630.832 235.621 630.031 232.097 630.031 232.097C630.031 232.097 627.788 238.025 626.506 239.626C625.224 241.23 616.733 244.273 616.733 244.273Z" fill="white" stroke="#263238" stroke-miterlimit="10" stroke-linecap="round" stroke-linejoin="round"/>
<path d="M618.335 213.514C618.335 213.514 609.844 214.315 608.242 218.32C606.64 222.325 606.48 231.136 607.922 235.622C609.364 240.108 614.01 245.234 616.253 245.394C618.496 245.554 625.224 244.112 626.987 241.709C628.749 239.306 630.672 234.019 630.672 234.019C630.672 234.019 634.997 232.737 635.158 229.213C635.319 225.689 634.838 224.087 633.396 224.247C631.954 224.407 630.512 225.529 630.512 225.529C630.512 225.529 627.628 222.966 626.507 221.043C625.386 219.121 624.424 218.96 624.424 217.198C624.423 215.437 620.899 213.675 618.335 213.514Z" fill="white" stroke="#263238" stroke-miterlimit="10" stroke-linecap="round" stroke-linejoin="round"/>
<path d="M618.656 225.61C618.656 226.362 618.333 226.972 617.935 226.972C617.537 226.972 617.214 226.362 617.214 225.61C617.214 224.858 617.537 224.248 617.935 224.248C618.333 224.248 618.656 224.858 618.656 225.61Z" fill="#263238"/>
<path d="M610.085 227.532C610.085 228.284 609.762 228.894 609.364 228.894C608.966 228.894 608.643 228.284 608.643 227.532C608.643 226.78 608.966 226.17 609.364 226.17C609.762 226.171 610.085 226.78 610.085 227.532Z" fill="#263238"/>
<path d="M611.286 232.258C611.286 232.258 612.728 233.379 614.49 231.938" stroke="#263238" stroke-miterlimit="10" stroke-linecap="round" stroke-linejoin="round"/>
<path d="M612.087 237.064C612.087 237.064 616.733 237.705 619.456 234.18" stroke="#263238" stroke-miterlimit="10" stroke-linecap="round" stroke-linejoin="round"/>
<path d="M615.131 223.607C615.131 223.607 617.854 221.044 621.058 223.126" stroke="#263238" stroke-miterlimit="10" stroke-linecap="round" stroke-linejoin="round"/>
<path d="M611.126 225.049C611.126 225.049 608.563 223.447 607.281 226.651" stroke="#263238" stroke-miterlimit="10" stroke-linecap="round" stroke-linejoin="round"/>
<path d="M595.36 294.986C595.36 294.986 591.905 297.112 591.019 299.593C590.133 302.074 591.639 305.175 593.943 306.592C596.247 308.01 598.018 306.415 599.17 304.82C600.322 303.225 600.588 299.416 600.322 297.555C600.056 295.694 597.575 294.1 595.36 294.986Z" fill="white" stroke="#263238" stroke-miterlimit="10" stroke-linecap="round" stroke-linejoin="round"/>
<path d="M594.756 262.53L579.18 252.68L596.753 290.752L608.068 300.071L632.962 295.012L619.516 256.939L594.756 262.53Z" fill="#263238" stroke="#263238" stroke-miterlimit="10" stroke-linecap="round" stroke-linejoin="round"/>
<path d="M656.944 308.835C656.944 308.835 657.585 304.509 655.342 302.107C653.099 299.704 644.929 298.743 643.487 298.422C642.045 298.102 638.36 296.82 638.36 296.82C638.36 296.82 636.117 291.213 635.156 290.092C634.195 288.971 630.35 287.368 630.35 287.368L631.311 289.931C631.311 289.931 622.612 284.124 621.948 283.459C621.284 282.794 619.822 283.725 620.087 284.522C620.353 285.319 623.675 288.908 625.27 290.37C626.865 291.832 627.263 292.496 627.263 292.496C627.263 292.496 621.282 287.845 618.757 287.047C616.232 286.25 615.302 287.047 616.099 288.243C616.896 289.439 619.554 291.034 620.618 291.964C621.681 292.894 622.346 293.559 622.346 293.559C622.346 293.559 618.093 289.971 616.764 289.971C615.435 289.971 615.834 291.167 617.03 292.23C618.226 293.293 618.226 293.293 618.226 293.293C618.226 293.293 617.562 295.021 618.625 295.818C619.688 296.615 623.941 300.337 624.738 301.267C625.535 302.197 627.409 303.271 630.187 303.925C633.725 304.758 636.783 304.867 636.783 304.867C636.783 304.867 642.813 311.368 647.332 311.899C651.851 312.432 655.658 310.156 656.944 308.835Z" fill="white" stroke="#263238" stroke-miterlimit="10" stroke-linecap="round" stroke-linejoin="round"/>
<path d="M622.347 293.561C622.347 293.561 626.262 296.842 626.488 297.143" stroke="#263238" stroke-miterlimit="10" stroke-linecap="round" stroke-linejoin="round"/>
<path d="M627.264 292.498L629.199 294.055" stroke="#263238" stroke-miterlimit="10" stroke-linecap="round" stroke-linejoin="round"/>
<path d="M631.312 289.931L633.569 291.04" stroke="#263238" stroke-miterlimit="10" stroke-linecap="round" stroke-linejoin="round"/>
<path d="M618.227 293.294L624.228 298.197" stroke="#263238" stroke-miterlimit="10" stroke-linecap="round" stroke-linejoin="round"/>
<path d="M646.83 298.207C646.83 298.207 652.508 293.839 660.152 299.299" stroke="#263238" stroke-miterlimit="10" stroke-linecap="round" stroke-linejoin="round"/>
<path d="M646.503 296.351C646.503 296.351 647.757 273.657 649.314 270.535C650.871 267.414 656.222 261.298 656.222 261.298" stroke="#263238" stroke-miterlimit="10" stroke-linecap="round" stroke-linejoin="round"/>
<path d="M648.686 295.15C648.686 295.15 654.037 291.874 658.623 292.529" stroke="#263238" stroke-miterlimit="10" stroke-linecap="round" stroke-linejoin="round"/>
<path d="M598.372 290.556C598.372 290.556 594.917 291.885 594.74 292.682C594.563 293.479 595.094 300.124 595.537 301.01C595.98 301.896 596.512 301.984 596.954 301.984C597.397 301.984 601.029 301.541 602.093 300.921C603.156 300.301 603.067 299.326 603.067 299.326L602.004 298.794C602.004 298.794 603.067 298.085 603.067 297.288C603.067 296.491 602.536 295.959 602.536 295.959C602.536 295.959 605.548 295.339 604.928 294.099C604.308 292.859 602.182 292.416 602.182 292.416C602.182 292.416 603.777 290.644 600.942 290.024C600.202 289.863 598.372 290.556 598.372 290.556Z" fill="white" stroke="#263238" stroke-miterlimit="10" stroke-linecap="round" stroke-linejoin="round"/>
<path d="M595.449 294.012L602.182 292.417" stroke="#263238" stroke-miterlimit="10" stroke-linecap="round" stroke-linejoin="round"/>
<path d="M602.536 295.961L595.892 296.492" stroke="#263238" stroke-miterlimit="10" stroke-linecap="round" stroke-linejoin="round"/>
<path d="M602.005 298.796C602.005 298.796 596.955 299.859 595.626 299.859" stroke="#263238" stroke-miterlimit="10" stroke-linecap="round" stroke-linejoin="round"/>
<path d="M451.817 355.422L440.502 438.139H444.794L457.67 355.422H451.817Z" fill="white" stroke="#263238" stroke-miterlimit="10" stroke-linecap="round" stroke-linejoin="round"/>
<path d="M510.343 355.422L521.658 438.139H517.367L504.491 355.422H510.343Z" fill="white" stroke="#263238" stroke-miterlimit="10" stroke-linecap="round" stroke-linejoin="round"/>
<path d="M539.996 355.422L551.311 438.139H547.02L534.144 355.422H539.996Z" fill="white" stroke="#263238" stroke-miterlimit="10" stroke-linecap="round" stroke-linejoin="round"/>
<path d="M490.054 355.422L501.369 438.139H497.077L484.202 355.422H490.054Z" fill="white" stroke="#263238" stroke-miterlimit="10" stroke-linecap="round" stroke-linejoin="round"/>
<path d="M438.12 279.66L448.306 351.13H491.615L481.269 277.567C480.754 274.101 477.779 271.535 474.275 271.535H445.112C440.787 271.535 437.475 275.383 438.12 279.66Z" fill="white" stroke="#263238" stroke-miterlimit="10" stroke-linecap="round" stroke-linejoin="round"/>
<path d="M440.851 279.66L451.037 351.13H494.346L484 277.567C483.485 274.101 480.51 271.535 477.006 271.535H447.843C443.518 271.535 440.206 275.383 440.851 279.66Z" fill="#263238" stroke="#263238" stroke-miterlimit="10" stroke-linecap="round" stroke-linejoin="round"/>
<path d="M545.459 351.13H446.745V356.983H545.459V351.13Z" fill="white" stroke="#263238" stroke-miterlimit="10" stroke-linecap="round" stroke-linejoin="round"/>
<path d="M538.075 419.992L541.522 425.029L556.484 431.365C556.484 431.365 562.572 432.119 562.043 435.167C561.783 436.663 555.282 437.003 548.226 436.975C545.693 436.965 543.088 436.907 540.676 436.838C536.116 436.708 528.386 435.173 526.991 434.944C522.8 434.258 516.313 432.581 516.161 431.634C516.009 430.687 524.117 416.59 524.117 416.59L538.075 419.992Z" fill="white" stroke="#263238" stroke-miterlimit="10" stroke-linecap="round" stroke-linejoin="round"/>
<path d="M552.558 436.149C546.919 436.533 531.053 434.332 525.752 432.211C522.168 430.777 518.728 430.107 516.872 429.822C516.408 430.781 516.13 431.451 516.159 431.633C516.311 432.58 522.798 434.257 526.989 434.943C528.384 435.171 536.114 436.707 540.674 436.837C543.087 436.906 545.691 436.964 548.224 436.974C553.21 436.994 557.907 436.828 560.333 436.202C557.952 436.06 555.094 435.977 552.558 436.149Z" fill="white" stroke="#263238" stroke-miterlimit="10" stroke-linecap="round" stroke-linejoin="round"/>
<path d="M564.773 329.976C560.733 327.405 524.736 317.468 524.736 317.468L467.693 316.366C467.693 316.366 461.856 342.631 464.41 348.103C464.41 348.103 469.152 349.562 472.071 349.927C474.989 350.292 541.186 349.927 541.186 349.927L524.002 416.295L535.756 419.601C535.756 419.601 570.284 349.811 569.916 344.668C569.548 339.526 568.813 332.547 564.773 329.976Z" fill="#7A7A7A" stroke="#263238" stroke-miterlimit="10" stroke-linecap="round" stroke-linejoin="round"/>
<path d="M506.369 322.997C506.369 322.997 551.114 328.981 553.386 330.343C560.732 334.751 559.263 343.934 559.263 343.934L542.734 420.703L528.409 419.601L534.286 346.505" fill="#7A7A7A"/>
<path d="M506.369 322.997C506.369 322.997 551.114 328.981 553.386 330.343C560.732 334.751 559.263 343.934 559.263 343.934L542.734 420.703L528.409 419.601L534.286 346.505" stroke="#263238" stroke-miterlimit="10" stroke-linecap="round" stroke-linejoin="round"/>
<path d="M542.734 420.703L546.95 425.116L559.992 432.699C559.992 432.699 566.058 433.609 565.452 436.642C564.845 439.675 538.457 437.249 534.211 437.249C529.965 437.249 523.292 436.642 522.988 435.732C522.685 434.822 528.409 419.601 528.409 419.601L542.734 420.703Z" fill="white" stroke="#263238" stroke-miterlimit="10" stroke-linecap="round" stroke-linejoin="round"/>
<path d="M565.452 436.642C565.493 436.436 565.498 436.242 565.482 436.055C562.781 436.469 558.649 436.162 552.559 436.149C544.675 436.133 526.61 434.273 523.431 433.723C523.108 434.801 522.928 435.552 522.988 435.732C523.291 436.642 529.964 437.249 534.211 437.249C538.457 437.249 564.845 439.676 565.452 436.642Z" fill="white" stroke="#263238" stroke-miterlimit="10" stroke-linecap="round" stroke-linejoin="round"/>
<path d="M527.04 423.296L539.825 423.524L542.733 420.703L528.408 419.601C528.408 419.601 527.824 421.155 527.04 423.296Z" fill="white" stroke="#263238" stroke-miterlimit="10" stroke-linecap="round" stroke-linejoin="round"/>
<path d="M490.22 318.951H511.697C511.697 318.951 511.947 268.256 510.698 260.764C509.449 253.272 506.952 244.282 505.703 241.285C504.454 238.288 502.207 236.29 500.709 235.042C499.211 233.793 490.872 236.758 490.047 242.393C489.221 248.028 490.22 318.951 490.22 318.951Z" fill="white" stroke="#263238" stroke-miterlimit="10" stroke-linecap="round" stroke-linejoin="round"/>
<path d="M515.56 245.155L529.202 284.212C529.202 284.212 527.913 292.497 525.52 293.601C523.127 294.706 519.445 293.049 519.445 293.049L517.604 290.656L514.658 253.467L515.56 245.155Z" fill="#E06330" stroke="#263238" stroke-miterlimit="10" stroke-linecap="round" stroke-linejoin="round"/>
<path d="M503.311 237.406C503.311 237.406 505.311 244.656 507.561 252.155C509.811 259.655 508.811 318.805 508.811 318.805L517.31 318.555C517.31 318.555 517.31 293.652 517.81 284.153C518.31 274.654 515.56 245.155 515.56 245.155L503.311 237.406Z" fill="#E06330" stroke="#263238" stroke-miterlimit="10" stroke-linecap="round" stroke-linejoin="round"/>
<path d="M487.842 223.878L485.197 231.519L483.581 235.046C483.581 235.046 486.814 239.454 490.047 242.393C493.28 245.332 495.337 247.242 495.631 248.418C495.925 249.594 496.954 250.181 498.423 249.447C499.893 248.712 501.509 246.508 501.95 245.333C502.391 244.157 502.538 239.749 502.538 239.749C502.538 239.749 507.681 240.484 508.857 239.161C510.033 237.838 513.853 227.405 514.147 225.054C514.441 222.703 515.616 213.298 515.176 211.829C514.736 210.36 488.432 208.743 488.432 208.743C488.432 208.743 489.018 220.058 487.842 223.878Z" fill="white" stroke="#263238" stroke-miterlimit="10" stroke-linecap="round" stroke-linejoin="round"/>
<path d="M488.43 218.294C488.43 218.294 491.516 219.763 491.957 219.029C492.398 218.294 492.398 215.943 492.398 215.943C492.398 215.943 496.659 216.678 497.394 216.09C498.129 215.502 496.512 212.857 497.835 212.416C499.158 211.975 503.86 213.445 507.093 214.032C510.326 214.62 514.293 213.885 515.175 211.828C516.057 209.771 516.351 204.187 512.824 201.248C509.297 198.309 500.187 193.019 494.015 194.929C487.843 196.839 483.435 200.807 483.141 207.419C482.847 214.032 484.757 216.677 484.757 216.677L488.43 218.294Z" fill="#263238" stroke="#263238" stroke-miterlimit="10" stroke-linecap="round" stroke-linejoin="round"/>
<path d="M489.753 220.499C489.753 220.499 487.402 214.621 484.757 216.678C482.112 218.735 486.227 224.907 487.549 225.495C488.872 226.083 489.606 225.054 489.606 225.054" fill="white"/>
<path d="M489.753 220.499C489.753 220.499 487.402 214.621 484.757 216.678C482.112 218.735 486.227 224.907 487.549 225.495C488.872 226.083 489.606 225.054 489.606 225.054" stroke="#263238" stroke-miterlimit="10" stroke-linecap="round" stroke-linejoin="round"/>
<path d="M508.264 221.328C508.264 221.328 504.385 220.143 501.475 221.113" stroke="#263238" stroke-miterlimit="10" stroke-linecap="round" stroke-linejoin="round"/>
<path d="M511.646 222.036C511.646 222.036 512.581 219.325 514.17 219.419" stroke="#263238" stroke-miterlimit="10" stroke-linecap="round" stroke-linejoin="round"/>
<path d="M511.272 225.588C511.272 225.588 512.394 229.327 512.02 230.261C511.646 231.196 509.123 231.289 508.188 230.915" stroke="#263238" stroke-miterlimit="10" stroke-linecap="round" stroke-linejoin="round"/>
<path d="M502.953 232.318C502.953 232.318 503.701 234.094 508.935 233.72" stroke="#263238" stroke-miterlimit="10" stroke-linecap="round" stroke-linejoin="round"/>
<path d="M502.86 224.279C502.86 224.279 504.262 225.494 506.973 224.559" stroke="#263238" stroke-miterlimit="10" stroke-linecap="round" stroke-linejoin="round"/>
<path d="M511.646 223.999C511.646 223.999 512.674 224.279 513.889 223.345" stroke="#263238" stroke-miterlimit="10" stroke-linecap="round" stroke-linejoin="round"/>
<path d="M502.537 239.748C502.537 239.748 499.31 238.313 498.53 237.689C497.75 237.065 494.629 233.477 494.005 232.072" stroke="#263238" stroke-miterlimit="10" stroke-linecap="round" stroke-linejoin="round"/>
<path d="M498.199 310.853C498.137 301.449 497.829 262.868 496.929 259.042C495.903 254.681 495.63 248.418 495.63 248.418C495.63 248.418 497.955 246.215 493.85 241.084C489.745 235.953 485.735 233.164 485.735 233.164C485.735 233.164 482.771 231.916 482.147 232.696C481.523 233.476 479.339 238.157 479.339 238.157C479.339 238.157 463.269 246.114 460.929 248.142C458.589 250.17 461.709 311.954 461.709 311.954L464.185 312.019L458.938 341.536L464.41 348.102C464.41 348.102 470.612 336.064 473.895 331.686C477.178 327.308 496.512 321.107 496.512 321.107H501.619L498.199 310.853Z" fill="#E06330" stroke="#263238" stroke-miterlimit="10" stroke-linecap="round" stroke-linejoin="round"/>
<path d="M463.236 246.442C463.236 246.442 460.505 247.417 457.774 251.709C455.043 256.001 448.02 298.526 448.216 302.232C448.411 305.938 448.801 308.084 450.557 309.059C452.313 310.034 455.824 310.815 460.311 311.205C464.797 311.595 471.04 308.474 471.04 308.474C471.04 308.474 471.43 300.671 471.04 296.965C470.65 293.259 472.796 280.189 472.796 278.043C472.796 275.897 474.747 271.021 472.796 266.729C470.845 262.437 468.504 253.464 468.504 253.464" fill="#E06330"/>
<path d="M463.236 246.442C463.236 246.442 460.505 247.417 457.774 251.709C455.043 256.001 448.02 298.526 448.216 302.232C448.411 305.938 448.801 308.084 450.557 309.059C452.313 310.034 455.824 310.815 460.311 311.205C464.797 311.595 471.04 308.474 471.04 308.474C471.04 308.474 471.43 300.671 471.04 296.965C470.65 293.259 472.796 280.189 472.796 278.043C472.796 275.897 474.747 271.021 472.796 266.729C470.845 262.437 468.504 253.464 468.504 253.464" stroke="#263238" stroke-miterlimit="10" stroke-linecap="round" stroke-linejoin="round"/>
<path d="M454.263 301.061C454.263 301.061 456.019 294.234 461.09 293.258C466.162 292.283 469.868 292.868 469.868 292.868" stroke="#263238" stroke-miterlimit="10" stroke-linecap="round" stroke-linejoin="round"/>
<path d="M524.132 246.952L500.289 289.849L525.173 299.22L548.079 256.427L524.132 246.952Z" fill="#263238" stroke="#263238" stroke-miterlimit="10" stroke-linecap="round" stroke-linejoin="round"/>
<path d="M548.079 256.427L555.264 247.993L533.503 288.184L525.173 299.22L548.079 256.427Z" fill="#263238" stroke="#263238" stroke-miterlimit="10" stroke-linecap="round" stroke-linejoin="round"/>
<path d="M501.758 276.237C501.758 276.237 503.917 275.354 505.487 274.274C507.057 273.195 508.726 270.839 509.413 271.134C510.1 271.428 510.493 271.821 509.609 273.489C508.726 275.157 506.959 276.433 506.959 276.433L501.758 276.237Z" fill="white" stroke="#263238" stroke-miterlimit="10" stroke-linecap="round" stroke-linejoin="round"/>
<path d="M502.617 293.264C503.402 293.166 506.052 292.97 507.819 292.283C509.585 291.596 517.82 288.876 518.651 288.045C519.482 287.214 519.482 286.383 519.482 286.383C519.482 286.383 520.728 285.76 521.352 285.033C521.975 284.306 521.975 283.371 521.975 283.371C521.975 283.371 523.741 282.124 523.222 281.086C522.703 280.047 520.729 279.528 520.729 279.528C520.729 279.528 521.352 279.216 521.768 278.178C522.184 277.139 521.872 276.724 520.729 276.516C519.586 276.308 502.967 276.101 502.967 276.101C502.967 276.101 501.048 275.894 500.164 277.366C499.28 278.838 496.827 283.843 496.533 284.236C496.239 284.628 471.801 294.05 470.918 294.541C470.035 295.032 467.287 297.387 467.679 301.509C468.072 305.631 469.786 307.59 471.039 308.475C472.292 309.36 488.78 299.939 491.527 298.467C494.275 296.995 499.378 293.756 499.378 293.756L502.617 293.264Z" fill="white" stroke="#263238" stroke-miterlimit="10" stroke-linecap="round" stroke-linejoin="round"/>
<path d="M520.728 279.528L508.506 279.721" stroke="#263238" stroke-miterlimit="10" stroke-linecap="round" stroke-linejoin="round"/>
<path d="M521.974 283.371C521.974 283.371 510.762 284.333 510.468 284.431" stroke="#263238" stroke-miterlimit="10" stroke-linecap="round" stroke-linejoin="round"/>
<path d="M519.482 286.383C519.482 286.383 513.904 287.67 511.058 288.455" stroke="#263238" stroke-miterlimit="10" stroke-linecap="round" stroke-linejoin="round"/>
<path d="M541.832 275.065C541.832 275.065 538.708 276.21 538.5 276.939C538.292 277.668 538.917 278.084 539.749 278.084C540.581 278.084 541.831 277.98 542.56 277.043C543.29 276.106 542.665 275.377 541.832 275.065Z" fill="white" stroke="#263238" stroke-miterlimit="10" stroke-linecap="round" stroke-linejoin="round"/>
<path d="M539.75 278.084C539.75 278.084 536.731 278.396 536.731 279.333C536.731 280.27 536.21 280.895 536.939 281.103C537.668 281.311 541.624 281.311 542.666 280.895C543.707 280.478 544.124 279.75 543.707 279.021C543.29 278.292 540.27 277.98 539.75 278.084Z" fill="white" stroke="#263238" stroke-miterlimit="10" stroke-linecap="round" stroke-linejoin="round"/>
<path d="M542.665 280.895C542.665 280.895 543.498 282.457 542.977 283.29C542.456 284.123 538.083 284.539 536.73 284.539C535.376 284.539 534.648 283.29 535.376 282.457C536.105 281.624 538.916 281.52 538.916 281.52C538.916 281.52 542.04 281.103 542.665 280.895Z" fill="white" stroke="#263238" stroke-miterlimit="10" stroke-linecap="round" stroke-linejoin="round"/>
<path d="M541.312 284.331C541.312 284.331 540.479 285.685 539.854 286.309C539.229 286.934 535.169 286.83 534.752 286.413C534.335 285.996 534.648 284.747 535.689 284.643C536.73 284.539 541.312 284.331 541.312 284.331Z" fill="white" stroke="#263238" stroke-miterlimit="10" stroke-linecap="round" stroke-linejoin="round"/>
<path d="M575.657 311.495H562.058V432.614H575.657V311.495Z" fill="white" stroke="#263238" stroke-miterlimit="10" stroke-linecap="round" stroke-linejoin="round"/>
<path d="M604.556 430.606H533.524V438.139H604.556V430.606Z" fill="white" stroke="#263238" stroke-miterlimit="10" stroke-linecap="round" stroke-linejoin="round"/>
<path d="M707.775 387.257L695.353 309.644H442.148L429.726 387.257L448.57 395.717L447.417 405.332H577.404H600.863H690.084L688.931 395.717L707.775 387.257Z" fill="#E06330" stroke="#263238" stroke-miterlimit="10" stroke-linecap="round" stroke-linejoin="round"/>
<path d="M448.57 395.717L459.723 314.956" stroke="#263238" stroke-miterlimit="10" stroke-linecap="round" stroke-linejoin="round"/>
<path d="M688.931 395.717L681.239 318.033" stroke="#263238" stroke-miterlimit="10" stroke-linecap="round" stroke-linejoin="round"/>
<path d="M656.828 344.127L655.088 318.033" stroke="#263238" stroke-miterlimit="10" stroke-linecap="round" stroke-linejoin="round"/>
<path d="M481.644 316.879L480.106 386.103" stroke="#263238" stroke-miterlimit="10" stroke-linecap="round" stroke-linejoin="round"/>
<path d="M557.536 291.036L555.453 306.955C555.299 308.108 556.195 309.133 557.358 309.133H565.067C566.23 309.133 567.127 308.108 566.972 306.955L564.889 291.036H557.536Z" fill="#E06330"/>
<path d="M557.304 304.708C557.304 304.708 560.786 288.385 563.398 280.767" stroke="#263238" stroke-miterlimit="10" stroke-linecap="round" stroke-linejoin="round"/>
<path d="M562.387 274.068C562.387 274.068 560.355 270.875 559.871 271.746C559.387 272.617 560.935 274.262 560.935 274.262C560.935 274.262 557.839 273.004 557.355 273.875C556.871 274.746 559.387 275.81 559.677 275.81C559.967 275.81 555.903 275.907 556.194 277.165C556.484 278.423 558.516 277.455 558.807 277.262C559.097 277.069 556.001 279.197 557.356 279.584C558.711 279.971 560.452 278.52 560.452 278.52C560.452 278.52 558.323 280.649 559.484 281.133C560.645 281.617 561.613 279.875 561.613 279.875C561.613 279.875 560.355 282.294 561.226 282.391C562.097 282.488 562.774 281.714 562.774 281.714C562.774 281.714 563.161 283.843 563.838 283.553C564.515 283.263 565.096 280.553 565.096 280.553C565.096 280.553 566.257 283.359 566.547 282.778C566.837 282.197 566.644 280.939 566.644 280.939C566.644 280.939 567.999 282.487 568.289 281.52C568.579 280.552 567.902 279.875 567.902 279.875C567.902 279.875 569.45 280.552 569.353 279.391C569.256 278.23 567.708 277.553 567.708 277.553C567.708 277.553 568.772 276.876 568.385 276.392C567.998 275.908 566.546 275.908 566.546 275.908C566.546 275.908 568.094 274.65 567.514 274.457C566.933 274.264 565.385 274.747 565.385 274.747C565.385 274.747 565.869 272.038 565.191 272.231C564.514 272.425 564.03 273.779 564.03 273.779C564.03 273.779 563.74 270.683 562.966 271.263C562.193 271.842 562.387 274.068 562.387 274.068Z" fill="#E06330"/>
<path d="M565.615 277.482C565.489 278.138 564.707 278.539 563.867 278.379C563.027 278.218 562.448 277.556 562.574 276.9C562.7 276.244 563.482 275.843 564.322 276.003C565.162 276.164 565.74 276.826 565.615 277.482Z" fill="white"/>
<path d="M564.524 284.881H557.902L554.98 306.702C554.774 308.237 555.968 309.601 557.517 309.601H564.91C566.459 309.601 567.652 308.237 567.447 306.702L564.524 284.881Z" stroke="#263238" stroke-miterlimit="10" stroke-linecap="round" stroke-linejoin="round"/>
<path d="M565.139 284.621H557.299V286.348H565.139V284.621Z" fill="white" stroke="#263238" stroke-miterlimit="10" stroke-linecap="round" stroke-linejoin="round"/>
<path d="M338.959 355.422L350.274 438.139H345.982L333.106 355.422H338.959Z" fill="white" stroke="#263238" stroke-miterlimit="10" stroke-linecap="round" stroke-linejoin="round"/>
<path d="M280.433 355.422L269.118 438.139H273.41L286.285 355.422H280.433Z" fill="white" stroke="#263238" stroke-miterlimit="10" stroke-linecap="round" stroke-linejoin="round"/>
<path d="M250.779 355.422L239.464 438.139H243.756L256.632 355.422H250.779Z" fill="white" stroke="#263238" stroke-miterlimit="10" stroke-linecap="round" stroke-linejoin="round"/>
<path d="M300.722 355.422L289.407 438.139H293.699L306.574 355.422H300.722Z" fill="white" stroke="#263238" stroke-miterlimit="10" stroke-linecap="round" stroke-linejoin="round"/>
<path d="M352.656 279.66L342.47 351.13H299.161L309.507 277.567C310.022 274.101 312.997 271.535 316.501 271.535H345.664C349.989 271.535 353.301 275.383 352.656 279.66Z" fill="white" stroke="#263238" stroke-miterlimit="10" stroke-linecap="round" stroke-linejoin="round"/>
<path d="M349.925 279.66L339.739 351.13H296.43L306.776 277.567C307.291 274.101 310.266 271.535 313.77 271.535H342.933C347.258 271.535 350.57 275.383 349.925 279.66Z" fill="#263238" stroke="#263238" stroke-miterlimit="10" stroke-linecap="round" stroke-linejoin="round"/>
<path d="M245.317 356.983H344.031V351.13H245.317V356.983Z" fill="white" stroke="#263238" stroke-miterlimit="10" stroke-linecap="round" stroke-linejoin="round"/>
<path d="M272.642 204.264C272.642 204.264 267.89 211.341 268.13 214.32C268.351 217.065 267.898 219.014 266.201 220.916C264.646 222.658 263.059 223.429 264.787 224.686C266.515 225.943 266.515 226.885 266.515 226.885C266.515 226.885 267.458 233.64 267.772 235.054C268.086 236.468 270.443 236.939 272.328 236.939C274.213 236.939 275.627 237.41 278.612 240.395C281.597 243.38 282.225 248.249 282.225 248.249L295.578 236.938C295.578 236.938 293.85 234.582 294.793 232.854C295.736 231.126 300.134 230.183 301.548 225.785C302.962 221.387 301.862 215.26 301.862 215.26C301.862 215.26 301.077 209.291 295.107 204.264C289.137 199.237 278.298 199.237 272.642 204.264Z" fill="white" stroke="#263238" stroke-miterlimit="10" stroke-linecap="round" stroke-linejoin="round"/>
<path d="M301.861 215.26C301.861 215.26 301.076 209.291 295.106 204.264C289.136 199.237 278.297 199.237 272.642 204.264C272.642 204.264 272.231 204.744 271.636 205.494L271.857 205.678C271.857 205.678 274.842 204.735 278.926 205.05C283.01 205.364 284.424 207.878 283.325 209.448C282.225 211.019 280.812 212.904 282.225 214.161C283.639 215.418 284.581 215.732 285.367 217.774C286.152 219.816 288.509 218.874 289.137 218.245C289.765 217.617 293.378 216.36 294.164 219.973C294.949 223.586 292.593 226.257 291.022 227.67C289.685 228.874 290.41 232.571 294.626 233.259C294.669 233.122 294.72 232.986 294.792 232.854C295.735 231.126 300.133 230.183 301.547 225.785C302.961 221.386 301.861 215.26 301.861 215.26Z" fill="#263238" stroke="#263238" stroke-miterlimit="10" stroke-linecap="round" stroke-linejoin="round"/>
<path d="M296.834 206.149C296.834 206.149 296.52 200.18 301.232 200.18C305.944 200.18 310.343 208.349 309.715 212.747C309.087 217.145 305.788 218.245 303.589 217.303C301.39 216.359 296.834 206.149 296.834 206.149Z" fill="#263238" stroke="#263238" stroke-miterlimit="10" stroke-linecap="round" stroke-linejoin="round"/>
<path d="M272.35 218.011C272.35 218.968 272.013 219.744 271.597 219.744C271.181 219.744 270.844 218.968 270.844 218.011C270.844 217.054 271.181 216.278 271.597 216.278C272.013 216.279 272.35 217.054 272.35 218.011Z" fill="#263238"/>
<path d="M270.09 214.32C270.09 214.32 271.296 211.909 274.762 214.621" stroke="#263238" stroke-miterlimit="10" stroke-linecap="round" stroke-linejoin="round"/>
<path d="M268.432 228.183C268.432 228.183 270.542 227.882 272.501 226.224" stroke="#263238" stroke-miterlimit="10" stroke-linecap="round" stroke-linejoin="round"/>
<path d="M291.022 227.67C291.022 227.67 289.077 228.937 288.022 228.786C286.967 228.635 286.515 226.827 286.515 226.827" stroke="#263238" stroke-miterlimit="10" stroke-linecap="round" stroke-linejoin="round"/>
<path d="M226.288 350.011C226.288 350.011 221.946 398.467 221.048 402.21C220.15 405.953 217.904 409.396 217.904 409.396C217.904 409.396 218.203 406.252 215.508 405.953C212.813 405.654 211.466 407.6 210.717 410.145C209.968 412.69 208.771 414.187 208.771 414.187C208.771 414.187 197.243 420.774 194.399 421.373C191.554 421.972 191.255 424.517 192.303 425.565C193.351 426.613 195.896 427.062 199.489 427.511C203.082 427.96 211.915 427.96 212.963 427.96C214.011 427.96 228.982 427.511 228.982 427.511L234.671 348.663C234.671 348.663 229.731 341.777 226.288 350.011Z" fill="white" stroke="#263238" stroke-miterlimit="10" stroke-linecap="round" stroke-linejoin="round"/>
<path d="M226.288 350.011C226.288 350.011 223.594 384.145 222.012 395.912C223.701 396.605 226.397 397.613 228.983 398.167C229.701 398.321 230.541 398.294 231.434 398.16L234.672 348.663C234.672 348.663 229.731 341.777 226.288 350.011Z" fill="#E06330" stroke="#263238" stroke-miterlimit="10" stroke-linecap="round" stroke-linejoin="round"/>
<path d="M230.126 413.813C226.382 414.139 222.162 412.499 220.748 411.792C219.251 411.043 217.903 409.397 217.903 409.397L217.521 407.318C217.193 406.662 216.597 406.075 215.507 405.953C212.812 405.654 211.465 407.6 210.716 410.145C209.967 412.69 208.77 414.187 208.77 414.187C208.77 414.187 197.242 420.774 194.398 421.373C191.553 421.972 191.254 424.517 192.302 425.565C193.35 426.613 195.895 427.062 199.488 427.511C203.081 427.96 211.914 427.96 212.962 427.96C214.01 427.96 228.981 427.511 228.981 427.511L230.126 413.813Z" fill="white" stroke="#263238" stroke-miterlimit="10" stroke-linecap="round" stroke-linejoin="round"/>
<path d="M284.724 324.565C284.724 324.565 240.123 323.904 234.541 326.213C228.959 328.523 226.264 336.415 226.264 340.842C226.264 345.269 225.879 394.303 225.494 400.848C225.109 407.393 224.147 411.243 224.147 411.243C224.147 411.243 220.875 407.778 219.335 409.511C217.795 411.243 216.448 414.131 216.448 415.478C216.448 416.825 210.673 421.638 206.438 424.333C202.203 427.028 196.813 427.028 195.273 428.76C193.733 430.492 195.273 432.995 199.7 433.957C204.127 434.92 231.461 435.112 235.311 434.727C239.161 434.342 242.048 432.802 242.818 430.685C243.588 428.568 241.086 418.751 240.508 417.403C239.931 416.055 239.16 416.248 239.16 414.516C239.16 412.784 240.7 401.619 243.202 393.149C245.704 384.679 246.089 361.632 246.667 355.857C247.244 350.082 247.244 346.81 247.244 346.81C247.244 346.81 257.639 349.505 262.451 349.505C267.263 349.505 320.776 351.045 324.433 350.275C328.09 349.505 329.438 347.003 330.015 343.923C330.592 340.843 328.475 335.261 328.475 335.261C328.475 335.261 292.672 325.829 290.747 325.636C288.822 325.443 284.724 324.565 284.724 324.565Z" fill="#E06330" stroke="#263238" stroke-miterlimit="10" stroke-linecap="round" stroke-linejoin="round"/>
<path d="M237.621 339.496C237.621 339.496 239.353 343.153 244.551 345.463" stroke="#263238" stroke-miterlimit="10" stroke-linecap="round" stroke-linejoin="round"/>
<path d="M235.696 342.383C235.696 342.383 238.391 344.693 241.471 345.078" stroke="#263238" stroke-miterlimit="10" stroke-linecap="round" stroke-linejoin="round"/>
<path d="M309.806 335.068C309.806 335.068 316.736 339.303 321.163 344.885" stroke="#263238" stroke-miterlimit="10" stroke-linecap="round" stroke-linejoin="round"/>
<path d="M313.655 335.646C313.655 335.646 316.927 336.993 318.66 338.918" stroke="#263238" stroke-miterlimit="10" stroke-linecap="round" stroke-linejoin="round"/>
<path d="M242.818 430.685C243.588 428.568 241.086 418.751 240.508 417.403C239.931 416.055 239.161 416.248 239.161 414.516C239.161 413.222 240.021 406.662 241.5 399.895C234.335 401.569 228.855 399.873 225.602 398.228C225.566 399.344 225.53 400.236 225.494 400.849C225.109 407.394 224.147 411.244 224.147 411.244C224.147 411.244 220.875 407.779 219.335 409.512C217.795 411.244 216.448 414.132 216.448 415.479C216.448 416.827 210.673 421.639 206.438 424.334C202.203 427.029 196.813 427.029 195.273 428.761C193.733 430.494 195.273 432.996 199.7 433.958C204.127 434.921 231.461 435.113 235.311 434.728C239.161 434.343 242.048 432.803 242.818 430.685Z" fill="white" stroke="#263238" stroke-miterlimit="10" stroke-linecap="round" stroke-linejoin="round"/>
<path d="M219.334 409.511C217.794 411.243 216.447 414.131 216.447 415.478C216.447 416.826 210.672 421.638 206.437 424.333C202.202 427.028 196.812 427.028 195.272 428.76C193.732 430.493 195.272 432.995 199.699 433.957C204.126 434.92 231.46 435.112 235.31 434.727C239.16 434.342 242.047 432.802 242.817 430.685C243.587 428.568 241.085 418.751 240.507 417.403C240.185 416.652 239.807 416.374 239.532 415.98C238.338 416.559 236.971 417.386 235.502 418.365C232.615 420.29 229.342 417.98 227.417 416.055C225.492 414.13 224.145 411.243 224.145 411.243C224.145 411.243 220.874 407.779 219.334 409.511Z" fill="white" stroke="#263238" stroke-miterlimit="10" stroke-linecap="round" stroke-linejoin="round"/>
<path d="M254.22 249.013C254.22 249.013 244.657 251.229 244.117 251.768C243.577 252.307 242.175 252.739 240.448 252.847C238.722 252.955 238.29 253.279 239.369 254.142C240.448 255.005 241.851 254.789 242.714 254.358C243.577 253.926 245.304 252.2 245.304 252.2C245.304 252.2 256.957 249.934 257.065 249.395C257.173 248.855 256.447 247.984 254.22 249.013Z" stroke="#263238" stroke-miterlimit="10" stroke-linecap="round" stroke-linejoin="round"/>
<path d="M255.663 253.926C255.663 253.926 252.534 253.279 252.102 252.847C251.67 252.415 251.886 250.689 251.886 250.689C251.886 250.689 248.217 251.229 247.786 251.768C247.354 252.307 245.088 257.594 244.657 260.508C244.226 263.422 245.304 265.471 246.168 267.521C247.031 269.571 256.31 285.972 256.31 285.972C256.31 285.972 263.755 298.164 265.913 299.028C268.071 299.891 276.918 298.488 278.213 298.488C279.508 298.488 281.234 297.949 281.234 297.949L279.292 289.533L271.416 287.159C271.416 287.159 261.813 277.772 259.439 275.398C257.065 273.024 253.936 266.874 253.936 266.874C253.936 266.874 256.418 260.94 256.31 259.861C256.202 258.782 255.663 253.926 255.663 253.926Z" fill="white" stroke="#263238" stroke-miterlimit="10" stroke-linecap="round" stroke-linejoin="round"/>
<path d="M251.886 250.689C251.886 250.689 253.073 251.876 252.102 252.847C251.131 253.818 249.081 253.494 248.433 252.631" stroke="#263238" stroke-miterlimit="10" stroke-linecap="round" stroke-linejoin="round"/>
<path d="M250.376 253.818C250.376 253.818 251.023 255.113 250.052 255.652C249.081 256.191 247.247 254.897 247.247 254.897" stroke="#263238" stroke-miterlimit="10" stroke-linecap="round" stroke-linejoin="round"/>
<path d="M250.052 255.652C250.052 255.652 249.728 257.378 249.081 257.918C248.434 258.457 247.463 258.134 246.707 257.594" stroke="#263238" stroke-miterlimit="10" stroke-linecap="round" stroke-linejoin="round"/>
<path d="M248.002 258.35C248.002 258.35 248.865 259.645 248.002 260.508C247.139 261.371 245.736 260.508 245.736 260.508" stroke="#263238" stroke-miterlimit="10" stroke-linecap="round" stroke-linejoin="round"/>
<path d="M246.923 261.155C246.923 261.155 247.139 262.234 246.383 262.989" stroke="#263238" stroke-miterlimit="10" stroke-linecap="round" stroke-linejoin="round"/>
<path d="M254.22 266.059C254.22 266.059 256.992 258.575 256.992 256.774C256.992 254.972 256.022 250.261 256.022 250.261C256.022 250.261 255.468 246.935 254.22 249.014C252.973 251.093 254.081 253.864 254.081 253.864C254.081 253.864 251.309 257.19 251.032 258.992C250.755 260.794 251.586 262.318 251.586 262.318" fill="white"/>
<path d="M254.22 266.059C254.22 266.059 256.992 258.575 256.992 256.774C256.992 254.972 256.022 250.261 256.022 250.261C256.022 250.261 255.468 246.935 254.22 249.014C252.973 251.093 254.081 253.864 254.081 253.864C254.081 253.864 251.309 257.19 251.032 258.992C250.755 260.794 251.586 262.318 251.586 262.318" stroke="#263238" stroke-miterlimit="10" stroke-linecap="round" stroke-linejoin="round"/>
<path d="M295.577 236.938C295.577 236.938 280.291 246.993 278.881 248.806C277.471 250.619 278.679 252.231 278.679 252.231C278.679 252.231 274.448 280.036 275.254 286.685C276.06 293.334 284.321 303.61 285.933 306.028C287.545 308.446 284.908 321.898 285.109 323.309C285.31 324.72 287.965 324.506 289.019 325.171C291.234 326.568 296.612 328.393 303.865 331.214C311.119 334.035 317.163 334.236 317.163 334.236C317.163 334.236 329.051 336.654 330.663 336.251C332.275 335.848 328.648 323.96 328.044 317.11C327.44 310.259 325.828 310.461 324.619 302.804C323.41 295.148 317.768 272.783 314.142 263.716C310.515 254.649 300.642 242.157 299.232 240.948C297.821 239.739 295.577 236.938 295.577 236.938Z" fill="#263238" stroke="#263238" stroke-miterlimit="10" stroke-linecap="round" stroke-linejoin="round"/>
<path d="M289.859 247.424C289.859 247.424 285.715 250.133 284.919 257.305C284.122 264.477 284.919 267.505 286.513 270.214C288.107 272.923 290.338 275.314 290.338 275.314L294.8 288.542C294.8 288.542 277.906 280.892 275.675 279.298C273.444 277.704 272.806 275.951 272.169 273.401C271.532 270.851 271.691 266.707 270.416 266.389C269.141 266.07 262.607 265.752 260.854 266.389C259.101 267.027 257.189 270.851 257.985 271.808C258.782 272.764 260.057 271.489 260.057 271.489C260.057 271.489 261.173 276.27 262.448 277.545C263.723 278.82 264.36 278.661 264.839 278.661C264.839 278.661 267.708 282.645 268.983 283.602C270.258 284.558 272.17 285.196 272.649 285.196C273.127 285.196 283.964 298.105 292.252 302.408C300.539 306.711 307.074 309.42 308.667 308.305C310.261 307.189 312.332 301.93 311.854 299.061C311.376 296.192 309.304 268.621 307.71 262.884C306.116 257.147 301.495 247.266 297.351 246.469C293.206 245.671 291.134 246.946 289.859 247.424Z" fill="white" stroke="#263238" stroke-miterlimit="10" stroke-linecap="round" stroke-linejoin="round"/>
<path d="M290.337 275.314C290.337 275.314 288.106 265.274 288.743 261.13" stroke="#263238" stroke-miterlimit="10" stroke-linecap="round" stroke-linejoin="round"/>
<path d="M294.799 288.542C294.799 288.542 307.071 291.729 309.142 293.801" stroke="#263238" stroke-miterlimit="10" stroke-linecap="round" stroke-linejoin="round"/>
<path d="M268.073 267.611C268.073 267.611 260.871 268.471 260.548 269.116C260.225 269.761 260.056 271.489 260.056 271.489" stroke="#263238" stroke-miterlimit="10" stroke-linecap="round" stroke-linejoin="round"/>
<path d="M268.288 270.836C268.288 270.836 263.021 271.481 262.483 271.911C261.945 272.341 261.408 275.028 261.408 275.028" stroke="#263238" stroke-miterlimit="10" stroke-linecap="round" stroke-linejoin="round"/>
<path d="M262.447 277.545C262.447 277.545 263.128 274.921 263.881 274.706C264.634 274.491 268.826 273.954 268.826 273.954" stroke="#263238" stroke-miterlimit="10" stroke-linecap="round" stroke-linejoin="round"/>
<path d="M264.837 278.661L265.923 277.824L267.75 277.717C267.75 277.717 266.997 279.437 267.428 280.189" stroke="#263238" stroke-miterlimit="10" stroke-linecap="round" stroke-linejoin="round"/>
<path d="M47.3282 355.422L36.0132 438.139H40.3052L53.1802 355.422H47.3282Z" fill="white" stroke="#263238" stroke-miterlimit="10" stroke-linecap="round" stroke-linejoin="round"/>
<path d="M105.854 355.422L117.169 438.139H112.877L100.001 355.422H105.854Z" fill="white" stroke="#263238" stroke-miterlimit="10" stroke-linecap="round" stroke-linejoin="round"/>
<path d="M135.507 355.422L146.822 438.139H142.53L129.654 355.422H135.507Z" fill="white" stroke="#263238" stroke-miterlimit="10" stroke-linecap="round" stroke-linejoin="round"/>
<path d="M85.5652 355.422L96.8802 438.139H92.5882L79.7122 355.422H85.5652Z" fill="white" stroke="#263238" stroke-miterlimit="10" stroke-linecap="round" stroke-linejoin="round"/>
<path d="M33.6301 279.66L43.8161 351.13H87.1251L76.7801 277.567C76.2651 274.101 73.2901 271.535 69.7861 271.535H40.6221C36.2971 271.535 32.9851 275.383 33.6301 279.66Z" fill="white" stroke="#263238" stroke-miterlimit="10" stroke-linecap="round" stroke-linejoin="round"/>
<path d="M36.361 279.66L46.547 351.13H89.856L79.51 277.567C78.995 274.101 76.02 271.535 72.516 271.535H43.353C39.028 271.535 35.716 275.383 36.361 279.66Z" fill="#263238" stroke="#263238" stroke-miterlimit="10" stroke-linecap="round" stroke-linejoin="round"/>
<path d="M140.969 351.13H42.2551V356.983H140.969V351.13Z" fill="white" stroke="#263238" stroke-miterlimit="10" stroke-linecap="round" stroke-linejoin="round"/>
<path d="M84.4562 235.196C84.4562 235.196 79.9802 238.468 77.2352 246.507C74.4902 254.546 75.2742 283.368 75.2742 283.368C75.2742 283.368 72.7251 290.819 69.7841 297.681C66.8431 304.543 63.3142 312.386 60.9612 326.307C60.9612 326.307 59.1962 329.052 76.8432 325.327C94.4892 321.602 103.312 319.837 106.057 319.837C108.802 319.837 107.822 313.171 108.214 312.386C108.606 311.602 109.586 308.857 111.155 303.955C112.724 299.053 113.704 295.328 113.704 295.328C113.704 295.328 114.684 283.564 115.469 282.191C116.253 280.819 118.214 278.074 117.822 270.819C117.43 263.564 110.175 252.192 106.254 247.879C102.333 243.566 90.9612 234.742 89.5882 234.546C88.2151 234.351 84.4562 235.196 84.4562 235.196Z" fill="#E06330" stroke="#263238" stroke-miterlimit="10" stroke-linecap="round" stroke-linejoin="round"/>
<path d="M87.5712 288.331C87.5712 288.331 81.3222 291.629 76.9832 293.191" stroke="#263238" stroke-miterlimit="10" stroke-linecap="round" stroke-linejoin="round"/>
<path d="M83.2312 287.289C83.2312 287.289 77.1562 289.893 73.8582 290.587" stroke="#263238" stroke-miterlimit="10" stroke-linecap="round" stroke-linejoin="round"/>
<path d="M83.4053 312.111C83.4053 312.111 98.3333 311.937 104.061 316.624" stroke="#263238" stroke-miterlimit="10" stroke-linecap="round" stroke-linejoin="round"/>
<path d="M78.1982 312.631C78.1982 312.631 83.0582 309.507 89.8282 310.201" stroke="#263238" stroke-miterlimit="10" stroke-linecap="round" stroke-linejoin="round"/>
<path d="M115.538 197.191C115.538 197.191 118.779 199.99 119.663 204.262C120.547 208.534 119.368 209.123 120.547 211.185C121.726 213.247 123.788 214.426 123.199 216.046C122.61 217.666 120.695 218.256 120.695 218.256C120.695 218.256 119.811 227.536 119.517 228.273C119.222 229.009 117.749 229.304 115.54 229.304C113.33 229.304 111.121 227.978 109.942 228.273C108.764 228.568 101.84 237.553 101.398 239.468C100.956 241.383 109.647 251.695 109.353 253.02C109.058 254.346 106.702 249.043 96.6851 242.561C86.6681 236.08 84.4581 235.196 84.4581 235.196C84.4581 235.196 89.7611 225.474 89.7611 223.411C89.7611 221.348 86.9621 223.116 83.8691 217.224C80.7761 211.332 82.8381 202.641 86.9631 198.221C91.0881 193.802 96.8331 190.856 103.314 190.856C109.795 190.856 113.92 192.624 114.804 194.097C115.685 195.57 115.538 197.191 115.538 197.191Z" fill="white" stroke="#263238" stroke-miterlimit="10" stroke-linecap="round" stroke-linejoin="round"/>
<path d="M114.801 194.097C113.917 192.624 109.793 190.856 103.311 190.856C96.829 190.856 91.084 193.802 86.96 198.221C84.674 200.67 83.026 204.433 82.534 208.303L82.393 208.386C82.393 208.386 82.688 216.488 79.005 220.76C75.322 225.032 70.756 224.443 68.841 228.567C66.926 232.691 73.407 236.08 68.841 240.499C64.274 244.918 59.855 244.918 59.855 250.516C59.855 256.114 66.042 258.618 65.895 261.122C65.748 263.626 62.36 267.014 64.864 271.286C67.368 275.558 72.23 277.473 74.439 276.294C76.649 275.116 79.005 273.79 79.3 267.603C79.595 261.416 76.796 250.073 81.51 246.096C86.224 242.119 91.38 242.561 94.178 243.886C96.977 245.212 99.334 245.506 99.923 241.382C100.512 237.257 97.861 233.427 98.745 231.218C99.629 229.008 104.343 225.326 103.901 222.085C103.459 218.844 100.955 216.487 100.218 214.867C100.218 214.867 99.776 213.394 99.04 211.479C98.304 209.564 99.335 207.502 101.839 206.618C104.343 205.734 104.785 209.564 105.669 209.859C106.553 210.154 106.553 209.27 107.584 208.828C108.615 208.386 111.267 207.797 111.709 206.324C112.151 204.851 111.414 203.82 113.182 201.463C114.95 199.106 115.539 197.191 115.539 197.191C115.539 197.191 115.685 195.57 114.801 194.097Z" fill="#263238" stroke="#263238" stroke-miterlimit="10" stroke-linecap="round" stroke-linejoin="round"/>
<path d="M119.221 220.465C119.221 220.465 117.601 220.318 117.011 218.845" stroke="#263238" stroke-miterlimit="10" stroke-linecap="round" stroke-linejoin="round"/>
<path d="M118.933 210.021C118.933 211.005 118.668 211.803 118.34 211.803C118.012 211.803 117.747 211.005 117.747 210.021C117.747 209.037 118.012 208.239 118.34 208.239C118.668 208.239 118.933 209.037 118.933 210.021Z" fill="#263238"/>
<path d="M119.424 206.73C119.424 206.73 117.74 205.233 116.617 207.104" stroke="#263238" stroke-miterlimit="10" stroke-linecap="round" stroke-linejoin="round"/>
<path d="M136.524 260.638V255.89H150.894V266.261H136.524V260.638Z" fill="#263238" stroke="#263238" stroke-miterlimit="10" stroke-linecap="round" stroke-linejoin="round"/>
<path d="M79.3921 265.33C79.3921 265.33 92.1361 300.622 93.9011 303.367C95.6661 306.112 97.0381 309.837 100.959 309.837C104.88 309.837 129.781 289.25 132.134 286.309C134.487 283.368 146.02 274.633 146.895 273.384C147.77 272.134 147.52 272.01 147.895 270.885C148.27 269.76 148.77 269.136 148.77 269.136C148.77 269.136 150.769 267.761 151.019 266.387C151.269 265.012 151.269 264.013 151.269 264.013C151.269 264.013 153.893 262.014 153.643 261.139C153.393 260.264 152.893 260.139 152.144 260.639C151.394 261.139 147.271 262.638 147.271 262.638C147.271 262.638 152.769 257.89 152.644 256.64C152.519 255.391 152.144 255.89 150.895 256.39C149.645 256.89 142.648 261.513 141.898 261.888C141.148 262.263 139.274 262.013 138.649 261.138C138.024 260.263 137.15 258.764 136.15 258.514C135.15 258.264 134.276 258.639 134.776 259.888C135.276 261.138 136.15 260.888 136.025 262.262C135.9 263.636 135.4 264.761 135.025 267.385C134.65 270.009 134.65 270.134 134.4 270.884C134.15 271.634 124.404 279.131 123.029 280.255C121.655 281.38 109.034 289.502 109.034 289.502C109.034 289.502 108.784 288.003 107.285 288.377C105.786 288.752 105.786 288.752 105.786 288.752C105.786 288.752 102.287 257.389 100.788 253.515C99.2891 249.641 97.2891 245.268 92.0411 245.393" fill="#E06330"/>
<path d="M79.3921 265.33C79.3921 265.33 92.1361 300.622 93.9011 303.367C95.6661 306.112 97.0381 309.837 100.959 309.837C104.88 309.837 129.781 289.25 132.134 286.309C134.487 283.368 146.02 274.633 146.895 273.384C147.77 272.134 147.52 272.01 147.895 270.885C148.27 269.76 148.77 269.136 148.77 269.136C148.77 269.136 150.769 267.761 151.019 266.387C151.269 265.012 151.269 264.013 151.269 264.013C151.269 264.013 153.893 262.014 153.643 261.139C153.393 260.264 152.893 260.139 152.144 260.639C151.394 261.139 147.271 262.638 147.271 262.638C147.271 262.638 152.769 257.89 152.644 256.64C152.519 255.391 152.144 255.89 150.895 256.39C149.645 256.89 142.648 261.513 141.898 261.888C141.148 262.263 139.274 262.013 138.649 261.138C138.024 260.263 137.15 258.764 136.15 258.514C135.15 258.264 134.276 258.639 134.776 259.888C135.276 261.138 136.15 260.888 136.025 262.262C135.9 263.636 135.4 264.761 135.025 267.385C134.65 270.009 134.65 270.134 134.4 270.884C134.15 271.634 124.404 279.131 123.029 280.255C121.655 281.38 109.034 289.502 109.034 289.502C109.034 289.502 108.784 288.003 107.285 288.377C105.786 288.752 105.786 288.752 105.786 288.752C105.786 288.752 102.287 257.389 100.788 253.515C99.2891 249.641 97.2891 245.268 92.0411 245.393" stroke="#263238" stroke-miterlimit="10" stroke-linecap="round" stroke-linejoin="round"/>
<path d="M148.769 269.135C148.769 269.135 150.768 267.76 151.018 266.386C151.268 265.011 151.268 264.012 151.268 264.012C151.268 264.012 153.892 262.013 153.642 261.138C153.392 260.263 152.892 260.138 152.143 260.638C151.393 261.138 147.27 262.637 147.27 262.637C147.27 262.637 152.768 257.889 152.643 256.639C152.518 255.39 152.143 255.889 150.894 256.389C149.644 256.889 142.647 261.512 141.897 261.887C141.147 262.262 139.273 262.012 138.648 261.137C138.023 260.262 137.149 258.763 136.149 258.513C135.149 258.263 134.275 258.638 134.775 259.888C135.275 261.138 136.149 260.888 136.025 262.262C135.9 263.636 135.4 264.761 135.025 267.385C134.65 270.009 134.65 270.134 134.4 270.884C134.4 270.884 136.774 269.759 139.898 273.383C141.041 274.709 141.679 276.202 142.039 277.593C144.511 275.563 146.548 273.88 146.896 273.383C147.771 272.133 147.521 272.009 147.896 270.884C148.27 269.76 148.769 269.135 148.769 269.135Z" fill="white" stroke="#263238" stroke-miterlimit="10" stroke-linecap="round" stroke-linejoin="round"/>
<path d="M151.268 264.012L147.52 266.261" stroke="#263238" stroke-miterlimit="10" stroke-linecap="round" stroke-linejoin="round"/>
<path d="M147.27 262.638L145.396 263.887" stroke="#263238" stroke-miterlimit="10" stroke-linecap="round" stroke-linejoin="round"/>
<path d="M105.102 290.414C105.102 290.414 104.755 294.927 102.325 299.093" stroke="#263238" stroke-miterlimit="10" stroke-linecap="round" stroke-linejoin="round"/>
<path d="M108.4 290.934C108.4 290.934 108.574 293.364 107.879 295.968" stroke="#263238" stroke-miterlimit="10" stroke-linecap="round" stroke-linejoin="round"/>
<path d="M171.918 330.762C171.918 330.762 175.443 333.935 174.915 340.633C174.386 347.331 159.05 410.185 158.169 416.002C157.288 421.819 166.983 426.755 169.803 429.223C172.623 431.691 179.674 432.043 180.203 434.335C180.732 436.627 173.857 434.128 169.803 434.128C165.749 434.128 156.406 432.189 154.467 432.189C152.528 432.189 145.477 434.159 143.714 433.278C141.951 432.397 141.599 429.4 142.656 426.58C143.714 423.76 145.476 419.882 146.182 417.59C146.887 415.298 150.06 399.257 149.355 393.088C148.65 386.918 150.06 368.663 150.765 364.079C151.47 359.496 155.524 339.048 158.874 333.054C162.223 327.06 171.037 329.88 171.918 330.762Z" fill="white" stroke="#263238" stroke-miterlimit="10" stroke-linecap="round" stroke-linejoin="round"/>
<path d="M180.203 434.335C179.674 432.043 172.623 431.691 169.803 429.223C167.879 427.54 162.759 424.707 159.976 421.231C158.584 422.785 156.656 424.482 154.996 424.287C152.572 424.002 146.806 422.218 144.69 421.546C143.99 423.257 143.223 425.068 142.657 426.578C141.599 429.398 141.952 432.395 143.715 433.276C145.478 434.157 152.529 432.187 154.468 432.187C156.407 432.187 165.75 434.126 169.804 434.126C173.857 434.128 180.732 436.627 180.203 434.335Z" fill="white" stroke="#263238" stroke-miterlimit="10" stroke-linecap="round" stroke-linejoin="round"/>
<path d="M171.918 330.762C171.037 329.881 162.223 327.06 158.874 333.054C155.525 339.047 151.471 359.495 150.765 364.079C150.273 367.276 149.289 384.17 149.068 390.188L165.932 388.774C170.174 372.091 174.634 344.185 174.914 340.635C175.444 333.935 171.918 330.762 171.918 330.762Z" fill="#263238" stroke="#263238" stroke-miterlimit="10" stroke-linecap="round" stroke-linejoin="round"/>
<path d="M104.234 319.227C104.234 319.227 113.101 320.674 129.056 320.869C144.855 321.062 164.813 323.835 168.805 326.959C172.797 330.083 174.012 332.861 173.491 336.853C172.97 340.845 167.069 391.545 166.027 400.05C164.986 408.555 166.201 416.019 166.201 416.019C166.201 416.019 172.276 421.921 174.359 424.004C176.442 426.087 180.434 429.211 183.038 430.079C185.642 430.947 191.196 430.773 191.717 433.03C192.238 435.287 192.411 434.339 189.46 435.554C186.509 436.769 175.053 437.29 168.978 435.554C162.903 433.818 148.149 432.509 147.455 431.815C146.761 431.121 146.587 428.344 147.282 425.045C147.976 421.747 149.365 420.532 150.753 417.755C152.141 414.978 152.836 399.356 152.142 393.801C151.448 388.247 150.233 365.32 149.885 361.674C149.538 358.029 150.232 350.044 150.232 350.044C150.232 350.044 136.693 350.55 129.229 351.244C121.765 351.938 71.775 352.206 63.964 351.338C56.153 350.47 55.632 334.501 61.36 324.781C61.36 324.781 80.28 319.921 88.264 319.053C96.25 318.186 104.234 319.227 104.234 319.227Z" fill="#7A7A7A" stroke="#263238" stroke-miterlimit="10" stroke-linecap="round" stroke-linejoin="round"/>
<path d="M90.695 323.567C90.695 323.567 79.76 328.427 73.511 335.891" stroke="#263238" stroke-miterlimit="10" stroke-linecap="round" stroke-linejoin="round"/>
<path d="M82.711 325.823C82.711 325.823 77.157 327.906 74.553 331.204" stroke="#263238" stroke-miterlimit="10" stroke-linecap="round" stroke-linejoin="round"/>
<path d="M150.232 350.045C150.232 350.045 159.084 342.234 160.994 337.895" stroke="#263238" stroke-miterlimit="10" stroke-linecap="round" stroke-linejoin="round"/>
<path d="M164.639 336.679C164.639 336.679 162.73 339.803 159.258 343.101" stroke="#263238" stroke-miterlimit="10" stroke-linecap="round" stroke-linejoin="round"/>
<path d="M183.038 430.079C180.434 429.211 176.442 426.087 174.359 424.004C172.276 421.921 166.201 416.02 166.201 416.02C166.201 416.02 164.986 408.556 166.027 400.051C166.351 397.402 166.656 393.616 167.614 386.257L151.863 389.65C152.107 392.441 151.948 392.255 152.142 393.803C152.836 399.358 152.142 414.979 150.753 417.757C149.364 420.534 147.976 421.749 147.282 425.047C146.588 428.345 146.761 431.122 147.455 431.817C148.149 432.511 162.903 433.821 168.979 435.556C175.054 437.292 186.51 436.771 189.461 435.556C192.412 434.341 192.238 435.288 191.718 433.032C191.196 430.773 185.642 430.947 183.038 430.079Z" fill="white" stroke="#263238" stroke-miterlimit="10" stroke-linecap="round" stroke-linejoin="round"/>
<path d="M189.46 435.554C192.411 434.339 192.237 435.286 191.717 433.03C191.196 430.773 185.642 430.947 183.038 430.079C180.434 429.211 176.442 426.087 174.359 424.004C172.276 421.921 166.201 416.02 166.201 416.02C166.201 416.02 165.189 416.201 164.812 418.271C164.436 420.34 164.436 420.34 164.436 420.34C164.436 420.34 161.99 421.281 157.099 420.904C153.597 420.635 151.163 419.596 150.059 419.027C148.919 420.989 147.858 422.3 147.28 425.046C146.586 428.344 146.759 431.121 147.453 431.816C148.147 432.51 162.901 433.82 168.977 435.555C175.054 437.289 186.51 436.769 189.46 435.554Z" fill="white" stroke="#263238" stroke-miterlimit="10" stroke-linecap="round" stroke-linejoin="round"/>
<path d="M157.883 298.124H140.349V307.39H157.883V298.124Z" fill="white" stroke="#263238" stroke-miterlimit="10" stroke-linecap="round" stroke-linejoin="round"/>
<path d="M157.883 298.124H140.349V301.26H157.883V298.124Z" fill="#E06330" stroke="#263238" stroke-miterlimit="10" stroke-linecap="round" stroke-linejoin="round"/>
<path d="M149.052 298.324V306.888" stroke="#263238" stroke-miterlimit="10" stroke-linecap="round" stroke-linejoin="round"/>
<path d="M269.558 307.386H237.212L239.961 309.612H267.168L269.558 307.386Z" fill="white" stroke="#263238" stroke-miterlimit="10" stroke-linecap="round" stroke-linejoin="round"/>
<path d="M261.422 307.387V302.001L260.479 301.058C260.479 301.058 259.671 300.654 258.998 300.25C258.325 299.846 257.652 299.981 257.113 300.115C256.574 300.25 256.305 301.058 255.901 301.058C255.497 301.058 253.477 301.327 253.477 301.327C253.477 301.327 252.4 301.731 251.996 301.866C251.592 302.001 249.976 303.078 249.976 303.078C249.976 303.078 247.687 303.347 246.61 303.347C245.533 303.347 244.456 304.559 244.456 304.559V307.387H261.422Z" fill="white" stroke="#263238" stroke-miterlimit="10" stroke-linecap="round" stroke-linejoin="round"/>
<path d="M258.998 300.25C258.325 299.846 257.652 299.981 257.113 300.115C256.574 300.25 256.305 301.058 255.901 301.058C255.497 301.058 253.477 301.327 253.477 301.327C253.477 301.327 252.4 301.731 251.996 301.866C251.592 302.001 249.976 303.078 249.976 303.078C249.976 303.078 247.687 303.347 246.61 303.347C245.533 303.347 244.456 304.559 244.456 304.559V305.636H252.4C252.4 305.636 253.343 305.636 254.689 304.693C256.035 303.75 256.574 302.943 257.517 302.943C258.46 302.943 258.998 303.886 259.671 304.02C260.038 304.093 260.799 304.126 261.421 304.141V302L260.478 301.057C260.478 301.057 259.671 300.654 258.998 300.25Z" fill="#E06330" stroke="#263238" stroke-miterlimit="10" stroke-linecap="round" stroke-linejoin="round"/>
<path d="M232.98 294.568H220.306V309.523H232.98V294.568Z" fill="#263238" stroke="#263238" stroke-miterlimit="10" stroke-linecap="round" stroke-linejoin="round"/>
<path d="M190.035 291.036L187.952 306.955C187.798 308.108 188.694 309.133 189.857 309.133H197.566C198.729 309.133 199.626 308.108 199.471 306.955L197.388 291.036H190.035Z" fill="#E06330"/>
<path d="M189.803 304.708C189.803 304.708 193.285 288.385 195.897 280.767" stroke="#263238" stroke-miterlimit="10" stroke-linecap="round" stroke-linejoin="round"/>
<path d="M194.886 274.068C194.886 274.068 192.854 270.875 192.37 271.746C191.886 272.617 193.434 274.262 193.434 274.262C193.434 274.262 190.338 273.004 189.854 273.875C189.37 274.746 191.886 275.81 192.176 275.81C192.466 275.81 188.402 275.907 188.693 277.165C188.983 278.423 191.015 277.455 191.306 277.262C191.596 277.069 188.5 279.197 189.855 279.584C191.21 279.971 192.951 278.52 192.951 278.52C192.951 278.52 190.822 280.649 191.983 281.133C193.144 281.617 194.112 279.875 194.112 279.875C194.112 279.875 192.854 282.294 193.725 282.391C194.596 282.488 195.273 281.714 195.273 281.714C195.273 281.714 195.66 283.843 196.337 283.553C197.014 283.263 197.595 280.553 197.595 280.553C197.595 280.553 198.756 283.359 199.046 282.778C199.336 282.197 199.143 280.939 199.143 280.939C199.143 280.939 200.498 282.487 200.788 281.52C201.078 280.552 200.401 279.875 200.401 279.875C200.401 279.875 201.949 280.552 201.853 279.391C201.756 278.23 200.208 277.553 200.208 277.553C200.208 277.553 201.272 276.876 200.885 276.392C200.498 275.908 199.046 275.908 199.046 275.908C199.046 275.908 200.594 274.65 200.014 274.457C199.433 274.264 197.885 274.747 197.885 274.747C197.885 274.747 198.369 272.038 197.692 272.231C197.015 272.425 196.531 273.779 196.531 273.779C196.531 273.779 196.241 270.683 195.467 271.263C194.692 271.842 194.886 274.068 194.886 274.068Z" fill="#E06330"/>
<path d="M198.114 277.482C197.988 278.138 197.206 278.539 196.366 278.379C195.526 278.218 194.947 277.556 195.073 276.9C195.199 276.244 195.981 275.843 196.821 276.003C197.661 276.164 198.24 276.826 198.114 277.482Z" fill="white"/>
<path d="M197.023 284.881H190.401L187.478 306.702C187.273 308.237 188.466 309.601 190.015 309.601H197.408C198.956 309.601 200.15 308.237 199.945 306.702L197.023 284.881Z" stroke="#263238" stroke-miterlimit="10" stroke-linecap="round" stroke-linejoin="round"/>
<path d="M197.638 284.621H189.798V286.348H197.638V284.621Z" fill="white" stroke="#263238" stroke-miterlimit="10" stroke-linecap="round" stroke-linejoin="round"/>
<path d="M208.36 311.495H194.761V432.614H208.36V311.495Z" fill="white" stroke="#263238" stroke-miterlimit="10" stroke-linecap="round" stroke-linejoin="round"/>
<path d="M237.259 430.606H166.227V438.139H237.259V430.606Z" fill="white" stroke="#263238" stroke-miterlimit="10" stroke-linecap="round" stroke-linejoin="round"/>
<path d="M340.478 387.257L328.056 309.644H74.851L62.429 387.257L81.273 395.717L80.119 405.332H210.106H233.565H322.787L321.634 395.717L340.478 387.257Z" fill="#E06330" stroke="#263238" stroke-miterlimit="10" stroke-linecap="round" stroke-linejoin="round"/>
<path d="M81.2729 395.717L92.4259 314.956" stroke="#263238" stroke-miterlimit="10" stroke-linecap="round" stroke-linejoin="round"/>
<path d="M321.634 395.717L313.942 318.033" stroke="#263238" stroke-miterlimit="10" stroke-linecap="round" stroke-linejoin="round"/>
<path d="M289.531 344.127L287.791 318.033" stroke="#263238" stroke-miterlimit="10" stroke-linecap="round" stroke-linejoin="round"/>
<path d="M114.347 316.879L112.809 386.103" stroke="#263238" stroke-miterlimit="10" stroke-linecap="round" stroke-linejoin="round"/>
<path d="M233.78 297.814C231.787 297.814 230.172 299.651 230.172 301.916C230.172 304.182 231.788 306.018 233.78 306.018C235.773 306.018 237.388 304.181 237.388 301.916C237.389 299.651 235.773 297.814 233.78 297.814ZM233.78 304.367C232.59 304.367 231.625 303.27 231.625 301.917C231.625 300.564 232.59 299.467 233.78 299.467C234.97 299.467 235.935 300.564 235.935 301.917C235.936 303.27 234.971 304.367 233.78 304.367Z" fill="#263238" stroke="#263238" stroke-miterlimit="10" stroke-linecap="round" stroke-linejoin="round"/>
<path d="M165.2 307.386H132.854L135.603 309.612H162.809L165.2 307.386Z" fill="white" stroke="#263238" stroke-miterlimit="10" stroke-linecap="round" stroke-linejoin="round"/>
<path d="M385.395 45.771H369.685V68.781H385.395V45.771Z" fill="#E06330" stroke="#263238" stroke-miterlimit="10" stroke-linecap="round" stroke-linejoin="round"/>
<path d="M398.839 81.469H356.243L364.588 58.46H390.493L398.839 81.469Z" fill="#E06330" stroke="#263238" stroke-miterlimit="10" stroke-linecap="round" stroke-linejoin="round"/>
<path d="M377.541 45.9668V15.2598" stroke="#263238" stroke-miterlimit="10" stroke-linecap="round" stroke-linejoin="round"/>
<path d="M677.554 45.771H661.844V68.781H677.554V45.771Z" fill="#E06330" stroke="#263238" stroke-miterlimit="10" stroke-linecap="round" stroke-linejoin="round"/>
<path d="M690.997 81.469H648.401L656.747 58.46H682.652L690.997 81.469Z" fill="#E06330" stroke="#263238" stroke-miterlimit="10" stroke-linecap="round" stroke-linejoin="round"/>
<path d="M669.699 45.9668V15.2598" stroke="#263238" stroke-miterlimit="10" stroke-linecap="round" stroke-linejoin="round"/>
<path d="M93.2359 45.771H77.5259V68.781H93.2359V45.771Z" fill="#E06330" stroke="#263238" stroke-miterlimit="10" stroke-linecap="round" stroke-linejoin="round"/>
<path d="M106.68 81.469H64.084L72.429 58.46H98.335L106.68 81.469Z" fill="#E06330" stroke="#263238" stroke-miterlimit="10" stroke-linecap="round" stroke-linejoin="round"/>
<path d="M85.3821 45.9668V15.2598" stroke="#263238" stroke-miterlimit="10" stroke-linecap="round" stroke-linejoin="round"/>
</svg>
